<svg width="12" height="12" viewBox="0 0 12 12" fill="none" xmlns="http://www.w3.org/2000/svg">
<path d="M9.23492 8.41501L9.42992 9.995C9.47992 10.41 9.03492 10.7 8.67992 10.485L6.58492 9.23999C6.35492 9.23999 6.12993 9.22501 5.90993 9.19501C6.27993 8.76001 6.49992 8.20999 6.49992 7.61499C6.49992 6.19499 5.26992 5.04501 3.74992 5.04501C3.16992 5.04501 2.63493 5.21 2.18993 5.5C2.17493 5.375 2.16992 5.25 2.16992 5.12C2.16992 2.845 4.14492 1 6.58492 1C9.02492 1 10.9999 2.845 10.9999 5.12C10.9999 6.47 10.3049 7.66501 9.23492 8.41501Z" stroke="#1E7B1D" stroke-linecap="round" stroke-linejoin="round"/>
<path d="M6.5 7.6149C6.5 8.2099 6.28 8.75992 5.91 9.19492C5.415 9.79492 4.63 10.1799 3.75 10.1799L2.445 10.9549C2.225 11.0899 1.945 10.9049 1.975 10.6499L2.1 9.66492C1.43 9.19992 1 8.4549 1 7.6149C1 6.7349 1.47 5.95991 2.19 5.49991C2.635 5.20991 3.17 5.04492 3.75 5.04492C5.27 5.04492 6.5 6.1949 6.5 7.6149Z" stroke="#1E7B1D" stroke-linecap="round" stroke-linejoin="round"/>
</svg>
