<svg width="16" height="16" viewBox="0 0 16 16" fill="none" xmlns="http://www.w3.org/2000/svg">
<mask id="path-1-inside-1_2187_50240" fill="white">
<path d="M10.0007 15.1673H6.00065C2.38065 15.1673 0.833984 13.6207 0.833984 10.0007V6.00065C0.833984 2.38065 2.38065 0.833984 6.00065 0.833984H10.0007C13.6207 0.833984 15.1673 2.38065 15.1673 6.00065V10.0007C15.1673 13.6207 13.6207 15.1673 10.0007 15.1673ZM6.00065 1.83398C2.92732 1.83398 1.83398 2.92732 1.83398 6.00065V10.0007C1.83398 13.074 2.92732 14.1673 6.00065 14.1673H10.0007C13.074 14.1673 14.1673 13.074 14.1673 10.0007V6.00065C14.1673 2.92732 13.074 1.83398 10.0007 1.83398H6.00065Z"/>
</mask>
<path d="M10.0007 15.1673H6.00065C2.38065 15.1673 0.833984 13.6207 0.833984 10.0007V6.00065C0.833984 2.38065 2.38065 0.833984 6.00065 0.833984H10.0007C13.6207 0.833984 15.1673 2.38065 15.1673 6.00065V10.0007C15.1673 13.6207 13.6207 15.1673 10.0007 15.1673ZM6.00065 1.83398C2.92732 1.83398 1.83398 2.92732 1.83398 6.00065V10.0007C1.83398 13.074 2.92732 14.1673 6.00065 14.1673H10.0007C13.074 14.1673 14.1673 13.074 14.1673 10.0007V6.00065C14.1673 2.92732 13.074 1.83398 10.0007 1.83398H6.00065Z" fill="#4D4A4A"/>
<path d="M10.0007 13.9673H6.00065V16.3673H10.0007V13.9673ZM6.00065 13.9673C4.3284 13.9673 3.4208 13.6054 2.90835 13.093C2.39589 12.5805 2.03398 11.6729 2.03398 10.0007H-0.366016C-0.366016 11.9484 0.0454119 13.6241 1.21129 14.79C2.37717 15.9559 4.0529 16.3673 6.00065 16.3673V13.9673ZM2.03398 10.0007V6.00065H-0.366016V10.0007H2.03398ZM2.03398 6.00065C2.03398 4.3284 2.39589 3.4208 2.90835 2.90835C3.4208 2.39589 4.3284 2.03398 6.00065 2.03398V-0.366016C4.0529 -0.366016 2.37717 0.0454119 1.21129 1.21129C0.0454119 2.37717 -0.366016 4.0529 -0.366016 6.00065H2.03398ZM6.00065 2.03398H10.0007V-0.366016H6.00065V2.03398ZM10.0007 2.03398C11.6729 2.03398 12.5805 2.39589 13.093 2.90835C13.6054 3.4208 13.9673 4.3284 13.9673 6.00065H16.3673C16.3673 4.0529 15.9559 2.37717 14.79 1.21129C13.6241 0.0454119 11.9484 -0.366016 10.0007 -0.366016V2.03398ZM13.9673 6.00065V10.0007H16.3673V6.00065H13.9673ZM13.9673 10.0007C13.9673 11.6729 13.6054 12.5805 13.093 13.093C12.5805 13.6054 11.6729 13.9673 10.0007 13.9673V16.3673C11.9484 16.3673 13.6241 15.9559 14.79 14.79C15.9559 13.6241 16.3673 11.9484 16.3673 10.0007H13.9673ZM6.00065 0.633984C4.37932 0.633984 2.92269 0.909888 1.91629 1.91629C0.909888 2.92269 0.633984 4.37932 0.633984 6.00065H3.03398C3.03398 4.54865 3.30475 3.92194 3.61335 3.61335C3.92194 3.30475 4.54865 3.03398 6.00065 3.03398V0.633984ZM0.633984 6.00065V10.0007H3.03398V6.00065H0.633984ZM0.633984 10.0007C0.633984 11.622 0.909888 13.0786 1.91629 14.085C2.92269 15.0914 4.37932 15.3673 6.00065 15.3673V12.9673C4.54865 12.9673 3.92194 12.6966 3.61335 12.388C3.30475 12.0794 3.03398 11.4527 3.03398 10.0007H0.633984ZM6.00065 15.3673H10.0007V12.9673H6.00065V15.3673ZM10.0007 15.3673C11.622 15.3673 13.0786 15.0914 14.085 14.085C15.0914 13.0786 15.3673 11.622 15.3673 10.0007H12.9673C12.9673 11.4527 12.6966 12.0794 12.388 12.388C12.0794 12.6966 11.4527 12.9673 10.0007 12.9673V15.3673ZM15.3673 10.0007V6.00065H12.9673V10.0007H15.3673ZM15.3673 6.00065C15.3673 4.37932 15.0914 2.92269 14.085 1.91629C13.0786 0.909888 11.622 0.633984 10.0007 0.633984V3.03398C11.4527 3.03398 12.0794 3.30475 12.388 3.61335C12.6966 3.92194 12.9673 4.54865 12.9673 6.00065H15.3673ZM10.0007 0.633984H6.00065V3.03398H10.0007V0.633984Z" fill="#4D4A4A" mask="url(#path-1-inside-1_2187_50240)"/>
<mask id="path-3-inside-2_2187_50240" fill="white">
<path d="M5.87964 6.50029C5.31297 6.50029 4.7463 6.28695 4.31297 5.85362C4.11964 5.66029 4.11964 5.34029 4.31297 5.14695C4.5063 4.95362 4.8263 4.95362 5.01964 5.14695C5.49297 5.62029 6.2663 5.62029 6.73964 5.14695C6.93297 4.95362 7.25297 4.95362 7.4463 5.14695C7.63964 5.34029 7.63964 5.66029 7.4463 5.85362C7.01297 6.28029 6.4463 6.50029 5.87964 6.50029Z"/>
</mask>
<path d="M5.87964 6.50029C5.31297 6.50029 4.7463 6.28695 4.31297 5.85362C4.11964 5.66029 4.11964 5.34029 4.31297 5.14695C4.5063 4.95362 4.8263 4.95362 5.01964 5.14695C5.49297 5.62029 6.2663 5.62029 6.73964 5.14695C6.93297 4.95362 7.25297 4.95362 7.4463 5.14695C7.63964 5.34029 7.63964 5.66029 7.4463 5.85362C7.01297 6.28029 6.4463 6.50029 5.87964 6.50029Z" fill="#4D4A4A"/>
<path d="M7.4463 5.85362L8.28825 6.70873L8.29483 6.70215L7.4463 5.85362ZM5.87964 5.30029C5.61459 5.30029 5.35828 5.20188 5.1615 5.00509L3.46444 6.70215C4.13432 7.37203 5.01135 7.70029 5.87964 7.70029V5.30029ZM5.1615 5.00509C5.43679 5.28039 5.43679 5.72019 5.1615 5.99548L3.46444 4.29842C2.80248 4.96039 2.80248 6.04019 3.46444 6.70215L5.1615 5.00509ZM5.1615 5.99548C4.8862 6.27078 4.4464 6.27078 4.17111 5.99548L5.86816 4.29842C5.2062 3.63646 4.1264 3.63646 3.46444 4.29842L5.1615 5.99548ZM4.17111 5.99548C5.11307 6.93744 6.6462 6.93744 7.58816 5.99548L5.89111 4.29842C5.88985 4.29968 5.88922 4.30009 5.88916 4.30013C5.88903 4.30021 5.8888 4.30035 5.88827 4.30057C5.887 4.30108 5.88398 4.30195 5.87964 4.30195C5.87529 4.30195 5.87227 4.30108 5.871 4.30057C5.87047 4.30035 5.87024 4.30021 5.87011 4.30013C5.87005 4.30009 5.86942 4.29968 5.86816 4.29842L4.17111 5.99548ZM7.58816 5.99548C7.31287 6.27078 6.87307 6.27078 6.59777 5.99548L8.29483 4.29842C7.63287 3.63646 6.55307 3.63646 5.89111 4.29842L7.58816 5.99548ZM6.59777 5.99548C6.32248 5.72019 6.32248 5.28039 6.59777 5.00509L8.29483 6.70215C8.95679 6.04019 8.95679 4.96039 8.29483 4.29842L6.59777 5.99548ZM6.60438 4.99854C6.39914 5.20062 6.13637 5.30029 5.87964 5.30029V7.70029C6.75624 7.70029 7.6268 7.35995 8.28823 6.7087L6.60438 4.99854Z" fill="#4D4A4A" mask="url(#path-3-inside-2_2187_50240)"/>
<mask id="path-5-inside-3_2187_50240" fill="white">
<path d="M10.1199 6.50029C9.5532 6.50029 8.98654 6.28695 8.5532 5.85362C8.35987 5.66029 8.35987 5.34029 8.5532 5.14695C8.74654 4.95362 9.06654 4.95362 9.25987 5.14695C9.7332 5.62029 10.5065 5.62029 10.9799 5.14695C11.1732 4.95362 11.4932 4.95362 11.6865 5.14695C11.8799 5.34029 11.8799 5.66029 11.6865 5.85362C11.2532 6.28029 10.6865 6.50029 10.1199 6.50029Z"/>
</mask>
<path d="M10.1199 6.50029C9.5532 6.50029 8.98654 6.28695 8.5532 5.85362C8.35987 5.66029 8.35987 5.34029 8.5532 5.14695C8.74654 4.95362 9.06654 4.95362 9.25987 5.14695C9.7332 5.62029 10.5065 5.62029 10.9799 5.14695C11.1732 4.95362 11.4932 4.95362 11.6865 5.14695C11.8799 5.34029 11.8799 5.66029 11.6865 5.85362C11.2532 6.28029 10.6865 6.50029 10.1199 6.50029Z" fill="#4D4A4A"/>
<path d="M11.6865 5.85362L12.5285 6.70873L12.5351 6.70215L11.6865 5.85362ZM10.1199 5.30029C9.85482 5.30029 9.59852 5.20188 9.40173 5.00509L7.70467 6.70215C8.37455 7.37203 9.25159 7.70029 10.1199 7.70029V5.30029ZM9.40173 5.00509C9.67703 5.28039 9.67703 5.72019 9.40173 5.99548L7.70467 4.29843C7.04271 4.96039 7.04271 6.04019 7.70467 6.70215L9.40173 5.00509ZM9.40173 5.99548C9.12644 6.27078 8.68664 6.27078 8.41134 5.99548L10.1084 4.29843C9.44644 3.63646 8.36664 3.63646 7.70467 4.29843L9.40173 5.99548ZM8.41134 5.99548C9.3533 6.93744 10.8864 6.93744 11.8284 5.99548L10.1313 4.29843C10.1301 4.29968 10.1295 4.30009 10.1294 4.30013C10.1293 4.30021 10.129 4.30035 10.1285 4.30057C10.1272 4.30108 10.1242 4.30195 10.1199 4.30195C10.1155 4.30195 10.1125 4.30108 10.1112 4.30057C10.1107 4.30035 10.1105 4.30021 10.1103 4.30013C10.1103 4.30009 10.1097 4.29968 10.1084 4.29843L8.41134 5.99548ZM11.8284 5.99548C11.5531 6.27078 11.1133 6.27078 10.838 5.99548L12.5351 4.29843C11.8731 3.63646 10.7933 3.63646 10.1313 4.29843L11.8284 5.99548ZM10.838 5.99548C10.5627 5.72019 10.5627 5.28039 10.838 5.00509L12.5351 6.70215C13.197 6.04019 13.197 4.96039 12.5351 4.29843L10.838 5.99548ZM10.8446 4.99854C10.6394 5.20062 10.3766 5.30029 10.1199 5.30029V7.70029C10.9965 7.70029 11.867 7.35995 12.5285 6.7087L10.8446 4.99854Z" fill="#4D4A4A" mask="url(#path-5-inside-3_2187_50240)"/>
<path d="M8 12.766C6.06667 12.766 4.5 11.1927 4.5 9.26602C4.5 8.65935 4.99333 8.16602 5.6 8.16602H10.4C11.0067 8.16602 11.5 8.65935 11.5 9.26602C11.5 11.1927 9.93333 12.766 8 12.766ZM5.6 9.16602C5.54667 9.16602 5.5 9.21268 5.5 9.26602C5.5 10.646 6.62 11.766 8 11.766C9.38 11.766 10.5 10.646 10.5 9.26602C10.5 9.21268 10.4533 9.16602 10.4 9.16602H5.6Z" fill="#4D4A4A"/>
</svg>
