<svg width="12" height="12" viewBox="0 0 12 12" fill="none" xmlns="http://www.w3.org/2000/svg">
<path d="M11 2.33485V8.36985C11 8.84985 10.61 9.29984 10.13 9.35984L9.965 9.37986C8.875 9.52486 7.19499 10.0798 6.23499 10.6098C6.10499 10.6848 5.89 10.6848 5.755 10.6098L5.73499 10.5999C4.77499 10.0749 3.10001 9.52486 2.01501 9.37986L1.87 9.35984C1.39 9.29984 1 8.84985 1 8.36985V2.32985C1 1.73485 1.48499 1.28485 2.07999 1.33485C3.12999 1.41985 4.71999 1.94986 5.60999 2.50486L5.73499 2.57985C5.87999 2.66985 6.12001 2.66985 6.26501 2.57985L6.35001 2.52485C6.66501 2.32985 7.065 2.13485 7.5 1.95985V3.99986L8.5 3.33485L9.5 3.99986V1.38987C9.635 1.36487 9.76501 1.34986 9.88501 1.33986H9.91501C10.51 1.28986 11 1.73485 11 2.33485Z" stroke="#777474" stroke-width="0.8" stroke-linecap="round" stroke-linejoin="round"/>
<path d="M6 2.74512V10.2451" stroke="#777474" stroke-width="0.8" stroke-linecap="round" stroke-linejoin="round"/>
<path d="M9.5 1.38965V3.99963L8.5 3.33463L7.5 3.99963V1.95963C8.155 1.69963 8.885 1.48965 9.5 1.38965Z" stroke="#777474" stroke-width="0.8" stroke-linecap="round" stroke-linejoin="round"/>
</svg>
