<svg xmlns="http://www.w3.org/2000/svg" width="18" height="17" viewBox="0 0 18 17" fill="none">
    <g clip-path="url(#clip0_142_56435)">
        <path d="M17.1707 8.68417C17.1707 8.14035 17.1248 7.59359 17.0268 7.05859H9.1665V10.1392H13.6677C13.4809 11.1328 12.8808 12.0117 12.002 12.5703V14.5692H14.6874C16.2643 13.1758 17.1707 11.1181 17.1707 8.68417Z" fill="#4285F4"/>
        <path d="M9.1666 16.5005C11.4141 16.5005 13.3095 15.792 14.6905 14.5692L12.0051 12.5703C11.258 13.0582 10.2934 13.3346 9.16966 13.3346C6.99562 13.3346 5.15227 11.9265 4.49087 10.0334H1.71973V12.0941C3.13439 14.7955 6.01577 16.5005 9.1666 16.5005Z" fill="#34A853"/>
        <path d="M4.48755 10.0336C4.13848 9.03999 4.13848 7.96411 4.48755 6.97054V4.90991H1.71947C0.537521 7.17043 0.537521 9.83367 1.71947 12.0942L4.48755 10.0336Z" fill="#FBBC04"/>
        <path d="M9.1666 3.66644C10.3547 3.6488 11.5029 4.07798 12.3634 4.86578L14.7426 2.58174C13.236 1.22367 11.2365 0.477023 9.1666 0.500539C6.01576 0.500539 3.13439 2.20548 1.71973 4.90987L4.48781 6.9705C5.14615 5.07449 6.99255 3.66644 9.1666 3.66644Z" fill="#EA4335"/>
    </g>
    <defs>
        <clipPath id="clip0_142_56435">
            <rect width="16.6667" height="16" fill="white" transform="translate(0.666504 0.5)"/>
        </clipPath>
    </defs>
</svg>