<svg width="16" height="18" viewBox="0 0 16 18" fill="none" xmlns="http://www.w3.org/2000/svg">
    <g id="LogoClubbera 1" clip-path="url(#clip0_596_606)">
        <path id="Vector" d="M9.63295 18.0002C11.7203 17.9733 13.9727 16.9285 15.8033 14.9385C15.8386 14.8869 15.8663 14.8305 15.8856 14.771C16.2738 13.6484 14.1062 11.5129 13.0278 11.8948C12.8938 11.9423 12.8449 11.9798 12.6206 12.2192C11.4956 13.4201 10.1054 14.0009 8.4763 13.8001C6.49306 13.5556 5.09559 12.4501 4.44962 10.5579C3.80896 8.6809 4.2389 6.98098 5.63443 5.56067C7.61341 3.54697 11.4157 4.12318 11.6801 4.9726C11.8175 5.41334 11.1099 6.2139 10.5226 6.22204C10.2215 6.22612 10.1169 5.99185 9.61843 5.89463C9.24446 5.82333 8.86088 5.81823 8.48515 5.87958C7.00127 6.11102 5.84851 7.45076 5.83789 8.98476C5.82337 10.8517 7.68176 12.36 8.4122 12.1121C8.82691 11.9715 9.16069 11.1686 8.95971 10.9135C8.89508 10.8315 8.7883 10.8212 8.71978 10.8122C7.95836 10.7111 7.32691 10.0787 7.20101 9.34653C7.06572 8.55925 7.42448 7.79146 8.10887 7.40189C8.78777 7.0164 9.64588 7.1083 10.2378 7.63475C10.3723 7.7532 10.4996 7.87963 10.6189 8.01333C10.667 8.04719 10.7168 8.07852 10.7682 8.10718C11.2445 8.3627 14.2619 6.33378 13.8121 5.1557C13.7963 5.11444 13.7903 5.07053 13.7335 5.00908C12.5876 3.77186 11.2107 3.00442 9.5044 2.86984C5.56413 2.55872 2.34332 5.96953 2.90517 9.86642C3.5322 14.2155 8.35908 16.5326 12.1547 14.3174C12.3096 14.2271 12.6314 13.7704 13.0806 13.7996C13.5807 13.8324 14.1113 14.4194 14.0106 14.7634C13.9787 14.8725 13.8886 14.9329 13.8594 14.9561C12.1063 16.3484 10.1132 16.9204 7.90311 16.597C3.70644 15.9829 0.77709 12.0894 1.42359 7.91187C1.89071 4.89257 3.6225 2.78024 6.5067 1.77286C9.38274 0.769027 11.9974 1.40419 14.2704 3.42834C14.4315 3.57194 14.6033 4.0164 14.95 4.04473C15.3627 4.0782 15.8816 3.57212 15.8233 3.20203C15.8081 3.11884 15.7683 3.04212 15.7091 2.98175C13.4863 0.61993 10.7542 -0.377178 7.5633 0.128548C2.63832 0.909093 -0.656153 5.51799 0.110581 10.4223C0.791256 14.7735 4.56915 17.991 9.63295 18.0002Z" fill="#228B22"/>
    </g>
    <defs>
        <clipPath id="clip0_596_606">
            <rect width="15.9316" height="18" fill="white"/>
        </clipPath>
    </defs>
</svg>
