<svg xmlns="http://www.w3.org/2000/svg" width="14" height="14" viewBox="0 0 14 14" fill="none">
  <path d="M10.4999 4.17651C10.4649 4.17067 10.424 4.17067 10.389 4.17651C9.58405 4.14734 8.94238 3.48817 8.94238 2.6715C8.94238 1.83734 9.61321 1.1665 10.4474 1.1665C11.2815 1.1665 11.9524 1.84317 11.9524 2.6715C11.9465 3.48817 11.3049 4.14734 10.4999 4.17651Z" stroke="#1E7B1D" stroke-width="0.9" stroke-linecap="round" stroke-linejoin="round"/>
  <path d="M9.89909 8.42326C10.6983 8.55743 11.5791 8.41743 12.1974 8.00326C13.0199 7.45493 13.0199 6.5566 12.1974 6.00827C11.5733 5.5941 10.6808 5.45409 9.88159 5.59409" stroke="#1E7B1D" stroke-width="0.9" stroke-linecap="round" stroke-linejoin="round"/>
  <path d="M3.48253 4.17651C3.51753 4.17067 3.55836 4.17067 3.59336 4.17651C4.39836 4.14734 5.04003 3.48817 5.04003 2.6715C5.04003 1.83734 4.3692 1.1665 3.53503 1.1665C2.70086 1.1665 2.03003 1.84317 2.03003 2.6715C2.03586 3.48817 2.67753 4.14734 3.48253 4.17651Z" stroke="#1E7B1D" stroke-width="0.9" stroke-linecap="round" stroke-linejoin="round"/>
  <path d="M4.08342 8.42326C3.28425 8.55743 2.40342 8.41743 1.78509 8.00326C0.962588 7.45493 0.962588 6.5566 1.78509 6.00827C2.40925 5.5941 3.30175 5.45409 4.10092 5.59409" stroke="#1E7B1D" stroke-width="0.9" stroke-linecap="round" stroke-linejoin="round"/>
  <path d="M6.99988 8.53393C6.96488 8.52809 6.92405 8.52809 6.88905 8.53393C6.08405 8.50476 5.44238 7.84559 5.44238 7.02893C5.44238 6.19476 6.11322 5.52393 6.94738 5.52393C7.78155 5.52393 8.45238 6.20059 8.45238 7.02893C8.44655 7.84559 7.80488 8.51059 6.99988 8.53393Z" stroke="#1E7B1D" stroke-width="0.9" stroke-linecap="round" stroke-linejoin="round"/>
  <path d="M5.30242 10.3715C4.47992 10.9198 4.47992 11.8181 5.30242 12.3665C6.23576 12.9906 7.76409 12.9906 8.69742 12.3665C9.51992 11.8181 9.51992 10.9198 8.69742 10.3715C7.76992 9.75313 6.23576 9.75313 5.30242 10.3715Z" stroke="#1E7B1D" stroke-width="0.9" stroke-linecap="round" stroke-linejoin="round"/>
</svg>