<svg xmlns="http://www.w3.org/2000/svg" width="120" height="120" viewBox="0 0 120 120" fill="none">
    <path d="M120 91.7754H0V91.8354H120V91.7754Z" fill="#EBEBEB"/>
    <path d="M107.976 95.6367H100.027V95.6967H107.976V95.6367Z" fill="#EBEBEB"/>
    <path d="M79.4928 96.2891H77.4072V96.3491H79.4928V96.2891Z" fill="#EBEBEB"/>
    <path d="M99.7872 93.4102H95.1816V93.4702H99.7872V93.4102Z" fill="#EBEBEB"/>
    <path d="M22.9564 93.8125H12.5908V93.8725H22.9564V93.8125Z" fill="#EBEBEB"/>
    <path d="M26.6139 93.8125H25.0947V93.8725H26.6139V93.8125Z" fill="#EBEBEB"/>
    <path d="M54.0359 94.8262H31.5527V94.8862H54.0359V94.8262Z" fill="#EBEBEB"/>
    <path d="M56.8795 81.0712H10.5379C10.1749 81.0706 9.82694 80.9259 9.57045 80.669C9.31397 80.4121 9.16992 80.0639 9.16992 79.7008V14.5576C9.17308 14.1967 9.31853 13.8515 9.57467 13.5972C9.83081 13.3428 10.177 13.1998 10.5379 13.1992H56.8795C57.243 13.1992 57.5915 13.3436 57.8485 13.6006C58.1055 13.8576 58.2499 14.2062 58.2499 14.5696V79.7008C58.2499 80.0643 58.1055 80.4128 57.8485 80.6698C57.5915 80.9268 57.243 81.0712 56.8795 81.0712ZM10.5379 13.2472C10.1908 13.2479 9.85811 13.3862 9.61288 13.6319C9.36765 13.8776 9.22992 14.2105 9.22992 14.5576V79.7008C9.22992 80.0479 9.36765 80.3809 9.61288 80.6266C9.85811 80.8722 10.1908 81.0106 10.5379 81.0112H56.8795C57.2269 81.0106 57.5598 80.8723 57.8054 80.6267C58.051 80.3811 58.1893 80.0482 58.1899 79.7008V14.5576C58.1893 14.2103 58.051 13.8773 57.8054 13.6317C57.5598 13.3861 57.2269 13.2479 56.8795 13.2472H10.5379Z" fill="#EBEBEB"/>
    <path d="M108.794 81.0712H62.4505C62.0872 81.0706 61.739 80.926 61.4822 80.6691C61.2253 80.4123 61.0807 80.0641 61.0801 79.7008V14.5576C61.0839 14.1964 61.2298 13.8513 61.4864 13.597C61.7429 13.3428 62.0893 13.1998 62.4505 13.1992H108.794C109.155 13.2005 109.501 13.3438 109.756 13.598C110.012 13.8523 110.157 14.1971 110.16 14.5576V79.7008C110.16 80.0634 110.016 80.4113 109.76 80.6681C109.504 80.925 109.157 81.0699 108.794 81.0712ZM62.4505 13.2472C62.1031 13.2479 61.7702 13.3861 61.5246 13.6317C61.279 13.8773 61.1407 14.2103 61.1401 14.5576V79.7008C61.1407 80.0482 61.279 80.3811 61.5246 80.6267C61.7702 80.8723 62.1031 81.0106 62.4505 81.0112H108.794C109.142 81.0106 109.475 80.8723 109.72 80.6267C109.966 80.3811 110.104 80.0482 110.105 79.7008V14.5576C110.104 14.2103 109.966 13.8773 109.72 13.6317C109.475 13.3861 109.142 13.2479 108.794 13.2472H62.4505Z" fill="#EBEBEB"/>
    <path d="M78.6411 48.9162C76.8027 46.3578 73.6923 45.4482 71.6931 46.8834C69.6939 48.3186 69.5643 51.5586 71.4027 54.117C73.2411 56.6754 76.3515 57.5994 78.3507 56.1594C80.3499 54.7194 80.4795 51.477 78.6411 48.9162Z" fill="#EBEBEB"/>
    <path d="M94.9034 37.368L88.5602 28.3008C88.5602 28.3008 85.7858 36.5904 80.8418 40.1424L84.065 44.6256L84.5714 45.3336L87.797 49.824C92.741 46.272 101.477 46.2864 101.477 46.2864L94.9034 37.368Z" fill="#EBEBEB"/>
    <path d="M78.9268 54.6158C78.9268 54.6158 83.35 59.6894 87.1204 61.295C87.2496 61.3445 87.392 61.3477 87.5233 61.3039C87.6547 61.2602 87.7667 61.1722 87.8404 61.055L90.4372 56.9582C90.4868 56.8808 90.5179 56.7931 90.5281 56.7018C90.5382 56.6105 90.5272 56.518 90.4959 56.4317C90.4646 56.3453 90.4137 56.2673 90.3473 56.2038C90.281 56.1403 90.2008 56.0929 90.1132 56.0654C88.5412 55.5854 84.8644 54.2726 82.582 52.1246C79.6372 49.3334 78.9268 54.6158 78.9268 54.6158Z" fill="#EBEBEB"/>
    <path d="M101.453 46.5584C100.32 47.372 96.4511 43.9184 92.8127 38.864C89.1743 33.8096 87.1439 29.024 88.2767 28.22C89.4095 27.416 93.2783 30.86 96.9167 35.9168C100.555 40.9736 102.586 45.7544 101.453 46.5584Z" fill="#F0F0F0"/>
    <path d="M100.778 45.0297C99.9312 45.6393 96.912 42.9248 93.8928 38.8736C93.72 38.6456 93.5472 38.4057 93.3744 38.1656C93.1656 37.8752 92.964 37.5944 92.772 37.3136C89.9568 33.2024 88.3872 29.5544 89.2272 28.952C90.132 28.3016 93.4536 31.3761 96.6432 35.8161C99.8328 40.2561 101.681 44.3793 100.778 45.0297Z" fill="#E6E6E6"/>
    <path d="M77.9738 57.2106C77.9738 57.2106 76.5698 56.4354 73.7378 52.4922C70.673 48.2394 70.5986 46.9434 70.5986 46.9434L81.6386 39.0234C81.6386 39.0234 81.9674 40.6626 84.8426 44.6634C87.7178 48.6642 89.0138 49.293 89.0138 49.293L77.9738 57.2106Z" fill="#E0E0E0"/>
    <path d="M93.8933 38.8796C93.7205 38.6516 93.5477 38.4116 93.3749 38.1716C93.1661 37.8812 92.9645 37.6004 92.7725 37.3196L93.9485 36.7964C94.075 36.746 94.2155 36.7425 94.3444 36.7865C94.4734 36.8305 94.5823 36.9191 94.6517 37.0364L94.7693 37.1996C94.8578 37.3024 94.9065 37.4336 94.9065 37.5692C94.9065 37.7049 94.8578 37.836 94.7693 37.9388L93.8933 38.8796Z" fill="white"/>
    <path d="M93.8933 38.8796C93.7205 38.6516 93.5477 38.4116 93.3749 38.1716C93.1661 37.8812 92.9645 37.6004 92.7725 37.3196L93.9485 36.7964C94.075 36.746 94.2155 36.7425 94.3444 36.7865C94.4734 36.8305 94.5823 36.9191 94.6517 37.0364L94.7693 37.1996C94.8578 37.3024 94.9065 37.4336 94.9065 37.5692C94.9065 37.7049 94.8578 37.836 94.7693 37.9388L93.8933 38.8796Z" fill="#FAFAFA"/>
    <path d="M46.0027 68.2344H50.1523V55.5936H46.0027V68.2344Z" fill="#EBEBEB"/>
    <path d="M38.3133 68.2363H42.4629V51.9643H38.3133V68.2363Z" fill="#EBEBEB"/>
    <path d="M30.6219 68.2344H34.7715V45.6H30.6219L30.6219 68.2344Z" fill="#EBEBEB"/>
    <path d="M22.9324 68.2344H27.082L27.082 38.0304H22.9324L22.9324 68.2344Z" fill="#EBEBEB"/>
    <path d="M41.4557 48.8833C33.1776 43.3079 26.255 35.9474 21.1973 27.3433L23.2805 26.1289C28.1364 34.395 34.7783 41.4715 42.7205 46.8409C48.6845 50.8585 53.2805 52.4497 53.3669 52.4809L52.5989 54.7537C52.4021 54.6865 47.6981 53.0737 41.4557 48.8833Z" fill="#EBEBEB"/>
    <path d="M21.1899 24.6641L25.9947 26.9969L20.5947 29.9753L21.1899 24.6641Z" fill="#EBEBEB"/>
    <path d="M42.1491 29.2375C42.6435 27.1425 41.346 25.0433 39.251 24.5488C37.156 24.0543 35.0568 25.3518 34.5623 27.4469C34.0678 29.5419 35.3653 31.6411 37.4604 32.1356C39.5554 32.63 41.6546 31.3325 42.1491 29.2375Z" fill="#EBEBEB"/>
    <path d="M38.3571 31.3626C40.0245 31.3626 41.3763 30.0109 41.3763 28.3434C41.3763 26.676 40.0245 25.3242 38.3571 25.3242C36.6896 25.3242 35.3379 26.676 35.3379 28.3434C35.3379 30.0109 36.6896 31.3626 38.3571 31.3626Z" fill="#E0E0E0"/>
    <path d="M38.5652 29.6339V30.0371H38.2052V29.6435C37.8848 29.6344 37.5735 29.5346 37.3076 29.3555L37.5044 28.9163C37.7124 29.0597 37.9537 29.1473 38.2052 29.1707V28.5587C37.8044 28.4627 37.358 28.3187 37.358 27.8123C37.358 27.4307 37.634 27.0923 38.2052 27.0371V26.6387H38.5652V27.0323C38.8241 27.0464 39.0759 27.1221 39.2996 27.2531L39.1172 27.6971C38.9481 27.5969 38.7602 27.5323 38.5652 27.5075V28.1219C38.966 28.2155 39.4076 28.3619 39.4076 28.8587C39.4076 29.2403 39.1316 29.5643 38.5652 29.6339ZM38.2052 28.0379V27.5267C38.0132 27.5699 37.9388 27.6755 37.9388 27.7931C37.9388 27.9107 38.0468 27.9875 38.2052 28.0379ZM38.8268 28.9091C38.8268 28.7819 38.7212 28.7147 38.5652 28.6691V29.1659C38.7476 29.1179 38.8268 29.0243 38.8268 28.9091Z" fill="#F0F0F0"/>
    <path d="M14.7427 62.8664C15.819 62.8664 16.6915 61.9938 16.6915 60.9175C16.6915 59.8413 15.819 58.9688 14.7427 58.9688C13.6665 58.9688 12.7939 59.8413 12.7939 60.9175C12.7939 61.9938 13.6665 62.8664 14.7427 62.8664Z" fill="#EBEBEB"/>
    <path d="M16.2526 60.9193C16.2531 61.218 16.1649 61.5101 15.9994 61.7587C15.8338 62.0072 15.5982 62.2011 15.3224 62.3157C15.0466 62.4303 14.743 62.4606 14.45 62.4026C14.157 62.3446 13.8878 62.201 13.6764 61.99C13.465 61.779 13.321 61.51 13.2626 61.2171C13.2041 60.9242 13.2339 60.6205 13.3481 60.3446C13.4623 60.0686 13.6558 59.8327 13.9041 59.6667C14.1524 59.5007 14.4443 59.4121 14.743 59.4121C15.143 59.4121 15.5266 59.5708 15.8096 59.8534C16.0926 60.136 16.252 60.5194 16.2526 60.9193Z" fill="#E0E0E0"/>
    <path d="M14.8466 61.5655V61.7671H14.6666V61.5703C14.5066 61.5645 14.3513 61.5146 14.2178 61.4263L14.3162 61.2055C14.4198 61.2779 14.5406 61.3218 14.6666 61.3327V61.0327C14.4674 60.9847 14.2442 60.9175 14.2442 60.6583C14.2442 60.4687 14.3834 60.3031 14.6666 60.2719V60.0703H14.8466V60.2671C14.9759 60.2749 15.1016 60.3127 15.2138 60.3775L15.1226 60.5983C15.0372 60.5502 14.9436 60.5184 14.8466 60.5047V60.8119C15.0482 60.8599 15.269 60.9247 15.269 61.1791C15.269 61.3687 15.1322 61.5295 14.8466 61.5655ZM14.6666 60.7663V60.5119C14.5706 60.5335 14.5346 60.5839 14.5346 60.6439C14.5346 60.7039 14.5874 60.7423 14.6666 60.7663ZM14.9786 61.2007C14.9786 61.1383 14.9258 61.1047 14.8466 61.0783V61.3183C14.9378 61.3063 14.9786 61.2607 14.9786 61.1983V61.2007Z" fill="#F0F0F0"/>
    <path d="M56.6949 37.3214C57.7712 37.3214 58.6437 36.4489 58.6437 35.3726C58.6437 34.2963 57.7712 33.4238 56.6949 33.4238C55.6186 33.4238 54.7461 34.2963 54.7461 35.3726C54.7461 36.4489 55.6186 37.3214 56.6949 37.3214Z" fill="#EBEBEB"/>
    <path d="M58.2047 35.3729C58.2047 35.6715 58.1162 35.9633 57.9503 36.2116C57.7845 36.4598 57.5487 36.6533 57.2728 36.7676C56.997 36.8818 56.6935 36.9117 56.4006 36.8535C56.1078 36.7952 55.8388 36.6515 55.6277 36.4403C55.4166 36.2292 55.2728 35.9602 55.2146 35.6674C55.1563 35.3746 55.1862 35.071 55.3005 34.7952C55.4147 34.5193 55.6082 34.2836 55.8565 34.1177C56.1047 33.9518 56.3966 33.8633 56.6951 33.8633C57.0955 33.8633 57.4795 34.0223 57.7626 34.3054C58.0457 34.5885 58.2047 34.9725 58.2047 35.3729Z" fill="#E0E0E0"/>
    <path d="M56.8007 36.0186V36.2202H56.6207V36.0234C56.4606 36.018 56.3052 35.9681 56.1719 35.8794L56.2703 35.6586C56.3739 35.7311 56.4947 35.7749 56.6207 35.7858V35.4858C56.4191 35.4378 56.1959 35.3706 56.1959 35.1114C56.1959 34.9218 56.3351 34.7562 56.6207 34.725V34.5234H56.8007V34.7202C56.9292 34.7284 57.054 34.7662 57.1655 34.8306L57.0767 35.0538C56.9917 35.0043 56.898 34.9717 56.8007 34.9578V35.265C56.9999 35.313 57.2207 35.3802 57.2207 35.6346C57.2207 35.8218 57.0839 35.9826 56.8007 36.0186ZM56.6207 35.2194V34.965C56.5247 34.9866 56.4863 35.037 56.4863 35.097C56.4863 35.157 56.5415 35.1954 56.6207 35.2194ZM56.9303 35.6562C56.9303 35.5914 56.8775 35.5578 56.8007 35.5314V35.7714C56.8799 35.7594 56.9303 35.7138 56.9303 35.6562Z" fill="#F0F0F0"/>
    <path d="M34.8724 79.2762C36.0778 78.0708 36.0778 76.1167 34.8724 74.9113C33.6671 73.706 31.7129 73.706 30.5076 74.9113C29.3023 76.1166 29.3023 78.0709 30.5076 79.2762C31.7129 80.4815 33.6671 80.4815 34.8724 79.2762Z" fill="#EBEBEB"/>
    <path d="M35.0513 77.4827C35.2628 76.1795 34.3779 74.9517 33.0747 74.7401C31.7716 74.5286 30.5437 75.4135 30.3322 76.7167C30.1207 78.0198 31.0056 79.2476 32.3087 79.4592C33.6119 79.6707 34.8397 78.7858 35.0513 77.4827Z" fill="#E0E0E0"/>
    <path d="M32.8562 78.1164V78.438H32.5706V78.126C32.3139 78.1193 32.0643 78.0403 31.8506 77.898L32.009 77.5476C32.1727 77.663 32.3639 77.7334 32.5634 77.7516V77.2716C32.2466 77.1948 31.8914 77.0892 31.8914 76.6812C31.8914 76.3788 32.1122 76.1172 32.5634 76.0668V75.75H32.849V76.0596C33.0529 76.0718 33.251 76.1318 33.4274 76.2348L33.2858 76.5876C33.1517 76.5091 33.0031 76.4585 32.849 76.4388V76.9188C33.1658 76.9932 33.5138 77.0988 33.5138 77.502C33.521 77.8068 33.305 78.0636 32.8562 78.1164ZM32.5706 76.854V76.4484C32.4194 76.482 32.3594 76.566 32.3594 76.6596C32.3594 76.7532 32.4434 76.8156 32.5706 76.854ZM33.0506 77.5428C33.0506 77.442 32.9666 77.3892 32.8442 77.346V77.7396C32.9978 77.7084 33.0626 77.634 33.0626 77.5428H33.0506Z" fill="#F0F0F0"/>
    <path d="M94.5604 75.6786V73.953L93.6724 73.8714C93.5544 73.3031 93.3296 72.7624 93.01 72.2778L93.5812 71.589L92.362 70.3698L91.6804 70.941C91.1959 70.6215 90.6551 70.3967 90.0868 70.2786L90.0028 69.3906H88.2796L88.1956 70.2786C87.628 70.3963 87.0879 70.6211 86.6044 70.941L85.9156 70.3698L84.694 71.589L85.2652 72.2778C84.9467 72.7629 84.722 73.3034 84.6028 73.8714L83.7148 73.953V75.6786L84.6028 75.7626C84.7224 76.3297 84.9471 76.8694 85.2652 77.3538L84.694 78.0426L85.9156 79.2618L86.6044 78.693C87.0886 79.0112 87.6284 79.2352 88.1956 79.353L88.2796 80.241H90.0004L90.0844 79.353C90.6523 79.2347 91.1929 79.0109 91.678 78.693L92.3668 79.2618L93.586 78.0426L93.0148 77.3538C93.334 76.8699 93.5587 76.33 93.6772 75.7626L94.5604 75.6786ZM89.134 77.1498C88.6721 77.1498 88.2205 77.0128 87.8364 76.7561C87.4524 76.4994 87.153 76.1346 86.9764 75.7077C86.7997 75.2809 86.7536 74.8112 86.8439 74.3582C86.9342 73.9051 87.1568 73.489 87.4837 73.1625C87.8105 72.8361 88.2268 72.6138 88.6799 72.524C89.1331 72.4342 89.6027 72.4808 90.0294 72.6579C90.456 72.835 90.8206 73.1347 91.0769 73.519C91.3332 73.9033 91.4697 74.3551 91.4692 74.817C91.4692 75.1238 91.4087 75.4275 91.2912 75.7109C91.1737 75.9942 91.0014 76.2516 90.7843 76.4683C90.5672 76.6849 90.3094 76.8567 90.0258 76.9736C89.7423 77.0906 89.4384 77.1505 89.1316 77.1498H89.134Z" fill="#E0E0E0"/>
    <path d="M93.4437 63.0977C92.9988 63.1905 92.5754 63.3664 92.1957 63.6161L91.6557 63.1697L90.6957 64.1297L91.1421 64.6697C90.8924 65.0494 90.7165 65.4728 90.6237 65.9177L89.9277 65.9825V67.3337L90.6237 67.4009C90.7165 67.8451 90.8924 68.2677 91.1421 68.6465L90.6957 69.1865L91.6557 70.1465L92.1957 69.7001C92.5749 69.9509 92.9985 70.1268 93.4437 70.2185L93.5085 70.9145H94.8597L94.9245 70.2185C95.3698 70.1268 95.7934 69.9509 96.1725 69.7001L96.7125 70.1465L97.6725 69.1865L97.2213 68.6393C97.4711 68.2605 97.647 67.8379 97.7397 67.3937L98.4357 67.3265V65.9753L97.7397 65.9105C97.647 65.4656 97.4711 65.0422 97.2213 64.6625L97.6677 64.1225L96.7077 63.1625L96.1677 63.6089C95.7881 63.3592 95.3646 63.1833 94.9197 63.0905L94.8549 62.3945H93.5037L93.4437 63.0977ZM96.0141 66.6545C96.0146 67.0169 95.9076 67.3713 95.7065 67.6728C95.5055 67.9743 95.2195 68.2094 94.8848 68.3483C94.5501 68.4872 94.1817 68.5236 93.8263 68.4531C93.4708 68.3825 93.1443 68.208 92.8881 67.9518C92.6318 67.6955 92.4574 67.369 92.3868 67.0136C92.3162 66.6581 92.3527 66.2898 92.4916 65.955C92.6305 65.6203 92.8656 65.3344 93.1671 65.1333C93.4686 64.9323 93.823 64.8253 94.1853 64.8257C94.6704 64.8257 95.1355 65.0184 95.4785 65.3614C95.8215 65.7043 96.0141 66.1695 96.0141 66.6545Z" fill="#E0E0E0"/>
    <path d="M96.4583 70.4112L95.9999 70.0344L95.1959 70.8384L95.5727 71.292C95.3628 71.6103 95.2146 71.9653 95.1359 72.3384L94.5527 72.3936V73.5288L95.1359 73.584C95.2141 73.9581 95.3623 74.3139 95.5727 74.6328L95.1959 75.0864L95.9999 75.888L96.4535 75.5136C96.772 75.7229 97.1269 75.8702 97.4999 75.948L97.5551 76.5336H98.6903L98.7455 75.948C99.1194 75.8707 99.4753 75.7233 99.7943 75.5136L100.248 75.888L101.05 75.0864L100.68 74.64C100.89 74.321 101.037 73.9651 101.114 73.5912L101.7 73.536V72.4008L101.114 72.3456C101.037 71.9727 100.889 71.6177 100.68 71.2992L101.054 70.8456L100.253 70.0416L99.7991 70.4184C99.4802 70.208 99.1244 70.0598 98.7503 69.9816L98.6951 69.3984H97.5599L97.5047 69.9816C97.1321 70.0581 96.7772 70.2038 96.4583 70.4112ZM99.6647 72.96C99.6647 73.2638 99.5746 73.5608 99.4059 73.8134C99.2371 74.066 98.9972 74.2629 98.7165 74.3791C98.4359 74.4954 98.127 74.5258 97.8291 74.4665C97.5311 74.4073 97.2574 74.261 97.0426 74.0462C96.8278 73.8313 96.6815 73.5576 96.6223 73.2597C96.563 72.9617 96.5934 72.6529 96.7097 72.3722C96.8259 72.0916 97.0228 71.8517 97.2754 71.6829C97.528 71.5141 97.8249 71.424 98.1287 71.424C98.5359 71.4247 98.9262 71.5867 99.2141 71.8746C99.5021 72.1625 99.6641 72.5529 99.6647 72.96Z" fill="#E0E0E0"/>
    <path d="M72.7201 21.8941L72.2665 21.5173L71.4601 22.3189L71.8345 22.7701C71.6252 23.0894 71.4778 23.4452 71.4001 23.8189L70.8145 23.8741V25.0093L71.4001 25.0645C71.4778 25.4382 71.6252 25.794 71.8345 26.1133L71.4601 26.5669L72.2617 27.3685L72.7153 26.9941C73.0348 27.2028 73.3905 27.3501 73.7641 27.4285L73.8193 28.0141H74.9545L75.0097 27.4285C75.3825 27.3501 75.7373 27.2028 76.0561 26.9941L76.5097 27.3685L77.3137 26.5669L76.9369 26.1133C77.1468 25.7941 77.295 25.4384 77.3737 25.0645L77.9569 25.0093V23.8765L77.3737 23.8213C77.295 23.4474 77.1468 23.0917 76.9369 22.7725L77.3137 22.3189L76.5097 21.5149L76.0561 21.8917C75.738 21.6813 75.3829 21.5331 75.0097 21.4549L74.9545 20.8789H73.8193L73.7641 21.4621C73.392 21.5393 73.0379 21.6859 72.7201 21.8941ZM75.9265 24.4453C75.926 24.749 75.8355 25.0457 75.6664 25.298C75.4974 25.5503 75.2573 25.7468 74.9766 25.8627C74.6959 25.9786 74.3871 26.0086 74.0893 25.9491C73.7915 25.8896 73.5181 25.7431 73.3035 25.5282C73.0889 25.3133 72.9429 25.0396 72.8838 24.7417C72.8247 24.4438 72.8553 24.1351 72.9716 23.8546C73.0879 23.574 73.2848 23.3343 73.5373 23.1656C73.7899 22.9969 74.0868 22.9069 74.3905 22.9069C74.7974 22.9082 75.1872 23.0709 75.4743 23.3593C75.7614 23.6478 75.9223 24.0383 75.9217 24.4453H75.9265Z" fill="#E0E0E0"/>
    <path d="M99.3095 26.3992L99.0695 26.1952L98.6399 26.6392L98.8439 26.8792C98.7286 27.0519 98.6471 27.2449 98.6039 27.448L98.2871 27.4768V28.0936L98.6039 28.1224C98.6466 28.3264 98.7281 28.5203 98.8439 28.6936L98.6399 28.9336L99.0767 29.3704L99.3167 29.1664C99.4894 29.2818 99.6824 29.3632 99.8855 29.4064L99.9167 29.7232H100.534L100.562 29.4064C100.765 29.3632 100.958 29.2818 101.131 29.1664L101.371 29.3704L101.806 28.9336L101.602 28.6936C101.717 28.5203 101.799 28.3264 101.842 28.1224L102.158 28.0936V27.4768L101.842 27.448C101.798 27.2449 101.717 27.0519 101.602 26.8792L101.806 26.6392L101.371 26.2024L101.131 26.4064C100.958 26.292 100.765 26.2106 100.562 26.1664L100.534 25.8496H99.9167L99.8855 26.1664C99.6807 26.2075 99.4854 26.2865 99.3095 26.3992ZM101.052 27.7864C101.052 27.9516 101.003 28.1131 100.911 28.2504C100.819 28.3878 100.689 28.4948 100.536 28.558C100.384 28.6212 100.216 28.6378 100.054 28.6056C99.8918 28.5733 99.7429 28.4938 99.6261 28.377C99.5093 28.2602 99.4298 28.1114 99.3976 27.9493C99.3653 27.7873 99.3819 27.6194 99.4451 27.4668C99.5083 27.3142 99.6154 27.1837 99.7527 27.092C99.89 27.0002 100.052 26.9512 100.217 26.9512C100.326 26.9509 100.435 26.9722 100.536 27.0139C100.637 27.0556 100.73 27.1169 100.807 27.1943C100.885 27.2716 100.946 27.3636 100.988 27.4648C101.03 27.566 101.052 27.6744 101.052 27.784V27.7864Z" fill="#E0E0E0"/>
    <path d="M64.4905 59.817L64.2505 59.613L63.8137 60.0498L64.0177 60.2898C63.903 60.4637 63.8216 60.6574 63.7777 60.861L63.4609 60.8898V61.5066L63.7777 61.5354C63.8216 61.739 63.903 61.9327 64.0177 62.1066L63.8137 62.3466L64.2505 62.7834L64.4905 62.5794C64.6638 62.6953 64.8577 62.7768 65.0617 62.8194L65.0905 63.1386H65.7073L65.7361 62.8194C65.9393 62.7763 66.1323 62.6949 66.3049 62.5794L66.5449 62.7834L66.9817 62.3466L66.7777 62.1066C66.8918 61.9324 66.9732 61.7388 67.0177 61.5354L67.3345 61.5066V60.8898L67.0177 60.861C66.9732 60.6576 66.8918 60.464 66.7777 60.2898L66.9817 60.0498L66.5449 59.613L66.3049 59.817C66.1323 59.7016 65.9393 59.6201 65.7361 59.577L65.7073 59.2578H65.0905L65.0617 59.577C64.8577 59.6196 64.6638 59.7011 64.4905 59.817ZM66.2401 61.1994C66.2406 61.3647 66.192 61.5264 66.1005 61.6641C66.0091 61.8017 65.8788 61.9092 65.7262 61.9727C65.5736 62.0363 65.4056 62.0532 65.2435 62.0213C65.0813 61.9893 64.9323 61.9099 64.8152 61.7932C64.6982 61.6765 64.6184 61.5277 64.586 61.3656C64.5535 61.2036 64.5699 61.0355 64.6331 60.8828C64.6962 60.73 64.8033 60.5994 64.9407 60.5075C65.0781 60.4157 65.2396 60.3666 65.4049 60.3666C65.626 60.3666 65.8381 60.4543 65.9947 60.6104C66.1512 60.7665 66.2395 60.9783 66.2401 61.1994Z" fill="#E0E0E0"/>
    <path d="M60.0004 102.615C85.7002 102.615 106.534 101.399 106.534 99.8984C106.534 98.398 85.7002 97.1816 60.0004 97.1816C34.3006 97.1816 13.4668 98.398 13.4668 99.8984C13.4668 101.399 34.3006 102.615 60.0004 102.615Z" fill="#F5F5F5"/>
    <path d="M97.1355 92.6656H96.8955C96.8955 92.3416 97.1643 84.7336 98.4891 83.4448C99.8571 82.1152 101.463 83.4256 101.48 83.4448L101.326 83.6296C101.266 83.5792 99.8691 82.444 98.6571 83.6296C97.3995 84.832 97.1379 92.5888 97.1355 92.6656Z" fill="#1E7B1D"/>
    <path d="M97.0253 94.195L96.7853 94.171C96.7853 94.0798 97.6397 84.943 94.3301 81.1462L94.5125 80.9902C97.8917 84.8638 97.0637 93.8158 97.0253 94.195Z" fill="#1E7B1D"/>
    <path d="M97.1092 93.2181C97.0804 92.7861 96.442 82.6221 98.9908 80.2773L99.154 80.4525C96.6892 82.7205 97.342 93.0957 97.3492 93.2013L97.1092 93.2181Z" fill="#1E7B1D"/>
    <path d="M96.7869 93.2111C96.7869 93.1415 96.7077 86.3207 94.9029 85.2911C94.7507 85.19 94.5762 85.1272 94.3945 85.1079C94.2127 85.0887 94.029 85.1137 93.8589 85.1807C92.8029 85.6175 92.2389 87.6383 92.2341 87.6599L91.9941 87.5951C92.0181 87.5087 92.5941 85.4351 93.7605 84.9551C93.9644 84.8739 94.1846 84.8426 94.403 84.8639C94.6214 84.8852 94.8315 84.9584 95.0157 85.0775C96.9357 86.1791 97.0173 92.9207 97.0197 93.2063L96.7869 93.2111Z" fill="#1E7B1D"/>
    <path d="M97.531 93.2153C97.519 92.9969 97.2382 87.8177 98.707 85.8977C99.1006 85.3865 99.5374 85.1393 100.01 85.1777C101.059 85.2521 101.87 86.6705 101.904 86.7305L101.695 86.8481C101.695 86.8337 100.913 85.4825 99.9934 85.4081C99.6046 85.3841 99.2374 85.5929 98.899 86.0369C97.483 87.8849 97.7662 93.1409 97.771 93.1937L97.531 93.2153Z" fill="#1E7B1D"/>
    <path d="M97.2629 93.9335L97.0229 93.9143C97.0229 93.7895 97.9469 81.4631 96.4277 79.4111L96.6197 79.2695C98.1917 81.3935 97.3013 93.4223 97.2629 93.9335Z" fill="#1E7B1D"/>
    <path d="M93.3602 86.1962C93.3602 86.1962 94.2986 86.5418 94.0202 87.3602C93.7418 88.1786 90.7682 89.5202 90.7682 89.5202C90.7682 89.5202 89.525 88.3802 90.6674 86.525C91.8098 84.6698 93.3242 85.6106 93.3602 86.1962Z" fill="#1E7B1D"/>
    <path opacity="0.5" d="M93.3602 86.1962C93.3602 86.1962 94.2986 86.5418 94.0202 87.3602C93.7418 88.1786 90.7682 89.5202 90.7682 89.5202C90.7682 89.5202 89.525 88.3802 90.6674 86.525C91.8098 84.6698 93.3242 85.6106 93.3602 86.1962Z" fill="white"/>
    <path d="M97.4404 84.6374C97.4404 84.6374 96.4396 84.5966 96.382 85.4582C96.3244 86.3198 98.542 88.7054 98.542 88.7054C98.542 88.7054 100.131 88.1318 99.7876 85.9814C99.4444 83.831 97.6804 84.107 97.4404 84.6374Z" fill="#1E7B1D"/>
    <path opacity="0.5" d="M97.4404 84.6374C97.4404 84.6374 96.4396 84.5966 96.382 85.4582C96.3244 86.3198 98.542 88.7054 98.542 88.7054C98.542 88.7054 100.131 88.1318 99.7876 85.9814C99.4444 83.831 97.6804 84.107 97.4404 84.6374Z" fill="white"/>
    <path d="M98.28 80.5099C98.28 80.5099 97.6152 80.4379 97.668 80.0299C97.7208 79.6219 100.26 78.5779 101.76 80.2699C101.76 80.2699 100.8 81.9163 99.4128 81.9379C98.0256 81.9595 98.28 80.5099 98.28 80.5099Z" fill="#1E7B1D"/>
    <path opacity="0.5" d="M98.28 80.5099C98.28 80.5099 97.6152 80.4379 97.668 80.0299C97.7208 79.6219 100.26 78.5779 101.76 80.2699C101.76 80.2699 100.8 81.9163 99.4128 81.9379C98.0256 81.9595 98.28 80.5099 98.28 80.5099Z" fill="white"/>
    <path d="M97.0396 79.5234C97.0396 79.5234 97.642 79.8162 97.8124 79.4418C97.9828 79.0674 96.3724 76.8378 94.2124 77.481C94.2124 77.481 94.1548 79.3866 95.3212 80.1402C96.4876 80.8938 97.0396 79.5234 97.0396 79.5234Z" fill="#1E7B1D"/>
    <path opacity="0.5" d="M97.0396 79.5234C97.0396 79.5234 97.642 79.8162 97.8124 79.4418C97.9828 79.0674 96.3724 76.8378 94.2124 77.481C94.2124 77.481 94.1548 79.3866 95.3212 80.1402C96.4876 80.8938 97.0396 79.5234 97.0396 79.5234Z" fill="white"/>
    <path d="M100.198 85.8667C100.198 85.8667 99.7369 85.4947 100.234 85.3123C100.73 85.1299 103.166 85.1827 103.193 87.5971C103.193 87.5971 100.354 88.0771 100.003 87.1507C99.6529 86.2243 100.198 85.8667 100.198 85.8667Z" fill="#1E7B1D"/>
    <path opacity="0.5" d="M100.198 85.8667C100.198 85.8667 99.7369 85.4947 100.234 85.3123C100.73 85.1299 103.166 85.1827 103.193 87.5971C103.193 87.5971 100.354 88.0771 100.003 87.1507C99.6529 86.2243 100.198 85.8667 100.198 85.8667Z" fill="white"/>
    <path d="M94.4063 80.4495C94.4063 80.4495 94.8671 80.0775 94.3703 79.8975C93.8735 79.7175 91.4351 79.7655 91.4111 82.1823C91.4111 82.1823 94.2503 82.6623 94.6007 81.7335C94.9511 80.8047 94.4063 80.4495 94.4063 80.4495Z" fill="#1E7B1D"/>
    <path opacity="0.5" d="M94.4063 80.4495C94.4063 80.4495 94.8671 80.0775 94.3703 79.8975C93.8735 79.7175 91.4351 79.7655 91.4111 82.1823C91.4111 82.1823 94.2503 82.6623 94.6007 81.7335C94.9511 80.8047 94.4063 80.4495 94.4063 80.4495Z" fill="white"/>
    <path d="M95.9086 82.3954C95.9086 82.3954 95.947 81.9418 95.5822 82.1194C95.2174 82.297 93.9478 83.6674 95.2654 84.9682C95.2654 84.9682 97.039 83.6554 96.7174 82.9714C96.3958 82.2874 95.9086 82.3954 95.9086 82.3954Z" fill="#1E7B1D"/>
    <path opacity="0.5" d="M95.9086 82.3954C95.9086 82.3954 95.947 81.9418 95.5822 82.1194C95.2174 82.297 93.9478 83.6674 95.2654 84.9682C95.2654 84.9682 97.039 83.6554 96.7174 82.9714C96.3958 82.2874 95.9086 82.3954 95.9086 82.3954Z" fill="white"/>
    <path d="M100.608 83.0394C100.608 83.0394 100.332 82.6794 100.735 82.6338C101.138 82.5882 102.945 83.0706 102.525 84.8754C102.525 84.8754 100.325 84.7098 100.229 83.961C100.133 83.2122 100.608 83.0394 100.608 83.0394Z" fill="#1E7B1D"/>
    <path opacity="0.5" d="M100.608 83.0394C100.608 83.0394 100.332 82.6794 100.735 82.6338C101.138 82.5882 102.945 83.0706 102.525 84.8754C102.525 84.8754 100.325 84.7098 100.229 83.961C100.133 83.2122 100.608 83.0394 100.608 83.0394Z" fill="white"/>
    <path d="M93.173 99.9023H100.723L101.539 91.6367H92.3594L93.173 99.9023Z" fill="#263238"/>
    <path opacity="0.2" d="M93.173 99.9023H100.723L101.539 91.6367H92.3594L93.173 99.9023Z" fill="white"/>
    <path d="M91.956 92.5488H101.942V90.7248H91.956V92.5488Z" fill="#263238"/>
    <path opacity="0.4" d="M91.956 92.5488H101.942V90.7248H91.956V92.5488Z" fill="white"/>
    <path d="M25.0653 82.079C25.0149 82.4318 25.9701 82.6622 26.7453 82.799C26.6829 83.4398 26.2653 84.0854 25.6677 84.6902C24.9285 84.2726 23.8701 83.7302 23.6757 83.8574C23.4813 83.9846 24.5445 84.7046 25.2213 85.115C24.7379 85.5377 24.2255 85.9258 23.6877 86.2766C23.3565 85.967 22.9677 85.6958 22.7277 85.8422C22.4877 85.9886 22.5525 86.4734 22.6701 86.903C21.8661 87.383 21.2613 87.659 21.2613 87.659C21.0269 86.9106 20.8473 86.1462 20.7237 85.3718C20.7645 85.2902 20.8053 85.2086 20.8413 85.1318C20.9709 84.8318 20.8413 84.7022 20.6301 84.6518C20.5725 84.1037 20.5725 83.5511 20.6301 83.003C21.5421 82.8134 22.6509 82.4582 22.2357 81.911C21.9957 81.5822 21.5157 81.5438 21.0357 81.6278C21.1012 81.5187 21.1768 81.4158 21.2613 81.3206C22.9221 79.4918 24.0789 81.3206 24.0789 81.3206C25.0389 80.5166 26.3973 80.735 26.6901 81.9902C26.1597 81.839 25.1277 81.6374 25.0653 82.079Z" fill="#1E7B1D"/>
    <path opacity="0.3" d="M25.0653 82.079C25.0149 82.4318 25.9701 82.6622 26.7453 82.799C26.6829 83.4398 26.2653 84.0854 25.6677 84.6902C24.9285 84.2726 23.8701 83.7302 23.6757 83.8574C23.4813 83.9846 24.5445 84.7046 25.2213 85.115C24.7379 85.5377 24.2255 85.9258 23.6877 86.2766C23.3565 85.967 22.9677 85.6958 22.7277 85.8422C22.4877 85.9886 22.5525 86.4734 22.6701 86.903C21.8661 87.383 21.2613 87.659 21.2613 87.659C21.0269 86.9106 20.8473 86.1462 20.7237 85.3718C20.7645 85.2902 20.8053 85.2086 20.8413 85.1318C20.9709 84.8318 20.8413 84.7022 20.6301 84.6518C20.5725 84.1037 20.5725 83.5511 20.6301 83.003C21.5421 82.8134 22.6509 82.4582 22.2357 81.911C21.9957 81.5822 21.5157 81.5438 21.0357 81.6278C21.1012 81.5187 21.1768 81.4158 21.2613 81.3206C22.9221 79.4918 24.0789 81.3206 24.0789 81.3206C25.0389 80.5166 26.3973 80.735 26.6901 81.9902C26.1597 81.839 25.1277 81.6374 25.0653 82.079Z" fill="white"/>
    <path d="M22.9944 95.5186L23.2344 95.4994C23.2344 95.377 22.2504 83.1346 24.9984 81.9802C25.1292 81.9186 25.2726 81.8882 25.4171 81.8915C25.5617 81.8948 25.7034 81.9318 25.8312 81.9994C26.8248 82.5178 27.3 84.661 27.3048 84.6826L27.5448 84.6298C27.5232 84.5386 27.0408 82.357 25.9464 81.7882C25.7874 81.7041 25.6112 81.6578 25.4314 81.6528C25.2516 81.6478 25.0731 81.6843 24.9096 81.7594C21.9984 82.969 22.9536 94.9978 22.9944 95.5186Z" fill="#1E7B1D"/>
    <path d="M22.6491 95.246C22.6971 94.694 23.8179 81.7412 21.7227 80.366C21.2187 80.0372 20.7627 79.9652 20.3907 80.1596C19.3995 80.6588 19.2699 82.778 19.2627 82.8668L19.5027 82.8812C19.5027 82.8596 19.6299 80.81 20.4987 80.3732C20.7963 80.222 21.1635 80.2868 21.5907 80.5676C23.5683 81.8636 22.4211 95.09 22.4091 95.2244L22.6491 95.246Z" fill="#1E7B1D"/>
    <path d="M22.3315 96.2925C22.3483 95.8701 22.6939 85.9557 20.7835 85.0869C20.6058 85.0039 20.412 84.9609 20.2159 84.9609C20.0197 84.9609 19.826 85.0039 19.6483 85.0869C18.3379 85.6629 17.5291 88.1037 17.4883 88.2069L17.7163 88.2813C17.7163 88.2573 18.5251 85.8381 19.7371 85.3053C19.884 85.2354 20.0447 85.1991 20.2075 85.1991C20.3702 85.1991 20.5309 85.2354 20.6779 85.3053C22.1419 85.9725 22.1899 93.4653 22.0843 96.2829L22.3315 96.2925Z" fill="#1E7B1D"/>
    <path d="M22.819 95.8385L23.059 95.8121C22.723 92.8601 22.0798 84.9977 23.131 84.0521C23.1818 83.9902 23.2495 83.9446 23.3258 83.9207C23.4021 83.8968 23.4837 83.8958 23.5606 83.9177C24.2638 84.1889 24.6934 86.7473 24.799 87.7097L25.039 87.6833C24.9982 87.3137 24.6142 84.0665 23.647 83.6945C23.5291 83.6556 23.4025 83.6517 23.2824 83.6832C23.1623 83.7147 23.0539 83.7803 22.9702 83.8721C21.5998 85.0913 22.7686 95.4017 22.819 95.8385Z" fill="#1E7B1D"/>
    <path d="M26.8244 90.2441H18.2012L18.9212 99.9017H26.1044L26.8244 90.2441Z" fill="#1E7B1D"/>
    <path opacity="0.2" d="M24.2036 90.2441L23.9636 99.9017H18.9212L18.2012 90.2441H24.2036Z" fill="white"/>
    <path d="M25.649 86.7004C25.7402 86.9404 26.4098 86.7508 26.9354 86.5636C27.1154 86.9812 27.0746 87.5236 26.9186 88.102C26.3186 88.102 25.4786 88.1188 25.4042 88.27C25.3298 88.4212 26.2298 88.4932 26.789 88.51C26.6361 88.9368 26.4532 89.3522 26.2418 89.7532C25.9298 89.6764 25.5986 89.6404 25.505 89.8108C25.4114 89.9812 25.6154 90.262 25.8338 90.4852C25.4978 91.0492 25.2242 91.4332 25.2242 91.4332C24.8232 91.0517 24.4503 90.6418 24.1082 90.2068C24.1082 90.1444 24.1082 90.0796 24.1082 90.0148C24.0866 89.7748 23.9642 89.7484 23.8178 89.7964C23.5892 89.4852 23.3929 89.1515 23.2322 88.8004C23.729 88.3684 24.2906 87.7708 23.8466 87.5764C23.5802 87.4588 23.285 87.5932 23.0186 87.8164C23.0224 87.7268 23.0336 87.6377 23.0522 87.55C23.4482 85.8532 24.7898 86.59 24.7898 86.59C25.109 85.762 26.0186 85.4332 26.6306 86.11C26.249 86.182 25.5386 86.4004 25.649 86.7004Z" fill="#1E7B1D"/>
    <path opacity="0.3" d="M25.649 86.7004C25.7402 86.9404 26.4098 86.7508 26.9354 86.5636C27.1154 86.9812 27.0746 87.5236 26.9186 88.102C26.3186 88.102 25.4786 88.1188 25.4042 88.27C25.3298 88.4212 26.2298 88.4932 26.789 88.51C26.6361 88.9368 26.4532 89.3522 26.2418 89.7532C25.9298 89.6764 25.5986 89.6404 25.505 89.8108C25.4114 89.9812 25.6154 90.262 25.8338 90.4852C25.4978 91.0492 25.2242 91.4332 25.2242 91.4332C24.8232 91.0517 24.4503 90.6418 24.1082 90.2068C24.1082 90.1444 24.1082 90.0796 24.1082 90.0148C24.0866 89.7748 23.9642 89.7484 23.8178 89.7964C23.5892 89.4852 23.3929 89.1515 23.2322 88.8004C23.729 88.3684 24.2906 87.7708 23.8466 87.5764C23.5802 87.4588 23.285 87.5932 23.0186 87.8164C23.0224 87.7268 23.0336 87.6377 23.0522 87.55C23.4482 85.8532 24.7898 86.59 24.7898 86.59C25.109 85.762 26.0186 85.4332 26.6306 86.11C26.249 86.182 25.5386 86.4004 25.649 86.7004Z" fill="white"/>
    <path d="M19.2479 87.8397C19.5161 87.862 19.7806 87.9176 20.0351 88.0053C20.1046 87.8234 20.1435 87.6312 20.1503 87.4365C20.2055 85.6965 18.9503 86.4285 18.3023 85.9197C18.1538 85.7878 17.9791 85.6888 17.7897 85.6292C17.6002 85.5696 17.4003 85.5509 17.2031 85.5741C17.2589 85.6701 17.3086 85.7695 17.3519 85.8717C17.3672 85.9099 17.3736 85.951 17.3709 85.992C17.3681 86.033 17.3561 86.0729 17.3358 86.1086C17.3155 86.1443 17.2875 86.175 17.2537 86.1984C17.2199 86.2218 17.1813 86.2373 17.1407 86.2437C16.9786 86.2752 16.8107 86.2551 16.6607 86.1861C16.6155 86.1607 16.5729 86.131 16.5335 86.0973C16.4282 86.2803 16.3475 86.4764 16.2935 86.6805C16.2269 86.9233 16.1891 87.173 16.1807 87.4245C16.279 87.4458 16.376 87.4731 16.4711 87.5061C16.5091 87.5221 16.5429 87.5467 16.57 87.5778C16.597 87.609 16.6165 87.646 16.6269 87.6859C16.6374 87.7258 16.6385 87.7676 16.6302 87.808C16.6219 87.8484 16.6044 87.8864 16.5791 87.9189C16.4759 88.0237 16.3548 88.1091 16.2215 88.1709C16.2658 88.4498 16.339 88.7232 16.4399 88.9869L16.5287 88.9989C16.5919 89.0115 16.6544 89.0276 16.7159 89.0469C16.7519 89.0564 16.7872 89.0684 16.8215 89.0829C16.864 89.1016 16.9011 89.1308 16.9292 89.1677C16.9573 89.2047 16.9756 89.2482 16.9823 89.2941C16.9896 89.3413 16.9841 89.3896 16.9664 89.4339C16.9486 89.4783 16.9193 89.517 16.8815 89.5461C16.8402 89.5757 16.7969 89.6021 16.7519 89.6253C16.9175 89.913 17.1548 90.1528 17.4407 90.3213C17.6878 90.2055 17.9282 90.0757 18.1607 89.9325C18.1079 89.8629 18.0575 89.7933 18.0095 89.7213C17.9521 89.6432 17.9256 89.5466 17.9351 89.4501C17.9491 89.3547 18 89.2686 18.0767 89.2101C18.1548 89.1515 18.2527 89.1257 18.3495 89.1383C18.4464 89.1509 18.5345 89.2007 18.5951 89.2773C18.6527 89.3637 18.7151 89.4453 18.7775 89.5173C19.1157 89.2777 19.4193 88.9926 19.6799 88.6701H19.6535C19.4964 88.628 19.3357 88.6007 19.1735 88.5885C19.0761 88.5758 18.9877 88.5249 18.9279 88.4471C18.868 88.3692 18.8415 88.2707 18.8543 88.1733C18.867 88.076 18.9179 87.9876 18.9958 87.9277C19.0736 87.8679 19.1721 87.8414 19.2695 87.8541L19.2479 87.8397Z" fill="#1E7B1D"/>
    <path opacity="0.5" d="M19.2479 87.8397C19.5161 87.862 19.7806 87.9176 20.0351 88.0053C20.1046 87.8234 20.1435 87.6312 20.1503 87.4365C20.2055 85.6965 18.9503 86.4285 18.3023 85.9197C18.1538 85.7878 17.9791 85.6888 17.7897 85.6292C17.6002 85.5696 17.4003 85.5509 17.2031 85.5741C17.2589 85.6701 17.3086 85.7695 17.3519 85.8717C17.3672 85.9099 17.3736 85.951 17.3709 85.992C17.3681 86.033 17.3561 86.0729 17.3358 86.1086C17.3155 86.1443 17.2875 86.175 17.2537 86.1984C17.2199 86.2218 17.1813 86.2373 17.1407 86.2437C16.9786 86.2752 16.8107 86.2551 16.6607 86.1861C16.6155 86.1607 16.5729 86.131 16.5335 86.0973C16.4282 86.2803 16.3475 86.4764 16.2935 86.6805C16.2269 86.9233 16.1891 87.173 16.1807 87.4245C16.279 87.4458 16.376 87.4731 16.4711 87.5061C16.5091 87.5221 16.5429 87.5467 16.57 87.5778C16.597 87.609 16.6165 87.646 16.6269 87.6859C16.6374 87.7258 16.6385 87.7676 16.6302 87.808C16.6219 87.8484 16.6044 87.8864 16.5791 87.9189C16.4759 88.0237 16.3548 88.1091 16.2215 88.1709C16.2658 88.4498 16.339 88.7232 16.4399 88.9869L16.5287 88.9989C16.5919 89.0115 16.6544 89.0276 16.7159 89.0469C16.7519 89.0564 16.7872 89.0684 16.8215 89.0829C16.864 89.1016 16.9011 89.1308 16.9292 89.1677C16.9573 89.2047 16.9756 89.2482 16.9823 89.2941C16.9896 89.3413 16.9841 89.3896 16.9664 89.4339C16.9486 89.4783 16.9193 89.517 16.8815 89.5461C16.8402 89.5757 16.7969 89.6021 16.7519 89.6253C16.9175 89.913 17.1548 90.1528 17.4407 90.3213C17.6878 90.2055 17.9282 90.0757 18.1607 89.9325C18.1079 89.8629 18.0575 89.7933 18.0095 89.7213C17.9521 89.6432 17.9256 89.5466 17.9351 89.4501C17.9491 89.3547 18 89.2686 18.0767 89.2101C18.1548 89.1515 18.2527 89.1257 18.3495 89.1383C18.4464 89.1509 18.5345 89.2007 18.5951 89.2773C18.6527 89.3637 18.7151 89.4453 18.7775 89.5173C19.1157 89.2777 19.4193 88.9926 19.6799 88.6701H19.6535C19.4964 88.628 19.3357 88.6007 19.1735 88.5885C19.0761 88.5758 18.9877 88.5249 18.9279 88.4471C18.868 88.3692 18.8415 88.2707 18.8543 88.1733C18.867 88.076 18.9179 87.9876 18.9958 87.9277C19.0736 87.8679 19.1721 87.8414 19.2695 87.8541L19.2479 87.8397Z" fill="white"/>
    <path d="M18.7486 81.8523C18.5994 81.7473 18.4383 81.6603 18.2686 81.5931C18.3131 81.4671 18.3771 81.3488 18.4582 81.2427C19.1926 80.3043 19.5262 81.2427 20.095 81.2571C20.2295 81.2542 20.3631 81.2797 20.4872 81.3318C20.6112 81.3839 20.7229 81.4615 20.815 81.5595C20.7436 81.5854 20.6738 81.6159 20.6062 81.6507C20.5814 81.664 20.5599 81.6827 20.5434 81.7054C20.5268 81.7281 20.5155 81.7543 20.5105 81.782C20.5054 81.8097 20.5066 81.8381 20.5141 81.8653C20.5215 81.8924 20.535 81.9175 20.5534 81.9387C20.6268 82.0272 20.7257 82.0909 20.8366 82.1211C20.8709 82.1247 20.9055 82.1247 20.9398 82.1211C20.9154 82.2631 20.8718 82.4012 20.8102 82.5315C20.7383 82.6875 20.6489 82.8348 20.5438 82.9707C20.4822 82.9393 20.4189 82.9112 20.3542 82.8867C20.327 82.8782 20.2982 82.8761 20.2701 82.8805C20.2419 82.885 20.2152 82.8959 20.192 82.9124C20.1687 82.9289 20.1496 82.9505 20.1361 82.9756C20.1226 83.0007 20.1151 83.0286 20.1142 83.0571C20.1216 83.1578 20.1476 83.2563 20.191 83.3475C20.0424 83.4735 19.8816 83.5844 19.711 83.6787L19.6582 83.6475C19.6198 83.6259 19.579 83.6067 19.5406 83.5899C19.5179 83.578 19.4937 83.5691 19.4686 83.5635C19.4375 83.5528 19.4041 83.5507 19.3718 83.5573C19.3395 83.5639 19.3096 83.579 19.2852 83.601C19.2607 83.623 19.2426 83.6512 19.2326 83.6826C19.2227 83.7139 19.2213 83.7474 19.2286 83.7795C19.2373 83.8131 19.2485 83.846 19.2622 83.8779C19.0489 83.9557 18.8191 83.9772 18.595 83.9403C18.5134 83.7695 18.4421 83.594 18.3814 83.4147L18.5542 83.3715C18.6184 83.3615 18.6771 83.3293 18.7198 83.2803C18.7547 83.2228 18.7666 83.1543 18.7534 83.0883C18.7385 83.0229 18.6984 82.966 18.6418 82.9301C18.5851 82.8941 18.5166 82.882 18.451 82.8963C18.3838 82.9155 18.3142 82.9323 18.2446 82.9467C18.1771 82.6729 18.148 82.391 18.1582 82.1091H18.175C18.2779 82.1573 18.3759 82.2152 18.4678 82.2819C18.5252 82.3165 18.5937 82.3276 18.659 82.3128C18.7243 82.2981 18.7814 82.2586 18.8182 82.2027C18.8544 82.1467 18.8673 82.0788 18.8543 82.0134C18.8414 81.948 18.8034 81.8902 18.7486 81.8523Z" fill="#1E7B1D"/>
    <path opacity="0.3" d="M18.7486 81.8523C18.5994 81.7473 18.4383 81.6603 18.2686 81.5931C18.3131 81.4671 18.3771 81.3488 18.4582 81.2427C19.1926 80.3043 19.5262 81.2427 20.095 81.2571C20.2295 81.2542 20.3631 81.2797 20.4872 81.3318C20.6112 81.3839 20.7229 81.4615 20.815 81.5595C20.7436 81.5854 20.6738 81.6159 20.6062 81.6507C20.5814 81.664 20.5599 81.6827 20.5434 81.7054C20.5268 81.7281 20.5155 81.7543 20.5105 81.782C20.5054 81.8097 20.5066 81.8381 20.5141 81.8653C20.5215 81.8924 20.535 81.9175 20.5534 81.9387C20.6268 82.0272 20.7257 82.0909 20.8366 82.1211C20.8709 82.1247 20.9055 82.1247 20.9398 82.1211C20.9154 82.2631 20.8718 82.4012 20.8102 82.5315C20.7383 82.6875 20.6489 82.8348 20.5438 82.9707C20.4822 82.9393 20.4189 82.9112 20.3542 82.8867C20.327 82.8782 20.2982 82.8761 20.2701 82.8805C20.2419 82.885 20.2152 82.8959 20.192 82.9124C20.1687 82.9289 20.1496 82.9505 20.1361 82.9756C20.1226 83.0007 20.1151 83.0286 20.1142 83.0571C20.1216 83.1578 20.1476 83.2563 20.191 83.3475C20.0424 83.4735 19.8816 83.5844 19.711 83.6787L19.6582 83.6475C19.6198 83.6259 19.579 83.6067 19.5406 83.5899C19.5179 83.578 19.4937 83.5691 19.4686 83.5635C19.4375 83.5528 19.4041 83.5507 19.3718 83.5573C19.3395 83.5639 19.3096 83.579 19.2852 83.601C19.2607 83.623 19.2426 83.6512 19.2326 83.6826C19.2227 83.7139 19.2213 83.7474 19.2286 83.7795C19.2373 83.8131 19.2485 83.846 19.2622 83.8779C19.0489 83.9557 18.8191 83.9772 18.595 83.9403C18.5134 83.7695 18.4421 83.594 18.3814 83.4147L18.5542 83.3715C18.6184 83.3615 18.6771 83.3293 18.7198 83.2803C18.7547 83.2228 18.7666 83.1543 18.7534 83.0883C18.7385 83.0229 18.6984 82.966 18.6418 82.9301C18.5851 82.8941 18.5166 82.882 18.451 82.8963C18.3838 82.9155 18.3142 82.9323 18.2446 82.9467C18.1771 82.6729 18.148 82.391 18.1582 82.1091H18.175C18.2779 82.1573 18.3759 82.2152 18.4678 82.2819C18.5252 82.3165 18.5937 82.3276 18.659 82.3128C18.7243 82.2981 18.7814 82.2586 18.8182 82.2027C18.8544 82.1467 18.8673 82.0788 18.8543 82.0134C18.8414 81.948 18.8034 81.8902 18.7486 81.8523Z" fill="white"/>
    <path d="M25.7757 83.5916C25.8261 83.9444 24.8685 84.1772 24.0957 84.3116C24.1581 84.9524 24.5757 85.6004 25.1733 86.2052C25.9149 85.7876 26.9709 85.2452 27.1653 85.37C27.3597 85.4948 26.2965 86.2172 25.6197 86.63C26.1035 87.0521 26.6159 87.4402 27.1533 87.7916C27.4845 87.4796 27.8733 87.2084 28.1133 87.3548C28.3533 87.5012 28.2885 87.9884 28.1709 88.4156C28.9773 88.8956 29.5797 89.1716 29.5797 89.1716C29.814 88.4232 29.9937 87.6588 30.1173 86.8844C30.0765 86.8052 30.0357 86.7236 29.9997 86.6444C29.8701 86.3444 29.9997 86.2172 30.2109 86.1644C30.2684 85.6171 30.2684 85.0653 30.2109 84.518C29.3013 84.326 28.1925 83.9732 28.6077 83.426C28.8477 83.0948 29.3157 83.0588 29.7933 83.1404C29.7277 83.0313 29.6522 82.9284 29.5677 82.8332C27.9093 81.0068 26.7501 82.8332 26.7501 82.8332C25.7901 82.0316 24.4317 82.2476 24.1389 83.5028C24.6765 83.3636 25.7133 83.1572 25.7757 83.5916Z" fill="#1E7B1D"/>
    <path opacity="0.5" d="M25.7757 83.5916C25.8261 83.9444 24.8685 84.1772 24.0957 84.3116C24.1581 84.9524 24.5757 85.6004 25.1733 86.2052C25.9149 85.7876 26.9709 85.2452 27.1653 85.37C27.3597 85.4948 26.2965 86.2172 25.6197 86.63C26.1035 87.0521 26.6159 87.4402 27.1533 87.7916C27.4845 87.4796 27.8733 87.2084 28.1133 87.3548C28.3533 87.5012 28.2885 87.9884 28.1709 88.4156C28.9773 88.8956 29.5797 89.1716 29.5797 89.1716C29.814 88.4232 29.9937 87.6588 30.1173 86.8844C30.0765 86.8052 30.0357 86.7236 29.9997 86.6444C29.8701 86.3444 29.9997 86.2172 30.2109 86.1644C30.2684 85.6171 30.2684 85.0653 30.2109 84.518C29.3013 84.326 28.1925 83.9732 28.6077 83.426C28.8477 83.0948 29.3157 83.0588 29.7933 83.1404C29.7277 83.0313 29.6522 82.9284 29.5677 82.8332C27.9093 81.0068 26.7501 82.8332 26.7501 82.8332C25.7901 82.0316 24.4317 82.2476 24.1389 83.5028C24.6765 83.3636 25.7133 83.1572 25.7757 83.5916Z" fill="white"/>
    <path d="M69.7104 44.9763C69.648 45.3363 69.5832 45.6363 69.504 45.9603C69.4248 46.2843 69.3408 46.5915 69.2472 46.9035C69.0646 47.5343 68.845 48.1537 68.5896 48.7587C68.0664 49.9731 67.4208 51.1923 66.3408 52.2363C66.0621 52.5042 65.7556 52.7416 65.4264 52.9443C65.3424 52.9923 65.2488 53.0499 65.172 53.0907L64.9512 53.2035C64.8024 53.2779 64.6584 53.3475 64.5096 53.4123C63.9216 53.6787 63.3408 53.9187 62.7504 54.1323C61.5804 54.5725 60.3875 54.949 59.1768 55.2603L58.7256 54.1131C59.7936 53.5131 60.8856 52.9347 61.9416 52.3563C62.4696 52.0635 63 51.7779 63.504 51.4755C63.6288 51.4011 63.744 51.3291 63.876 51.2523L64.0584 51.1395C64.1136 51.1035 64.1496 51.0747 64.1952 51.0435C64.3815 50.9094 64.5529 50.7558 64.7064 50.5851C65.3664 49.8771 65.8824 48.8691 66.2904 47.8179C66.5016 47.2923 66.6768 46.7427 66.8448 46.1907C66.9264 45.9123 67.0032 45.6339 67.0848 45.3531C67.1664 45.0723 67.224 44.7795 67.2744 44.5371L69.7104 44.9763Z" fill="#CE7A63"/>
    <path d="M64.6992 48.2615L67.2912 50.1959C67.2912 50.1959 67.392 50.0855 67.5552 49.8959C67.6752 49.7567 67.8312 49.5719 68.0088 49.3559C69.0168 48.1271 70.4904 45.8879 70.5024 44.7959C70.5192 43.1591 68.8224 42.9191 66.9168 44.5919C66.0936 45.3119 65.664 46.5119 65.2368 47.2535C65.0976 47.4935 64.9824 47.7143 64.8912 47.8799C64.7712 48.1175 64.6992 48.2615 64.6992 48.2615Z" fill="#1E7B1D"/>
    <path opacity="0.3" d="M70.5195 44.9779C69.9339 44.5915 69.5067 45.5947 68.3475 46.4419C67.8315 46.8187 66.7011 49.2811 66.7923 49.8235L67.2939 50.1955C67.2939 50.1955 70.5315 46.6099 70.5195 44.9779Z" fill="black"/>
    <path d="M59.1862 53.9824L57.043 53.416L57.1942 55.54C57.1942 55.54 59.287 55.7512 59.4814 55.1224L59.1862 53.9824Z" fill="#CE7A63"/>
    <path d="M55.3945 54.5152L55.8817 55.9648L57.1945 55.54L57.0433 53.416L55.3945 54.5152Z" fill="#CE7A63"/>
    <path d="M67.937 57.7571H76.7138C76.7738 56.9747 76.5938 54.4235 76.7282 51.1787C76.8124 48.7718 77.1039 46.3765 77.5994 44.0195L77.7218 43.4915C77.7218 43.4915 77.2778 43.4003 76.6394 43.3067C76.1114 43.2299 75.4394 43.1507 74.7962 43.1195C73.554 43.0487 72.3088 43.0487 71.0666 43.1195C70.493 43.1723 69.9338 43.2683 69.4874 43.3595C68.9162 43.4747 68.5778 43.5731 68.5778 43.5731C68.5778 43.5731 66.4178 48.5315 67.937 57.7571Z" fill="#1E7B1D"/>
    <path opacity="0.3" d="M76.7281 51.1786C76.8124 48.7724 77.1038 46.3779 77.5993 44.0218C77.0137 43.969 76.0105 44.0218 75.8449 44.9818C75.6649 45.9922 75.8905 48.3874 76.7281 51.1786Z" fill="black"/>
    <path d="M74.7168 39.3594L73.7184 40.1874L72.36 41.3154C72.3987 41.4969 72.4276 41.6803 72.4464 41.865C72.5184 42.6018 72.3288 42.8562 71.2464 43.113C71.2464 43.113 69.96 43.965 71.868 44.121C71.8752 44.3281 71.9074 44.5336 71.964 44.733C72.1317 44.5002 72.3398 44.2995 72.5784 44.1402C74.6664 44.1042 74.9424 43.137 74.9424 43.137C74.1264 42.3282 74.4408 40.5594 74.7168 39.3594Z" fill="#CE7A63"/>
    <path opacity="0.2" d="M72.3604 41.3077C72.3991 41.4892 72.428 41.6727 72.4467 41.8573C72.9531 41.7565 73.63 41.2165 73.702 40.6981C73.7259 40.5264 73.7315 40.3526 73.7188 40.1797L72.3604 41.3077Z" fill="black"/>
    <path d="M68.7166 98.2067L66.871 98.4011L66.7774 97.3307L66.5254 94.4195L68.371 94.2227L68.6518 97.4411L68.7166 98.2067Z" fill="#9F5B53"/>
    <path d="M77.9309 97.9742H76.1429L76.1261 97.5686L76.1237 97.5182L76.0325 94.9238L76.0301 94.871L75.9941 93.875H77.7869L77.9309 97.9742Z" fill="#9F5B53"/>
    <path opacity="0.2" d="M68.371 94.2227L68.6518 97.4411L66.7774 97.3307L66.5254 94.4195L68.371 94.2227Z" fill="black"/>
    <path opacity="0.2" d="M77.9205 97.7468H77.9181L76.1253 97.5188H76.1229L76.0293 95.0156H76.0317L77.8269 95.1572L77.9181 97.6676L77.9205 97.7468Z" fill="black"/>
    <path d="M75.8953 97.8662H78.0553C78.0911 97.8659 78.1259 97.8779 78.1538 97.9002C78.1818 97.9225 78.2012 97.9537 78.2089 97.9886L78.5617 99.5822C78.576 99.6506 78.5625 99.7219 78.5242 99.7804C78.486 99.8389 78.4261 99.8798 78.3577 99.8942H78.3001C77.5969 99.8822 77.0833 99.839 76.2001 99.839C75.6577 99.839 74.0161 99.8942 73.2649 99.8942C72.5137 99.8942 72.4153 99.1526 72.7225 99.0854C74.1025 98.7854 75.1394 98.3654 75.581 97.9718C75.6677 97.8964 75.7807 97.8585 75.8953 97.8662Z" fill="#263238"/>
    <path d="M66.6749 97.8089H68.8493C68.885 97.8086 68.9198 97.8206 68.9478 97.8429C68.9757 97.8652 68.9952 97.8964 69.0029 97.9313L69.3557 99.5249C69.3699 99.5933 69.3564 99.6646 69.3182 99.7231C69.2799 99.7816 69.2201 99.8225 69.1517 99.8369H69.0941C68.3909 99.8369 67.8773 99.7817 66.9941 99.7817C66.4493 99.7817 64.8101 99.8393 64.0589 99.8393C63.3077 99.8393 63.2093 99.0977 63.5165 99.0281C64.8965 98.7281 65.9333 98.3081 66.3749 97.9145C66.4578 97.8424 66.5651 97.8047 66.6749 97.8089Z" fill="#263238"/>
    <path d="M78.1588 97.2906H75.5692C75.5692 97.2906 73.4812 86.1234 72.6556 80.433C72.5284 79.5498 72.3892 78.3906 72.25 77.0418C72.0316 74.8578 71.806 72.2418 71.6044 69.7218C70.9852 71.3874 70.5124 73.7658 70.1476 76.4658C68.8492 86.1378 68.9812 97.0626 68.9812 97.0626H66.3556C64.33 81.585 67.0348 62.5386 67.9372 57.7578H76.7116C76.726 58.8954 77.2084 75.0378 77.5468 81.117C77.8516 86.709 78.1588 97.2906 78.1588 97.2906Z" fill="#263238"/>
    <path d="M66.0605 96.3242L66.1901 97.0634H69.2909V96.3818L66.0605 96.3242Z" fill="#1E7B1D"/>
    <path d="M75.2686 96.6074L75.5662 97.2914H78.1678L78.3382 96.6074H75.2686Z" fill="#1E7B1D"/>
    <path d="M74.7674 39.5035C74.7674 39.5035 75.3002 39.7675 75.461 39.4627C75.6218 39.1579 75.461 38.6875 75.7226 38.5987C75.9842 38.5099 76.5506 38.4979 76.5146 38.1787C76.4786 37.8595 76.1186 37.6027 76.3658 37.3963C76.613 37.1899 77.1194 36.8971 76.8938 36.6475C76.6682 36.3979 76.4594 35.9875 76.6538 35.8387C76.8482 35.6899 76.5938 34.8379 76.0898 34.8955C75.5858 34.9531 75.6698 34.5403 75.6818 34.1755C75.6938 33.8107 74.9426 33.5059 74.765 33.8683C74.5874 34.2307 74.201 33.7699 74.0954 33.4483C73.9898 33.1267 73.7738 33.0163 73.3202 33.2419C72.8666 33.4675 72.7994 34.2283 72.5666 33.7891C72.3338 33.3499 71.8178 33.0691 71.5658 33.3091C71.3138 33.5491 71.465 33.8659 71.069 33.8491C70.673 33.8323 70.1234 34.5499 70.3178 34.6603C70.5122 34.7707 70.4834 34.9675 70.217 35.1835C69.9506 35.3995 69.641 35.7499 69.989 35.9035C70.337 36.0571 70.3154 36.3115 70.2122 36.4147C70.109 36.5179 70.421 37.0195 70.889 36.9907C71.357 36.9619 74.7674 39.5035 74.7674 39.5035Z" fill="#263238"/>
    <path d="M70.6514 34.9727C70.6514 34.9727 69.7586 37.0919 70.7138 38.2367C71.669 39.3815 72.7058 35.2775 72.7058 35.2775L70.6514 34.9727Z" fill="#263238"/>
    <path d="M73.6797 40.8455C73.3432 41.1466 72.917 41.3287 72.4669 41.3638C72.0168 41.3989 71.5676 41.2851 71.1885 41.0399C70.6906 40.7338 70.329 40.2485 70.1781 39.6839C70.1565 39.6071 70.1397 39.5279 70.1253 39.4439C69.8853 37.9511 70.3005 35.5487 71.9493 35.0255C72.3124 34.9087 72.6994 34.8866 73.0736 34.9614C73.4477 35.0361 73.7965 35.2052 74.0869 35.4526C74.3773 35.7 74.5997 36.0174 74.733 36.3749C74.8663 36.7324 74.906 37.118 74.8485 37.4951C74.6133 39.1199 74.5581 40.0799 73.6797 40.8455Z" fill="#CE7A63"/>
    <path d="M72.3291 37.7592C72.3291 37.8912 72.2403 37.9992 72.1515 37.9872C72.0627 37.9752 72.0051 37.8672 72.0147 37.7328C72.0243 37.5984 72.1035 37.4928 72.1899 37.5072C72.2763 37.5216 72.3387 37.6248 72.3291 37.7592Z" fill="#263238"/>
    <path d="M70.829 37.642C70.829 37.774 70.7378 37.882 70.6538 37.87C70.5698 37.858 70.505 37.75 70.5146 37.6156C70.5242 37.4812 70.6058 37.3756 70.6898 37.39C70.7738 37.4044 70.8386 37.5172 70.829 37.642Z" fill="#263238"/>
    <path d="M71.2991 37.7441C71.1106 38.1374 70.8683 38.5025 70.5791 38.8289C70.6652 38.9013 70.7662 38.9538 70.8748 38.9828C70.9835 39.0119 71.0972 39.0167 71.2079 38.9969L71.2991 37.7441Z" fill="#BA4D3C"/>
    <path d="M70.3206 36.984C70.3328 36.9917 70.347 36.9958 70.3614 36.9958C70.3758 36.9958 70.39 36.9917 70.4022 36.984C70.4849 36.9314 70.5786 36.8987 70.676 36.8883C70.7734 36.8779 70.8719 36.8901 70.9638 36.924C70.973 36.9286 70.983 36.9313 70.9932 36.9319C71.0035 36.9326 71.0137 36.9312 71.0234 36.9278C71.0331 36.9244 71.042 36.9191 71.0496 36.9122C71.0572 36.9054 71.0634 36.897 71.0677 36.8877C71.072 36.8784 71.0745 36.8683 71.0748 36.8581C71.0752 36.8478 71.0735 36.8376 71.0699 36.828C71.0662 36.8184 71.0607 36.8097 71.0536 36.8022C71.0465 36.7948 71.038 36.7889 71.0286 36.7848C70.9135 36.7395 70.7893 36.7221 70.6662 36.7342C70.5431 36.7463 70.4246 36.7875 70.3206 36.8544C70.3031 36.8649 70.2904 36.8818 70.285 36.9015C70.2797 36.9211 70.2821 36.9421 70.2918 36.96C70.3003 36.9693 70.3099 36.9774 70.3206 36.984Z" fill="#263238"/>
    <path d="M72.6696 37.1853C72.6844 37.1901 72.7003 37.1901 72.7152 37.1853C72.7295 37.1705 72.7376 37.1507 72.7376 37.1301C72.7376 37.1095 72.7295 37.0897 72.7152 37.0749C72.6303 36.9843 72.5251 36.9153 72.4082 36.8736C72.2913 36.8318 72.1662 36.8186 72.0432 36.8349C72.0229 36.8395 72.0052 36.8519 71.994 36.8694C71.9827 36.8869 71.9789 36.9082 71.9832 36.9285C71.9878 36.9483 71.9998 36.9656 72.0168 36.9767C72.0337 36.9879 72.0544 36.9921 72.0744 36.9885C72.172 36.9778 72.2708 36.99 72.3628 37.0242C72.4549 37.0583 72.5377 37.1135 72.6048 37.1853C72.6149 37.19 72.626 37.1925 72.6372 37.1925C72.6483 37.1925 72.6594 37.19 72.6696 37.1853Z" fill="#263238"/>
    <path d="M73.8001 35.373L73.6201 35.661C74.1337 35.901 73.9489 36.513 73.8049 36.7794C73.4977 37.3506 73.7209 38.3274 74.1361 38.757C74.1361 38.757 74.1817 38.4978 74.3953 38.5866C74.6089 38.6754 74.3953 39.7866 74.3953 39.7866C74.3953 39.7866 74.5801 40.1058 75.1273 38.7282C75.6313 37.4538 75.8137 36.3642 75.6073 35.8194L73.8001 35.373Z" fill="#263238"/>
    <path d="M75.4419 38.8803C75.3396 39.0573 75.2031 39.2121 75.0404 39.3358C74.8776 39.4594 74.6918 39.5493 74.4939 39.6003C73.9635 39.7347 73.7139 39.2571 73.8723 38.7651C74.0163 38.3283 74.4651 37.7187 74.9907 37.8051C75.1049 37.8254 75.2123 37.8739 75.3029 37.9463C75.3935 38.0188 75.4645 38.1128 75.5094 38.2197C75.5543 38.3267 75.5716 38.4432 75.5598 38.5586C75.548 38.674 75.5075 38.7847 75.4419 38.8803Z" fill="#CE7A63"/>
    <path d="M71.2803 39.3242C71.4066 39.5246 71.5181 39.734 71.6139 39.9506L71.7339 39.917C72.2787 39.7682 72.4827 39.5186 72.5427 39.2882C72.5707 39.1747 72.5707 39.0561 72.5427 38.9426C72.5277 38.8782 72.5043 38.8161 72.4731 38.7578C72.1781 38.9998 71.8342 39.1751 71.4651 39.2714C71.3499 39.3074 71.2803 39.3242 71.2803 39.3242Z" fill="#263238"/>
    <path d="M71.4629 39.2714L71.5661 39.4538C72.0797 39.3122 72.4205 39.1418 72.5405 38.9426C72.5255 38.8782 72.5021 38.8161 72.4709 38.7578C72.1759 38.9998 71.8321 39.1751 71.4629 39.2714Z" fill="white"/>
    <path d="M71.7314 39.9159C72.2762 39.7671 72.4802 39.5175 72.5402 39.2871C72.3345 39.3479 72.1411 39.4446 71.969 39.5727C71.8555 39.6591 71.7724 39.7793 71.7314 39.9159Z" fill="#DE5753"/>
    <path d="M72.619 34.4054C72.619 34.4054 71.7382 34.4054 71.2894 34.7726C70.8406 35.1398 70.5382 35.7086 70.699 35.7614C70.8598 35.8142 71.3206 35.5502 71.4406 35.6078C71.5606 35.6654 71.5606 36.3638 72.0046 36.1262C72.4486 35.8886 72.199 35.8862 72.559 35.7998C72.919 35.7134 73.123 36.1598 73.279 36.1286C73.3923 36.0995 73.499 36.049 73.5934 35.9798C73.5934 35.9798 73.1134 35.8214 73.087 35.6678C73.0606 35.5142 72.607 35.4278 72.607 35.4278C72.607 35.4278 73.1806 35.2334 73.3582 35.3942C73.5358 35.555 73.4326 35.9102 73.9006 35.9006C74.3686 35.891 75.1006 36.3014 75.1678 35.7062C75.235 35.111 73.6798 34.0118 72.619 34.4054Z" fill="#263238"/>
    <path d="M74.9403 42.3164L72.7059 43.2764L71.9619 44.726L72.7059 44.2364L73.6203 45.1148L75.5547 43.1756L74.9403 42.3164Z" fill="#1E7B1D"/>
    <path d="M71.9613 44.726L71.7213 43.442C71.7213 43.442 71.7429 43.0652 72.2493 42.698L71.4525 42.3164C71.4525 42.3164 70.2189 43.7996 70.1445 44.7164L71.2245 43.9964L71.9613 44.726Z" fill="#1E7B1D"/>
    <path opacity="0.2" d="M74.9403 42.3164L72.7059 43.2764L71.9619 44.726L72.7059 44.2364L73.6203 45.1148L75.5547 43.1756L74.9403 42.3164Z" fill="white"/>
    <path opacity="0.2" d="M71.9613 44.726L71.7213 43.442C71.7213 43.442 71.7429 43.0652 72.2493 42.698L71.4525 42.3164C71.4525 42.3164 70.2189 43.7996 70.1445 44.7164L71.2245 43.9964L71.9613 44.726Z" fill="white"/>
    <path d="M65.5029 97.9464C65.4867 97.9128 65.4799 97.8754 65.4833 97.8382C65.4867 97.801 65.5001 97.7654 65.5221 97.7352C65.5329 97.713 65.5496 97.6941 65.5703 97.6806C65.591 97.6671 65.615 97.6594 65.6397 97.6584C65.8533 97.6464 66.1989 98.0904 66.2373 98.1384C66.2413 98.1449 66.2435 98.1524 66.2435 98.16C66.2435 98.1677 66.2413 98.1752 66.2373 98.1816C66.2333 98.1876 66.228 98.1924 66.2217 98.1958C66.2154 98.1991 66.2084 98.2009 66.2013 98.2008C66.0541 98.1901 65.9084 98.1635 65.7669 98.1216C65.6601 98.0981 65.566 98.0357 65.5029 97.9464ZM65.6445 97.7352C65.6321 97.7352 65.6201 97.7389 65.6099 97.7457C65.5996 97.7526 65.5916 97.7623 65.5869 97.7736C65.5724 97.793 65.5633 97.8158 65.5603 97.8398C65.5574 97.8638 65.5608 97.8881 65.5701 97.9104C65.6205 98.0064 65.8221 98.0832 66.1197 98.1168C65.9757 97.944 65.7597 97.728 65.6445 97.7352Z" fill="#1E7B1D"/>
    <path d="M66.1781 98.1913C66.0533 98.0473 65.9261 97.6465 66.0173 97.4881C66.0331 97.4591 66.0585 97.4365 66.0892 97.4242C66.1199 97.4119 66.1539 97.4108 66.1853 97.4209C66.2144 97.4257 66.242 97.4374 66.2658 97.4549C66.2896 97.4724 66.3089 97.4953 66.3221 97.5217C66.4301 97.7233 66.2501 98.1601 66.2429 98.1793C66.2404 98.1853 66.2364 98.1907 66.2314 98.1948C66.2264 98.199 66.2205 98.2019 66.2141 98.2033H66.1949L66.1781 98.1913ZM66.1781 97.4953C66.1229 97.4833 66.1013 97.4953 66.0917 97.5265C66.0564 97.7205 66.0967 97.9206 66.2045 98.0857C66.2801 97.9205 66.3003 97.7353 66.2621 97.5577C66.2554 97.5441 66.2459 97.532 66.2344 97.5221C66.2228 97.5122 66.2094 97.5047 66.1949 97.5001L66.1781 97.4953Z" fill="#1E7B1D"/>
    <path d="M74.7216 97.9464C74.7054 97.9128 74.6986 97.8754 74.702 97.8382C74.7054 97.801 74.7188 97.7654 74.7408 97.7352C74.7517 97.713 74.7683 97.6941 74.789 97.6806C74.8097 97.6671 74.8337 97.6594 74.8584 97.6584C75.0744 97.6464 75.4176 98.0904 75.456 98.1384C75.4601 98.1449 75.4622 98.1524 75.4622 98.16C75.4622 98.1677 75.4601 98.1752 75.456 98.1816C75.4521 98.1876 75.4467 98.1924 75.4404 98.1958C75.4342 98.1991 75.4271 98.2009 75.42 98.2008C75.2728 98.1899 75.1272 98.1633 74.9856 98.1216C74.8792 98.0975 74.7852 98.0352 74.7216 97.9464ZM74.8632 97.7352C74.8509 97.7352 74.8389 97.7389 74.8286 97.7457C74.8184 97.7526 74.8104 97.7623 74.8056 97.7736C74.7912 97.793 74.782 97.8158 74.7791 97.8398C74.7762 97.8638 74.7795 97.8881 74.7888 97.9104C74.8392 98.0064 75.0408 98.0832 75.3384 98.1168C75.1944 97.944 74.9784 97.728 74.8632 97.7352Z" fill="#1E7B1D"/>
    <path d="M75.3958 98.1913C75.271 98.0473 75.1558 97.6465 75.235 97.4881C75.2508 97.4591 75.2762 97.4365 75.3069 97.4242C75.3376 97.4119 75.3716 97.4108 75.403 97.4209C75.4322 97.4257 75.4598 97.4374 75.4835 97.4549C75.5073 97.4724 75.5266 97.4953 75.5398 97.5217C75.6478 97.7233 75.4678 98.1601 75.4606 98.1793C75.4581 98.1853 75.4542 98.1907 75.4491 98.1948C75.4441 98.199 75.4382 98.2019 75.4318 98.2033H75.4126L75.3958 98.1913ZM75.3958 97.4953C75.3406 97.4833 75.319 97.4953 75.3094 97.5265C75.2741 97.7205 75.3145 97.9206 75.4222 98.0857C75.4979 97.9205 75.5181 97.7353 75.4798 97.5577C75.4733 97.5439 75.464 97.5317 75.4524 97.5217C75.4408 97.5118 75.4273 97.5044 75.4126 97.5001L75.3958 97.4953Z" fill="#1E7B1D"/>
    <path opacity="0.3" d="M71.6045 69.7225C70.9853 71.3881 70.5125 73.7665 70.1477 76.4665C69.2669 72.8665 71.3765 66.1777 71.3765 66.1777L71.6045 69.7225Z" fill="black"/>
    <path d="M83.7722 56.9739C84.5114 57.2451 84.7322 58.4787 84.2762 59.7315C83.8202 60.9843 82.8362 61.7739 82.1162 61.5027C81.3962 61.2315 81.1562 59.9955 81.6122 58.7451C82.0682 57.4947 83.0402 56.7003 83.7722 56.9739Z" fill="#263238"/>
    <path d="M81.6795 55.0916C81.6096 54.9249 81.4781 54.7916 81.3123 54.7196C80.5923 54.4532 79.4307 55.7804 78.7299 57.6836C78.0291 59.5868 78.0507 61.346 78.7755 61.6124C78.9462 61.6664 79.1313 61.6517 79.2915 61.5716C79.3499 61.6352 79.4221 61.6844 79.5027 61.7156C79.5867 61.742 79.6751 61.7515 79.7628 61.7437C79.8505 61.7359 79.9358 61.7108 80.0139 61.67C80.0734 61.7356 80.1473 61.7865 80.2299 61.8188C80.3141 61.8439 80.4025 61.852 80.4898 61.8425C80.5772 61.833 80.6618 61.8062 80.7387 61.7636C80.7959 61.8334 80.8704 61.8872 80.9547 61.9196C81.0394 61.9457 81.1286 61.9539 81.2166 61.9436C81.3046 61.9333 81.3895 61.9046 81.4659 61.8596C81.5218 61.9325 81.5965 61.9889 81.6819 62.0228C82.2843 62.246 83.2467 61.142 83.8419 59.5604C84.4371 57.9788 84.4059 56.5148 83.8035 56.2916C83.7163 56.2608 83.6222 56.2558 83.5323 56.2772C83.5033 56.1938 83.4575 56.1173 83.3976 56.0524C83.3377 55.9876 83.2651 55.9358 83.1843 55.9004C83.0988 55.8702 83.007 55.8628 82.9179 55.8788C82.8859 55.7967 82.8377 55.722 82.7763 55.6589C82.7149 55.5958 82.6414 55.5457 82.5603 55.5116C82.4767 55.481 82.3867 55.4719 82.2987 55.4852C82.2661 55.4035 82.2178 55.329 82.1564 55.266C82.095 55.203 82.0219 55.1527 81.9411 55.118C81.8572 55.0887 81.7675 55.0796 81.6795 55.0916Z" fill="#263238"/>
    <path opacity="0.2" d="M81.6795 55.0916C81.6096 54.9249 81.4781 54.7916 81.3123 54.7196C80.5923 54.4532 79.4307 55.7804 78.7299 57.6836C78.0291 59.5868 78.0507 61.346 78.7755 61.6124C78.9462 61.6664 79.1313 61.6517 79.2915 61.5716C79.3499 61.6352 79.4221 61.6844 79.5027 61.7156C79.5867 61.742 79.6751 61.7515 79.7628 61.7437C79.8505 61.7359 79.9358 61.7108 80.0139 61.67C80.0734 61.7356 80.1473 61.7865 80.2299 61.8188C80.3141 61.8439 80.4025 61.852 80.4898 61.8425C80.5772 61.833 80.6618 61.8062 80.7387 61.7636C80.7959 61.8334 80.8704 61.8872 80.9547 61.9196C81.0394 61.9457 81.1286 61.9539 81.2166 61.9436C81.3046 61.9333 81.3895 61.9046 81.4659 61.8596C81.5218 61.9325 81.5965 61.9889 81.6819 62.0228C82.2843 62.246 83.2467 61.142 83.8419 59.5604C84.4371 57.9788 84.4059 56.5148 83.8035 56.2916C83.7163 56.2608 83.6222 56.2558 83.5323 56.2772C83.5033 56.1938 83.4575 56.1173 83.3976 56.0524C83.3377 55.9876 83.2651 55.9358 83.1843 55.9004C83.0988 55.8702 83.007 55.8628 82.9179 55.8788C82.8859 55.7967 82.8377 55.722 82.7763 55.6589C82.7149 55.5958 82.6414 55.5457 82.5603 55.5116C82.4767 55.481 82.3867 55.4719 82.2987 55.4852C82.2661 55.4035 82.2178 55.329 82.1564 55.266C82.095 55.203 82.0219 55.1527 81.9411 55.118C81.8572 55.0887 81.7675 55.0796 81.6795 55.0916Z" fill="white"/>
    <path d="M76.2915 49.8638C75.2632 49.4849 74.1557 49.3721 73.0721 49.536C71.9884 49.6999 70.9639 50.1352 70.0936 50.8014C69.2234 51.4675 68.5357 52.343 68.0946 53.3462C67.6535 54.3495 67.4732 55.448 67.5706 56.5396C67.668 57.6312 68.0399 58.6805 68.6516 59.5898C69.2633 60.4992 70.0951 61.239 71.0695 61.7406C72.044 62.2422 73.1294 62.4893 74.2249 62.4588C75.3205 62.4283 76.3905 62.1213 77.3355 61.5662C77.4857 61.476 77.6556 61.424 77.8305 61.4148C78.0054 61.4056 78.1799 61.4395 78.3387 61.5134C78.354 61.5221 78.3701 61.5293 78.3867 61.535C79.1235 61.8062 80.3067 60.4598 81.0099 58.5254C81.7131 56.591 81.7011 54.8054 80.9643 54.5342L80.9139 54.5198C80.7438 54.4722 80.5879 54.3836 80.4599 54.2619C80.3319 54.1402 80.2356 53.9889 80.1795 53.8214C79.8648 52.9151 79.3528 52.0899 78.6805 51.4055C78.0081 50.7211 77.1921 50.1945 76.2915 49.8638Z" fill="#1E7B1D"/>
    <path opacity="0.7" d="M76.2915 49.8638C75.2632 49.4849 74.1557 49.3721 73.0721 49.536C71.9884 49.6999 70.9639 50.1352 70.0936 50.8014C69.2234 51.4675 68.5357 52.343 68.0946 53.3462C67.6535 54.3495 67.4732 55.448 67.5706 56.5396C67.668 57.6312 68.0399 58.6805 68.6516 59.5898C69.2633 60.4992 70.0951 61.239 71.0695 61.7406C72.044 62.2422 73.1294 62.4893 74.2249 62.4588C75.3205 62.4283 76.3905 62.1213 77.3355 61.5662C77.4857 61.476 77.6556 61.424 77.8305 61.4148C78.0054 61.4056 78.1799 61.4395 78.3387 61.5134C78.354 61.5221 78.3701 61.5293 78.3867 61.535C79.1235 61.8062 80.3067 60.4598 81.0099 58.5254C81.7131 56.591 81.7011 54.8054 80.9643 54.5342L80.9139 54.5198C80.7438 54.4722 80.5879 54.3836 80.4599 54.2619C80.3319 54.1402 80.2356 53.9889 80.1795 53.8214C79.8648 52.9151 79.3528 52.0899 78.6805 51.4055C78.0081 50.7211 77.1921 50.1945 76.2915 49.8638Z" fill="white"/>
    <path d="M74.9286 59.8065C74.9188 59.8066 74.9091 59.8047 74.9 59.801C74.891 59.7973 74.8827 59.7918 74.8758 59.7849C74.8639 59.775 74.8554 59.7615 74.8515 59.7464C74.8476 59.7313 74.8486 59.7154 74.8542 59.7009L75.2598 58.6017L74.5686 57.9513C74.5581 57.9414 74.5505 57.9287 74.5467 57.9148C74.5429 57.9008 74.543 57.8861 74.547 57.8721C74.5517 57.8579 74.5602 57.8452 74.5716 57.8354C74.5831 57.8257 74.597 57.8193 74.6118 57.8169L76.143 57.5937L75.1206 56.4321C75.1113 56.421 75.1053 56.4074 75.1031 56.393C75.101 56.3786 75.1029 56.3639 75.1086 56.3505C75.1139 56.3373 75.1227 56.3258 75.1342 56.3174C75.1456 56.3089 75.1592 56.3037 75.1734 56.3025L76.8726 56.1417L75.6726 54.9177C75.662 54.9074 75.6547 54.8941 75.6517 54.8795C75.6487 54.865 75.6501 54.8499 75.6558 54.8361C75.6616 54.8221 75.6711 54.8099 75.6834 54.801C75.6957 54.7921 75.7103 54.7868 75.7254 54.7857L76.671 54.7401L77.0766 53.6409C77.0819 53.6245 77.0927 53.6104 77.107 53.6008C77.1214 53.5912 77.1386 53.5868 77.1558 53.5881C77.1729 53.5899 77.1889 53.5972 77.2014 53.6089C77.214 53.6206 77.2224 53.6361 77.2254 53.6529C77.5494 55.4697 80.3286 56.9865 80.3574 57.0009C80.3755 57.0108 80.389 57.0275 80.3949 57.0473C80.4007 57.0671 80.3985 57.0884 80.3886 57.1065C80.3787 57.1247 80.3621 57.1382 80.3423 57.144C80.3225 57.1499 80.3011 57.1476 80.283 57.1377C80.1726 57.0777 77.655 55.6977 77.1318 53.9361L76.8006 54.8409C76.7955 54.8556 76.7861 54.8684 76.7737 54.8778C76.7614 54.8872 76.7465 54.8927 76.731 54.8937L75.9054 54.9345L77.0886 56.1513C77.0988 56.1615 77.1057 56.1744 77.1087 56.1885C77.1117 56.2025 77.1105 56.2171 77.1054 56.2305C77.1004 56.2444 77.0917 56.2566 77.0803 56.2659C77.0689 56.2752 77.0552 56.2812 77.0406 56.2833L75.3294 56.4417L76.3446 57.5985C76.3543 57.609 76.3609 57.622 76.3634 57.636C76.366 57.6501 76.3644 57.6645 76.359 57.6777C76.3542 57.6906 76.3462 57.702 76.3357 57.7109C76.3252 57.7197 76.3125 57.7257 76.299 57.7281L74.7846 57.9489L75.3942 58.5225C75.4052 58.5332 75.4128 58.5468 75.4162 58.5617C75.4196 58.5766 75.4186 58.5922 75.4134 58.6065L75.0558 59.5809C75.639 59.3409 77.6094 58.6209 79.4958 59.3121C79.5147 59.3201 79.5298 59.335 79.5383 59.3536C79.5467 59.3723 79.5479 59.3935 79.5414 59.4129C79.5379 59.4227 79.5325 59.4316 79.5256 59.4392C79.5186 59.4468 79.5101 59.4529 79.5007 59.4572C79.4913 59.4614 79.4811 59.4637 79.4708 59.464C79.4605 59.4642 79.4502 59.4624 79.4406 59.4585C77.2806 58.6593 74.9766 59.7849 74.9526 59.7969C74.9451 59.8013 74.937 59.8045 74.9286 59.8065Z" fill="#263238"/>
    <path d="M77.9284 44.2129C78.2068 44.4217 78.43 44.6017 78.6676 44.8081C78.9052 45.0145 79.1308 45.2137 79.354 45.4225C79.8052 45.8462 80.2323 46.2949 80.6332 46.7665C81.0473 47.2494 81.4244 47.7629 81.7612 48.3025C82.1227 48.8714 82.4114 49.4833 82.6204 50.1241C82.6684 50.2945 82.7212 50.4625 82.7572 50.6425C82.8046 50.8458 82.8327 51.0531 82.8412 51.2617C82.8521 51.6239 82.8223 51.9861 82.7524 52.3417C82.6355 52.959 82.4685 53.5658 82.2532 54.1561C81.8495 55.2823 81.3501 56.3719 80.7604 57.4129L79.6252 56.9329C79.9084 55.8409 80.194 54.7225 80.41 53.6425C80.5183 53.1268 80.5953 52.6051 80.6404 52.0801C80.6577 51.8642 80.6537 51.6472 80.6284 51.4321C80.6173 51.3501 80.5972 51.2696 80.5684 51.1921C80.5378 51.0863 80.5018 50.9822 80.4604 50.8801C80.0452 49.9643 79.4771 49.1259 78.7804 48.4009C78.4252 48.0049 78.0388 47.6281 77.6452 47.2561C77.4484 47.0689 77.2468 46.8889 77.0428 46.7113C76.8388 46.5337 76.6204 46.3513 76.4404 46.2073L77.9284 44.2129Z" fill="#CE7A63"/>
    <path d="M75.886 46.896C76.5754 47.8892 77.3223 48.8412 78.1228 49.7472C78.298 49.9512 78.4588 50.1336 78.5884 50.28C78.8284 50.5368 78.9604 50.6904 78.9604 50.6904L81.6964 48.0504C81.6964 48.0504 81.6196 47.9256 81.4852 47.7192C81.3844 47.5632 81.2452 47.3568 81.094 47.124C80.1604 45.744 78.3316 43.3176 77.218 43.44C75.5548 43.6416 74.722 45.1488 75.886 46.896Z" fill="#1E7B1D"/>
    <path d="M80.7743 57.3602L79.9367 58.9754L78.8447 56.9858C78.8447 56.9858 79.8431 55.6922 80.4695 56.2658L80.7743 57.3602Z" fill="#CE7A63"/>
    <path d="M78.2978 59.4012L77.4746 57.7164L78.845 56.9844L79.937 58.9716L78.2978 59.4012Z" fill="#CE7A63"/>
    <path d="M49.6223 67.502L60.3575 69.098L60.4439 77.7859L57.7679 80.2964L46.1855 78.1508L46.7039 68.8868L49.6223 67.502Z" fill="#1E7B1D"/>
    <path opacity="0.4" d="M60.4434 77.7859L59.4018 78.7652L59.169 78.9811L57.7674 80.2964L46.1826 78.1508L46.7034 68.8868L47.949 68.2964L48.333 68.114L49.6218 67.502L60.357 69.098L60.4434 77.7859Z" fill="black"/>
    <path opacity="0.2" d="M46.7031 68.8868L57.2847 70.5932L60.3567 69.098L49.6215 67.502L46.7031 68.8868Z" fill="white"/>
    <path opacity="0.1" d="M57.2852 70.5929L57.7676 80.2961L60.4436 77.7857L60.3572 69.0977L57.2852 70.5929Z" fill="white"/>
    <path d="M59.402 78.7645L59.1692 78.9805L58.754 69.9013L47.9492 68.2957L48.3332 68.1133L58.9916 69.7813L59.402 78.7645Z" fill="#263238"/>
    <path d="M51.6279 68.6646L52.2975 68.3574L55.0143 68.7246L54.3975 69.0966L51.6279 68.6646Z" fill="#263238"/>
    <path d="M50.5771 68.536C50.5771 68.536 51.3307 65.8072 51.4651 65.656C51.5995 65.5048 55.3939 66.0832 55.6795 66.1192C55.9651 66.1552 56.3083 69.1576 56.3083 69.1576L56.0011 69.3976L55.2811 69.268C55.2811 69.268 55.1515 66.7264 55.0795 66.6448C55.0075 66.5632 52.0771 66.1336 51.9811 66.1648C51.8851 66.196 51.5179 68.3488 51.5179 68.3488L51.1747 68.6104L50.5771 68.536Z" fill="#263238"/>
    <path d="M60.1407 76.3704L59.0823 77.1096V76.8912L59.0031 75.1752V74.9688L58.9863 74.6016C58.9863 74.6016 59.1255 74.9184 59.3319 75.2928C59.5266 75.7025 59.8017 76.069 60.1407 76.3704Z" fill="#1E7B1D"/>
    <path opacity="0.2" d="M59.8725 76.3631L59.0733 76.8912L58.9941 75.1752V74.9688C59.1453 75.3816 59.4573 76.0631 59.8725 76.3631Z" fill="white"/>
    <path opacity="0.2" d="M59.3134 75.2928C59.2054 75.2472 59.095 75.2088 58.9942 75.1752L58.9678 74.6016C58.9678 74.6016 59.107 74.9184 59.3134 75.2928Z" fill="black"/>
    <path d="M61.0432 74.5408L60.736 75.9664C60.2503 75.5226 59.644 75.2328 58.9936 75.1336V74.92L58.9336 73.5904V73.4512C58.9336 73.4512 60.2128 73.7104 61.0432 74.5408Z" fill="#1E7B1D"/>
    <path d="M60.3577 71.7329C59.9224 72.1663 59.4179 72.524 58.8649 72.7913V72.6305L58.8505 72.2081L58.8265 71.5049L58.8145 71.1641V71.0657C59.0874 70.8479 59.3412 70.607 59.5729 70.3457L60.3577 71.7329Z" fill="#1E7B1D"/>
    <path d="M58.5981 69.1998C58.3899 69.3721 58.2066 69.5724 58.0533 69.795L57.8829 69.771L57.6429 69.735L57.2709 69.6822L56.9133 69.6294L56.7861 69.6102C56.965 69.0831 57.328 68.6383 57.8085 68.3574L58.5981 69.1998Z" fill="#1E7B1D"/>
    <path opacity="0.2" d="M57.7671 68.5352C57.3303 68.7752 57.0471 69.344 56.9199 69.6296L57.2775 69.6824C57.2504 69.642 57.2361 69.5942 57.2367 69.5456C57.2367 69.4787 57.2633 69.4146 57.3105 69.3674C57.3578 69.3201 57.4219 69.2936 57.4887 69.2936C57.5556 69.2936 57.6197 69.3201 57.6669 69.3674C57.7142 69.4146 57.7407 69.4787 57.7407 69.5456C57.7409 69.582 57.7328 69.618 57.717 69.6509C57.7012 69.6837 57.6781 69.7126 57.6495 69.7352L57.8895 69.7712C58.0281 69.5534 58.189 69.3507 58.3695 69.1664L57.7671 68.5352Z" fill="white"/>
    <path opacity="0.2" d="M58.9248 73.5898L58.9848 74.9194C59.7936 75.0586 60.6648 75.7114 60.6648 75.7114L60.9408 74.5642C60.3654 74.0689 59.6704 73.733 58.9248 73.5898ZM60.0024 74.5282C59.99 74.6158 59.9506 74.6973 59.8896 74.7613C59.8287 74.8254 59.7493 74.8688 59.6625 74.8856C59.5757 74.9024 59.4858 74.8917 59.4054 74.855C59.325 74.8183 59.258 74.7574 59.2138 74.6808C59.1697 74.6042 59.1505 74.5157 59.159 74.4277C59.1675 74.3397 59.2032 74.2566 59.2612 74.1899C59.3192 74.1231 59.3966 74.0762 59.4826 74.0555C59.5686 74.0349 59.6588 74.0416 59.7408 74.0746C59.8346 74.1016 59.9142 74.164 59.9626 74.2488C60.011 74.3335 60.0244 74.4338 60 74.5282H60.0024Z" fill="white"/>
    <path opacity="0.2" d="M59.5192 70.5938C59.3173 70.82 59.0807 71.0128 58.8184 71.1649L58.8304 71.5057H58.8472C58.9336 71.5159 59.0134 71.5574 59.0713 71.6224C59.1292 71.6874 59.1611 71.7715 59.1611 71.8585C59.1611 71.9456 59.1292 72.0296 59.0713 72.0947C59.0134 72.1597 58.9336 72.2012 58.8472 72.2113L58.8616 72.6337C59.3221 72.3852 59.7522 72.084 60.1432 71.7361L59.5192 70.5938Z" fill="white"/>
    <path d="M50.0848 48.5391C51.4624 49.4511 51.5896 55.5279 51.7144 57.2367C51.8392 58.9455 52.9144 63.6927 52.9144 63.6927L51.7744 64.1055C51.7744 64.1055 50.5168 59.5695 50.08 56.9847C49.9192 55.9863 50.0848 48.5391 50.0848 48.5391Z" fill="#263238"/>
    <path opacity="0.2" d="M52.9176 63.6951L51.78 64.1055C51.78 64.1055 50.5224 59.5719 50.0856 56.9847C50.0707 56.8868 50.0611 56.7883 50.0568 56.6895C50.0064 55.9695 50.004 54.3663 50.0184 52.7751C50.0376 50.6511 50.0856 48.5391 50.0856 48.5391C50.8872 49.0695 51.2664 51.3495 51.4656 53.4975C51.54 54.2991 51.5904 55.0839 51.6288 55.7511C51.6648 56.3727 51.6912 56.8935 51.7152 57.2367C51.84 58.9479 52.9176 63.6951 52.9176 63.6951Z" fill="white"/>
    <path opacity="0.2" d="M51.6288 55.7514C51.134 56.1107 50.6079 56.4248 50.0568 56.6898C50.0064 55.9698 50.004 54.3666 50.0184 52.7754L50.3928 53.6298L51.4656 53.4978C51.54 54.2994 51.6 55.0842 51.6288 55.7514Z" fill="black"/>
    <path d="M53.702 54.1503L55.358 53.2383L55.6724 55.0263C55.6724 55.0263 53.9924 55.6335 53.6924 55.1535L53.702 54.1503Z" fill="#FFB573"/>
    <path d="M56.952 53.8071L56.8464 55.1079L55.6728 55.0263L55.3584 53.2383L56.952 53.8071Z" fill="#FFB573"/>
    <path d="M42.4799 39.8152C42.4799 39.8152 42.9911 38.1232 45.6623 38.3584C48.3335 38.5936 49.0223 40.9984 48.3023 42.904C47.8662 44.0159 47.8895 45.2556 48.3671 46.3504C48.2193 46.283 48.0885 46.1833 47.9842 46.0587C47.88 45.9341 47.805 45.7878 47.7647 45.6304C47.7257 45.9589 47.7806 46.2918 47.9231 46.5904C47.9231 46.5904 44.4143 47.2864 42.6431 46.7656C42.9165 46.3668 43.0367 45.8827 42.9815 45.4024C42.9815 45.4024 42.8927 46.1872 42.5759 46.4512C42.5759 46.4512 42.9095 45.5296 42.7343 44.8816C42.5591 44.2336 41.5007 44.1616 41.3111 42.4456C41.1215 40.7296 41.7599 39.64 42.4799 39.8152Z" fill="#263238"/>
    <path d="M49.8329 59.3729C49.8329 59.3729 51.0833 69.0929 50.9753 75.2657C51.4073 81.0521 51.7697 93.2033 52.4297 94.5161C52.4057 94.8113 51.5609 94.9433 51.2825 94.7561C51.2825 94.7561 46.7681 84.6545 47.3513 75.2561C43.3745 65.4521 43.6121 59.3633 43.6121 59.3633L49.8329 59.3729Z" fill="#FFB573"/>
    <path d="M48.1412 59.373C48.1412 59.373 45.2996 70.3434 44.174 75.7314C42.9908 81.3882 41.774 88.2114 41.762 94.6554C41.4452 94.8426 41.3372 95.1738 40.6964 94.977C40.6964 94.977 37.6844 82.0362 40.2356 75.981C39.1148 62.5794 42.6596 59.373 42.6596 59.373H48.1412Z" fill="#FFB573"/>
    <path d="M39.7488 73.8263C39.9375 74.0343 40.1608 74.2081 40.4088 74.3399C40.4424 73.0967 40.8 72.5183 40.8 72.5183C40.7394 73.2265 40.8044 73.9399 40.992 74.6255C42.888 75.4271 46.5432 75.9575 51.1128 74.8367C51.1128 69.4751 50.052 60.4511 49.98 59.5703C49.98 59.5703 44.5584 59.7143 42.3576 59.7143C39.948 62.5871 39.3024 71.8055 39.7488 73.8263Z" fill="#263238"/>
    <path d="M40.6968 94.9766C40.6968 94.9766 40.0224 95.159 39.948 96.1574C39.8736 97.1558 40.1568 99.9014 40.1568 99.9014H40.4088C40.4088 99.9014 40.3368 97.4126 40.4352 96.9638C40.5144 98.2646 41.4456 99.9014 42.6768 99.9014C43.116 99.9014 42.1632 97.9142 42.0072 96.7046C41.8512 95.495 41.8056 95.0726 41.8056 95.0726L40.6968 94.9766Z" fill="#263238"/>
    <path d="M41.7787 94.1914L40.6963 94.9762C40.7539 96.3226 41.2315 98.0458 41.8627 98.605C41.9042 98.6359 41.9541 98.6536 42.0058 98.6557C42.0576 98.6577 42.1087 98.6441 42.1526 98.6166C42.1964 98.5891 42.2309 98.549 42.2516 98.5015C42.2722 98.454 42.2781 98.4014 42.2683 98.3506C41.9628 96.9847 41.7988 95.5909 41.7787 94.1914Z" fill="#FFB573"/>
    <path d="M51.4965 94.9766C51.4965 94.9766 50.8221 95.159 50.7501 96.1574C50.6781 97.1558 50.9589 99.9014 50.9589 99.9014H51.1989C51.1989 99.9014 51.1245 97.4126 51.2253 96.9638C51.3021 98.2646 52.2333 99.9014 53.4669 99.9014C53.9037 99.9014 52.9509 97.9142 52.7973 96.7046C52.7343 96.1229 52.6349 95.5458 52.4997 94.9766H51.4965Z" fill="#263238"/>
    <path d="M52.2912 94.0791C52.1736 93.7647 51.2256 94.6863 51.2256 94.6863C51.2832 96.0351 52.032 98.0463 52.6656 98.6151C52.7071 98.646 52.757 98.6636 52.8087 98.6657C52.8604 98.6678 52.9116 98.6542 52.9554 98.6267C52.9993 98.5992 53.0338 98.559 53.0545 98.5116C53.0751 98.4641 53.081 98.4115 53.0712 98.3607C52.584 96.3663 52.6344 94.9767 52.2912 94.0791Z" fill="#FFB573"/>
    <path opacity="0.2" d="M39.7488 73.8263C39.9375 74.0343 40.1608 74.2081 40.4088 74.3399C40.4424 73.0967 40.8 72.5183 40.8 72.5183C40.7394 73.2265 40.8044 73.9399 40.992 74.6255C42.888 75.4271 46.5432 75.9575 51.1128 74.8367C51.1128 69.4751 50.052 60.4511 49.98 59.5703C49.98 59.5703 44.5584 59.7143 42.3576 59.7143C39.948 62.5871 39.3024 71.8055 39.7488 73.8263Z" fill="white"/>
    <path d="M42.141 53.4711H50.4618C50.5254 52.4724 50.5382 51.4712 50.5002 50.4711C50.4594 49.2423 49.425 48.1695 48.117 47.9991C47.7546 47.9511 47.3754 47.9079 47.0082 47.8767C45.8894 47.8015 44.7669 47.8015 43.6482 47.8767C43.329 47.8911 43.017 47.9151 42.7242 47.9415C41.6226 48.0471 40.8642 49.0551 41.2434 50.0583C41.663 51.1608 41.9639 52.3049 42.141 53.4711Z" fill="#1E7B1D"/>
    <path opacity="0.7" d="M42.141 53.4711H50.4618C50.5254 52.4724 50.5382 51.4712 50.5002 50.4711C50.4594 49.2423 49.425 48.1695 48.117 47.9991C47.7546 47.9511 47.3754 47.9079 47.0082 47.8767C45.8894 47.8015 44.7669 47.8015 43.6482 47.8767C43.329 47.8911 43.017 47.9151 42.7242 47.9415C41.6226 48.0471 40.8642 49.0551 41.2434 50.0583C41.663 51.1608 41.9639 52.3049 42.141 53.4711Z" fill="white"/>
    <path d="M43.6102 47.7425L47.1646 52.0793C47.1646 52.0793 47.8558 49.8449 47.491 47.9249C47.491 47.9249 49.0558 47.9081 50.0854 48.5393C50.0854 48.5393 51.5878 51.0041 50.0854 57.9665L50.5222 61.2881L47.9998 62.0489L47.1718 59.6369L46.171 62.1737L41.3254 60.8105L42.6862 58.2497C42.6862 58.2497 42.2446 52.3649 40.915 49.6745C40.9246 49.6793 41.1358 47.7161 43.6102 47.7425Z" fill="#263238"/>
    <path d="M49.1518 51.299L47.3686 52.499L47.683 53.6294C46.4326 51.6686 44.0182 51.299 44.0182 51.299L44.7742 50.2742H42.9046C42.8638 48.971 43.7902 47.6006 43.7902 47.6006L44.119 47.543C44.3278 47.9774 45.367 49.6838 47.1406 51.827C47.1406 51.827 47.8606 48.9302 46.7806 47.7158C47.333 47.8969 47.8423 48.1893 48.2774 48.5748C48.7124 48.9603 49.0639 49.4308 49.3102 49.9574L48.175 50.3078L49.1518 51.299Z" fill="#263238"/>
    <path opacity="0.2" d="M49.1518 51.299L47.3686 52.499L47.683 53.6294C46.4326 51.6686 44.0182 51.299 44.0182 51.299L44.7742 50.2742H42.9046C42.8638 48.971 43.7902 47.6006 43.7902 47.6006L44.119 47.543C44.3278 47.9774 45.367 49.6838 47.1406 51.827C47.1406 51.827 47.8606 48.9302 46.7806 47.7158C47.333 47.8969 47.8423 48.1893 48.2774 48.5748C48.7124 48.9603 49.0639 49.4308 49.3102 49.9574L48.175 50.3078L49.1518 51.299Z" fill="white"/>
    <path d="M43.8761 44.0879C44.1689 45.1727 44.5289 47.1575 43.8233 47.8799C43.8233 47.8799 43.3193 48.8399 46.1801 48.7463C46.4201 49.3415 46.9121 50.4263 46.9121 50.4263C46.9121 50.4263 46.9481 49.1423 46.7489 48.7079C48.5897 48.5495 47.1929 47.8727 47.1929 47.8727C45.9641 47.5847 45.9281 46.6871 46.0745 45.8471L43.8761 44.0879Z" fill="#FFB573"/>
    <path opacity="0.2" d="M44.7713 44.8066L46.0745 45.8506C46.0368 46.0477 46.0168 46.2477 46.0145 46.4482C45.5489 46.3834 44.8769 45.8746 44.7905 45.3922C44.7493 45.1997 44.7428 45.0014 44.7713 44.8066Z" fill="black"/>
    <path d="M42.9597 41.9108C43.2885 43.6628 43.3917 44.4068 44.3997 45.2468C45.9021 46.5092 47.9661 45.842 48.1629 44.0468C48.3405 42.4412 47.7717 39.8492 45.9693 39.2708C45.5848 39.1307 45.1696 39.0965 44.7672 39.1719C44.3649 39.2473 43.9903 39.4295 43.6826 39.6994C43.3749 39.9693 43.1454 40.317 43.0182 40.7061C42.8911 41.0952 42.8709 41.5113 42.9597 41.9108Z" fill="#FFB573"/>
    <path d="M44.4549 40.6487C43.4949 41.8943 45.4725 43.3271 43.4949 43.2431C41.5173 43.1591 42.3165 40.3631 43.4949 39.7223C44.6733 39.0815 44.4549 40.6487 44.4549 40.6487Z" fill="#263238"/>
    <path d="M43.4951 39.743C43.7351 40.943 43.9367 41.2478 44.9975 40.9238C44.8392 40.6837 44.7688 40.3962 44.7983 40.1102C44.9055 40.3973 45.1184 40.6326 45.3935 40.7678C45.6777 40.6446 45.9747 40.5537 46.2791 40.4966C46.2222 40.3309 46.2041 40.1543 46.2263 39.9806C46.3118 40.1753 46.4508 40.3417 46.6271 40.4606C46.9541 40.4639 47.2784 40.5207 47.5871 40.6286C47.5799 39.3782 45.4487 38.0222 43.4951 39.743Z" fill="#263238"/>
    <path d="M45.7221 42.203C45.7437 42.3518 45.8373 42.4646 45.9333 42.4574C46.0293 42.4502 46.0869 42.3254 46.0653 42.1766C46.0437 42.0278 45.9501 41.915 45.8565 41.9222C45.7629 41.9294 45.7005 42.0542 45.7221 42.203Z" fill="#263238"/>
    <path d="M47.5191 42.0975C47.5407 42.2463 47.6343 42.3591 47.7303 42.3519C47.8263 42.3447 47.8839 42.2199 47.8623 42.0711C47.8407 41.9223 47.7471 41.8095 47.6535 41.8167C47.5599 41.8239 47.4879 41.9487 47.5191 42.0975Z" fill="#263238"/>
    <path d="M47.6035 41.8288L47.9371 41.6992C47.9371 41.6992 47.7979 41.9992 47.6035 41.8288Z" fill="#263238"/>
    <path d="M47.04 42.375C47.2178 42.7041 47.4372 43.009 47.6928 43.2822C47.6252 43.3419 47.545 43.3854 47.4581 43.4095C47.3712 43.4337 47.2799 43.4377 47.1912 43.4214L47.04 42.375Z" fill="#ED893E"/>
    <path d="M46.4416 44.029C46.5214 44.0359 46.6017 44.0359 46.6816 44.029C46.6926 44.0272 46.7025 44.0212 46.7093 44.0123C46.716 44.0033 46.719 43.9921 46.7176 43.981C46.7153 43.9694 46.709 43.9589 46.6998 43.9514C46.6906 43.944 46.679 43.94 46.6672 43.9402C46.4818 43.9552 46.2955 43.928 46.1222 43.8606C45.9488 43.7933 45.793 43.6876 45.6664 43.5514C45.6579 43.5435 45.6468 43.5391 45.6352 43.5391C45.6236 43.5391 45.6124 43.5435 45.604 43.5514C45.5998 43.5552 45.5965 43.5599 45.5943 43.565C45.592 43.5702 45.5908 43.5758 45.5908 43.5814C45.5908 43.587 45.592 43.5926 45.5943 43.5978C45.5965 43.6029 45.5998 43.6076 45.604 43.6114C45.822 43.8493 46.1204 43.9981 46.4416 44.029Z" fill="#263238"/>
    <path d="M42.7794 43.5992C42.8518 43.7531 42.9553 43.8904 43.0833 44.0023C43.2114 44.1143 43.3612 44.1985 43.5234 44.2496C43.9314 44.3576 44.109 43.892 43.9722 43.424C43.8498 43.004 43.4922 42.4424 43.0938 42.5456C42.6954 42.6488 42.5754 43.1984 42.7794 43.5992Z" fill="#FFB573"/>
    <path d="M45.2232 41.4057C45.2349 41.4062 45.2466 41.4041 45.2574 41.3995C45.2682 41.395 45.2778 41.388 45.2856 41.3793C45.3546 41.299 45.4425 41.2372 45.5414 41.1995C45.6403 41.1618 45.7471 41.1493 45.852 41.1633C45.8629 41.1654 45.8741 41.1652 45.8849 41.1627C45.8958 41.1603 45.906 41.1557 45.915 41.1492C45.924 41.1427 45.9315 41.1344 45.9372 41.1248C45.9429 41.1153 45.9466 41.1047 45.948 41.0937C45.9498 41.0705 45.9433 41.0474 45.9297 41.0285C45.9161 41.0096 45.8962 40.9961 45.8736 40.9905C45.7409 40.9716 45.6056 40.986 45.4799 41.0325C45.3541 41.079 45.242 41.1562 45.1536 41.2569C45.1377 41.2738 45.1289 41.2961 45.1289 41.3193C45.1289 41.3425 45.1377 41.3648 45.1536 41.3817C45.1626 41.3907 45.1736 41.3976 45.1856 41.4017C45.1977 41.4059 45.2105 41.4073 45.2232 41.4057Z" fill="#263238"/>
    <path d="M47.9128 41.2489C47.9237 41.2495 47.9347 41.2479 47.945 41.2442C47.9553 41.2405 47.9647 41.2348 47.9728 41.2273C47.9883 41.2112 47.997 41.1897 47.997 41.1673C47.997 41.1449 47.9883 41.1234 47.9728 41.1073C47.883 40.9987 47.7694 40.9123 47.6408 40.8549C47.5121 40.7974 47.3719 40.7705 47.2312 40.7761C47.2202 40.7776 47.2096 40.7812 47.2 40.7869C47.1905 40.7926 47.1822 40.8002 47.1757 40.8091C47.1692 40.8181 47.1646 40.8283 47.1621 40.8392C47.1597 40.85 47.1595 40.8612 47.1616 40.8721C47.1662 40.895 47.1789 40.9154 47.1975 40.9295C47.216 40.9437 47.2391 40.9506 47.2624 40.9489C47.3738 40.9462 47.4843 40.9687 47.5858 41.0148C47.6872 41.061 47.7769 41.1295 47.848 41.2153C47.8643 41.2346 47.8876 41.2467 47.9128 41.2489Z" fill="#263238"/>
    <path d="M45.8154 41.9343L46.149 41.8047C46.149 41.8047 46.0098 42.0951 45.8154 41.9343Z" fill="#263238"/>
    <path d="M53.3613 66.6643L53.6565 66.1964C53.711 66.1094 53.744 66.0107 53.7528 65.9084C53.7615 65.8062 53.7458 65.7033 53.7069 65.6083L53.3373 64.7083C53.2653 64.5297 53.1514 64.3711 53.0052 64.2458C52.859 64.1205 52.6848 64.0322 52.4973 63.9883L52.2573 63.9355C51.7149 64.6795 51.6789 65.882 51.6789 65.882L51.6309 66.2227C51.6188 66.2926 51.6207 66.3641 51.6364 66.4332C51.6521 66.5023 51.6813 66.5676 51.7224 66.6254C51.7634 66.6831 51.8155 66.7322 51.8756 66.7698C51.9356 66.8074 52.0026 66.8327 52.0725 66.8443L52.7493 66.9476C52.8677 66.9648 52.9887 66.9473 53.0974 66.897C53.2061 66.8467 53.2977 66.7659 53.3613 66.6643Z" fill="#FFB573"/>
    <path d="M49.9387 59.9041C47.4018 60.1777 44.8426 60.1729 42.3067 59.8897C42.2803 59.8861 42.2552 59.8764 42.2332 59.8613C42.2112 59.8463 42.1931 59.8263 42.1803 59.8029C42.1674 59.7796 42.1603 59.7536 42.1593 59.727C42.1583 59.7004 42.1636 59.6739 42.1747 59.6497C42.2371 59.5081 42.2971 59.3641 42.3595 59.2225C42.3723 59.1904 42.3951 59.1632 42.4245 59.1451C42.4539 59.1269 42.4883 59.1187 42.5227 59.1217C44.962 59.3857 47.4227 59.3857 49.8619 59.1217C49.9055 59.1184 49.9486 59.1324 49.9819 59.1607C50.0151 59.189 50.0359 59.2294 50.0395 59.2729C50.0539 59.4193 50.0683 59.5681 50.0851 59.7169C50.0878 59.7388 50.0862 59.761 50.0803 59.7823C50.0744 59.8035 50.0643 59.8234 50.0507 59.8408C50.0371 59.8582 50.0202 59.8727 50.001 59.8836C49.9818 59.8945 49.9606 59.9014 49.9387 59.9041Z" fill="#263238"/>
    <path d="M46.3193 47.4414C46.3193 47.4414 46.8617 48.0222 46.7489 48.7134L47.9993 48.9774C47.9354 48.5687 47.7342 48.1939 47.4288 47.9147C47.1235 47.6355 46.7322 47.4686 46.3193 47.4414Z" fill="#1E7B1D"/>
    <path d="M46.1807 48.7454C46.1807 48.7454 44.5007 47.7854 44.1359 47.2598L43.3919 47.819C43.3919 47.819 43.1519 48.6926 44.1671 49.475L46.1807 48.7454Z" fill="#1E7B1D"/>
    <path opacity="0.6" d="M46.3193 47.4414C46.3193 47.4414 46.8617 48.0222 46.7489 48.7134L47.9993 48.9774C47.9354 48.5687 47.7342 48.1939 47.4288 47.9147C47.1235 47.6355 46.7322 47.4686 46.3193 47.4414Z" fill="white"/>
    <path opacity="0.6" d="M46.1807 48.7454C46.1807 48.7454 44.5007 47.7854 44.1359 47.2598L43.3919 47.819C43.3919 47.819 43.1519 48.6926 44.1671 49.475L46.1807 48.7454Z" fill="white"/>
    <path d="M53.8104 55.5433C52.6625 55.8106 51.4996 56.0093 50.328 56.1385C49.7088 56.2081 49.0848 56.2513 48.4464 56.2657C47.778 56.2882 47.109 56.2432 46.4496 56.1313C46.046 56.0625 45.6561 55.9287 45.2952 55.7353L45.1392 55.6369L45.036 55.5673L44.8296 55.4281C44.6904 55.3345 44.5512 55.2409 44.4216 55.1377C43.8919 54.7383 43.398 54.2934 42.9456 53.8081C42.4961 53.3232 42.083 52.8058 41.7096 52.2601C41.5272 51.9841 41.352 51.7033 41.1912 51.4105C41.1072 51.2665 41.0328 51.1153 40.9512 50.9665L40.8432 50.7265C40.8048 50.6425 40.7736 50.5753 40.7304 50.4601C40.4904 49.8865 40.6704 48.9385 41.244 48.7081C41.8176 48.4777 42.5232 49.0297 42.7776 49.5553L42.8112 49.6249L42.8808 49.7761L42.972 49.9513C43.032 50.0689 43.0944 50.1913 43.1616 50.3065C43.2912 50.5465 43.44 50.7865 43.5888 51.0097C43.8848 51.4748 44.2145 51.9176 44.5752 52.3345C44.9321 52.7538 45.3196 53.1461 45.7344 53.5081C45.8328 53.6017 45.9384 53.6857 46.0464 53.7721L46.32 54.0001C46.4905 54.1004 46.6749 54.1748 46.8672 54.2209C47.3986 54.3471 47.9398 54.4274 48.4848 54.4609C49.056 54.5017 49.6464 54.5113 50.2344 54.5185C51.384 54.5185 53.7288 54.1777 53.7288 54.1777L53.8104 55.5433Z" fill="#263238"/>
    <path opacity="0.2" d="M53.8104 55.5433C52.6625 55.8106 51.4996 56.0093 50.328 56.1385C49.7088 56.2081 49.0848 56.2513 48.4464 56.2657C47.778 56.2882 47.109 56.2432 46.4496 56.1313C46.046 56.0625 45.6561 55.9287 45.2952 55.7353L45.1392 55.6369L45.036 55.5673L44.8296 55.4281C44.6904 55.3345 44.5512 55.2409 44.4216 55.1377C43.8919 54.7383 43.398 54.2934 42.9456 53.8081C42.4961 53.3232 42.083 52.8058 41.7096 52.2601C41.5272 51.9841 41.352 51.7033 41.1912 51.4105C41.1072 51.2665 41.0328 51.1153 40.9512 50.9665L40.8432 50.7265C40.8048 50.6425 40.7736 50.5753 40.7304 50.4601C40.4904 49.8865 40.6704 48.9385 41.244 48.7081C41.8176 48.4777 42.5232 49.0297 42.7776 49.5553L42.8112 49.6249L42.8808 49.7761L42.972 49.9513C43.032 50.0689 43.0944 50.1913 43.1616 50.3065C43.2912 50.5465 43.44 50.7865 43.5888 51.0097C43.8848 51.4748 44.2145 51.9176 44.5752 52.3345C44.9321 52.7538 45.3196 53.1461 45.7344 53.5081C45.8328 53.6017 45.9384 53.6857 46.0464 53.7721L46.32 54.0001C46.4905 54.1004 46.6749 54.1748 46.8672 54.2209C47.3986 54.3471 47.9398 54.4274 48.4848 54.4609C49.056 54.5017 49.6464 54.5113 50.2344 54.5185C51.384 54.5185 53.7288 54.1777 53.7288 54.1777L53.8104 55.5433Z" fill="white"/>
    <path d="M53.085 53.9888L53.217 55.736L53.9418 55.5992L53.8338 53.9648L53.085 53.9888Z" fill="#1E7B1D"/>
    <path opacity="0.7" d="M53.085 53.9888L53.217 55.736L53.9418 55.5992L53.8338 53.9648L53.085 53.9888Z" fill="white"/>
    <path d="M53.176 63.5684L51.4648 63.9452L51.7024 64.6436L53.3056 64.3052L53.176 63.5684Z" fill="#1E7B1D"/>
    <path opacity="0.7" d="M53.176 63.5684L51.4648 63.9452L51.7024 64.6436L53.3056 64.3052L53.176 63.5684Z" fill="white"/>
</svg>