<svg width="161" height="120" viewBox="0 0 161 120" fill="none" xmlns="http://www.w3.org/2000/svg">
<path d="M160.763 105.117H0.234375V105.197H160.763V105.117Z" fill="#FAFAFA"/>
<path d="M136.112 108.609H128.141V108.69H136.112V108.609Z" fill="#E0E0E0"/>
<path d="M141.162 108.566H138.469V108.647H141.162V108.566Z" fill="#E0E0E0"/>
<path d="M106.832 109.105H90.1406V109.186H106.832V109.105Z" fill="#E0E0E0"/>
<path d="M86.203 109.973H83.7148V110.053H86.203V109.973Z" fill="#E0E0E0"/>
<path d="M36.176 107.434H31.8867V107.514H36.176V107.434Z" fill="#E0E0E0"/>
<path d="M59.7119 107.434H37.957V107.514H59.7119V107.434Z" fill="#E0E0E0"/>
<path d="M41.1698 109.375H26.0352V109.455H41.1698V109.375Z" fill="#E0E0E0"/>
<path d="M76.3229 90.7949H14.33C13.8444 90.7941 13.3789 90.6006 13.0358 90.2569C12.6927 89.9132 12.5 89.4473 12.5 88.9617V1.81718C12.5042 1.33432 12.6988 0.872626 13.0414 0.532383C13.3841 0.192139 13.8471 0.000827167 14.33 0H76.3229C76.8091 0 77.2754 0.193144 77.6192 0.536942C77.963 0.880741 78.1562 1.34703 78.1562 1.83324V88.9617C78.1562 89.4479 77.963 89.9142 77.6192 90.258C77.2754 90.6018 76.8091 90.7949 76.3229 90.7949ZM14.33 0.0642117C13.8657 0.0650621 13.4206 0.250124 13.0926 0.578778C12.7645 0.907432 12.5803 1.35282 12.5803 1.81718V88.9617C12.5803 89.4261 12.7645 89.8714 13.0926 90.2001C13.4206 90.5288 13.8657 90.7138 14.33 90.7147H76.3229C76.7876 90.7138 77.233 90.5289 77.5615 90.2003C77.8901 89.8717 78.0751 89.4264 78.0759 88.9617V1.81718C78.0751 1.35253 77.8901 0.907144 77.5615 0.578582C77.233 0.25002 76.7876 0.0650603 76.3229 0.0642117H14.33Z" fill="#E0E0E0"/>
<path d="M145.775 90.7949H83.7785C83.2926 90.7941 82.8268 90.6007 82.4832 90.2571C82.1396 89.9134 81.9462 89.4476 81.9453 88.9617V1.81718C81.9504 1.33403 82.1457 0.872337 82.4888 0.532182C82.832 0.192027 83.2954 0.000818146 83.7785 0H145.775C146.257 0.00167094 146.719 0.193356 147.061 0.533509C147.403 0.873663 147.597 1.33488 147.601 1.81718V88.9617C147.601 89.4468 147.409 89.9121 147.067 90.2557C146.724 90.5993 146.26 90.7932 145.775 90.7949ZM83.7785 0.0642117C83.3139 0.0650603 82.8685 0.25002 82.5399 0.578582C82.2114 0.907144 82.0264 1.35253 82.0256 1.81718V88.9617C82.0264 89.4264 82.2114 89.8717 82.5399 90.2003C82.8685 90.5289 83.3139 90.7138 83.7785 90.7147H145.775C146.239 90.7138 146.685 90.5289 147.013 90.2003C147.342 89.8717 147.527 89.4264 147.528 88.9617V1.81718C147.527 1.35253 147.342 0.907144 147.013 0.578582C146.685 0.25002 146.239 0.0650603 145.775 0.0642117H83.7785Z" fill="#E0E0E0"/>
<path d="M109.954 105.117H121.297V84.531H109.954V105.117Z" fill="#E0E0E0"/>
<path d="M134.829 84.5273H121.297V105.114H134.829V84.5273Z" fill="#EBEBEB"/>
<g style="mix-blend-mode:multiply" opacity="0.7">
<path d="M109.955 87.2031H134.949V86.2721H109.955V87.2031Z" fill="#E0E0E0"/>
</g>
<path d="M109.328 86.6602H121.297V82.3708H109.328V86.6602Z" fill="#E0E0E0"/>
<path d="M135.455 82.375H121.297V86.6643H135.455V82.375Z" fill="#EBEBEB"/>
<path d="M62.5388 6.09766H24.3555V51.6556H62.5388V6.09766Z" fill="#E0E0E0"/>
<path d="M64.2902 6.09766H25.1758V51.6556H64.2902V6.09766Z" fill="#EBEBEB"/>
<path d="M62.5388 51.6562H24.3555V54.9021H62.5388V51.6562Z" fill="#E0E0E0"/>
<path d="M67.1964 51.6562H28.082V54.9021H67.1964V51.6562Z" fill="#EBEBEB"/>
<path d="M61.8438 49.2081V8.54297L27.6223 8.54297V49.2081H61.8438Z" fill="#F5F5F5"/>
<path d="M31.8203 49.2081L46.1748 8.54297H52.9491L38.5978 49.2081H31.8203Z" fill="#FAFAFA"/>
<path d="M28.7515 35.4143C28.7052 35.4135 28.6611 35.3945 28.6287 35.3615C28.5963 35.3285 28.5781 35.284 28.5781 35.2378V10.1343C28.5781 10.0883 28.5964 10.0442 28.6289 10.0117C28.6614 9.9792 28.7055 9.96094 28.7515 9.96094C28.7978 9.96093 28.8422 9.97909 28.8752 10.0115C28.9083 10.0439 28.9272 10.088 28.9281 10.1343V35.2378C28.9281 35.2846 28.9095 35.3295 28.8764 35.3626C28.8432 35.3957 28.7983 35.4143 28.7515 35.4143Z" fill="#EBEBEB"/>
<path d="M40.0508 49.2081L54.4052 8.54297H57.0475L42.6931 49.2081H40.0508Z" fill="#FAFAFA"/>
<path d="M61.8359 49.208V8.54297H61.5245V49.208H61.8359Z" fill="#E0E0E0"/>
<path d="M64.8619 11.6729H26.6818L26.457 9.49609H64.6371L64.8619 11.6729Z" fill="#E0E0E0"/>
<path d="M64.8619 13.2659H26.6818L26.457 11.0859H64.6371L64.8619 13.2659Z" fill="#E0E0E0"/>
<path d="M64.8619 15.18H26.6818L26.457 13H64.6371L64.8619 15.18Z" fill="#E0E0E0"/>
<path d="M64.8619 17.3057H26.6818L26.457 15.1289H64.6371L64.8619 17.3057Z" fill="#E0E0E0"/>
<path d="M64.8619 19.8597H26.6818L26.457 17.6797H64.6371L64.8619 19.8597Z" fill="#E0E0E0"/>
<path d="M64.8619 22.7275H26.6818L26.457 20.5508H64.6371L64.8619 22.7275Z" fill="#E0E0E0"/>
<path d="M131.984 6.09766H93.8008V51.6556H131.984V6.09766Z" fill="#E0E0E0"/>
<path d="M133.732 6.09766H94.6172V51.6556H133.732V6.09766Z" fill="#EBEBEB"/>
<path d="M131.984 51.6562H93.8008V54.9021H131.984V51.6562Z" fill="#E0E0E0"/>
<path d="M136.642 51.6562H97.5273V54.9021H136.642V51.6562Z" fill="#EBEBEB"/>
<path d="M131.285 49.2081V8.54297L97.0637 8.54297V49.2081H131.285Z" fill="#F5F5F5"/>
<path d="M101.266 49.2081L115.62 8.54297H122.394L108.04 49.2081H101.266Z" fill="#FAFAFA"/>
<path d="M98.1929 35.4143C98.1466 35.4135 98.1025 35.3945 98.0701 35.3615C98.0377 35.3285 98.0195 35.284 98.0195 35.2378V10.1343C98.0195 10.0883 98.0378 10.0442 98.0703 10.0117C98.1028 9.9792 98.1469 9.96094 98.1929 9.96094C98.2389 9.96094 98.283 9.9792 98.3155 10.0117C98.348 10.0442 98.3663 10.0883 98.3663 10.1343V35.2378C98.3663 35.284 98.3481 35.3285 98.3157 35.3615C98.2833 35.3945 98.2392 35.4135 98.1929 35.4143Z" fill="#EBEBEB"/>
<path d="M109.496 49.2081L123.851 8.54297H126.49L112.138 49.2081H109.496Z" fill="#FAFAFA"/>
<path d="M131.285 49.2081V8.54297H130.974V49.2081H131.285Z" fill="#E0E0E0"/>
<path d="M134.31 11.6729H96.1303L95.9023 9.49609H134.086L134.31 11.6729Z" fill="#E0E0E0"/>
<path d="M134.31 13.2659H96.1303L95.9023 11.0859H134.086L134.31 13.2659Z" fill="#E0E0E0"/>
<path d="M134.31 15.18H96.1303L95.9023 13H134.086L134.31 15.18Z" fill="#E0E0E0"/>
<path d="M134.31 17.3057H96.1303L95.9023 15.1289H134.086L134.31 17.3057Z" fill="#E0E0E0"/>
<path d="M134.31 19.8597H96.1303L95.9023 17.6797H134.086L134.31 19.8597Z" fill="#E0E0E0"/>
<path d="M134.31 22.7275H96.1303L95.9023 20.5508H134.086L134.31 22.7275Z" fill="#E0E0E0"/>
<path d="M102.344 76.2383H94.7188V105.114H102.344V76.2383Z" fill="#E0E0E0"/>
<path d="M100.894 105.116H102.342V101.578H99.375L100.894 105.116Z" fill="#F5F5F5"/>
<path d="M28.3439 76.2383H20.7188V105.114H28.3439V76.2383Z" fill="#E0E0E0"/>
<path d="M102.34 76.2383H27.0781V103.169H102.34V76.2383Z" fill="#F5F5F5"/>
<path d="M65.1992 77.5851V96.8164H101.222V77.5851H65.1992Z" fill="#E0E0E0"/>
<path d="M28.2031 77.5851V96.8164H64.2257V77.5851H28.2031Z" fill="#E0E0E0"/>
<path d="M101.215 100.88V98.7383H65.1922V100.88H101.215Z" fill="#E0E0E0"/>
<path d="M64.2227 100.888V98.7461H28.2001V100.888H64.2227Z" fill="#E0E0E0"/>
<path d="M58.9017 78.7374H33.5382C32.975 78.7378 32.4176 78.6242 31.8995 78.4035C31.3814 78.1828 30.9133 77.8595 30.5234 77.4531H61.9292C61.5379 77.8611 61.0677 78.1853 60.5473 78.406C60.0268 78.6268 59.467 78.7395 58.9017 78.7374Z" fill="#F5F5F5"/>
<path d="M96.0306 78.7374H70.6671C70.1039 78.7378 69.5465 78.6242 69.0284 78.4035C68.5103 78.1828 68.0422 77.8595 67.6523 77.4531H99.0581C98.6675 77.862 98.1974 78.1868 97.6768 78.4076C97.1562 78.6284 96.5961 78.7406 96.0306 78.7374Z" fill="#F5F5F5"/>
<path d="M28.5293 105.116H27.0781V101.578H30.0447L28.5293 105.116Z" fill="#F5F5F5"/>
<g style="mix-blend-mode:multiply" opacity="0.4">
<path d="M82.2817 58.5078H73.793V76.2366H82.2817V58.5078Z" fill="#E0E0E0"/>
</g>
<path d="M89.4143 76.2384H75.047L73.6953 57.0938H88.0594L89.4143 76.2384Z" fill="#E0E0E0"/>
<path d="M91.0469 76.2384H75.4532L74.1016 57.0938H89.6921L91.0469 76.2384Z" fill="#F5F5F5"/>
<path d="M76.1747 75.5048L74.9258 57.8242H88.972L90.2241 75.5048H76.1747Z" fill="#FAFAFA"/>
<path d="M79.577 71.5485L78.8867 61.7852H85.5743L86.2646 71.5485H79.577Z" fill="#F5F5F5"/>
<path d="M51.3947 73.0942C53.4551 73.0942 55.1254 71.4239 55.1254 69.3635C55.1254 67.3031 53.4551 65.6328 51.3947 65.6328C49.3343 65.6328 47.6641 67.3031 47.6641 69.3635C47.6641 71.4239 49.3343 73.0942 51.3947 73.0942Z" fill="#EBEBEB"/>
<path d="M57.7854 74.8754C59.8458 74.8754 61.516 73.2051 61.516 71.1447C61.516 69.0843 59.8458 67.4141 57.7854 67.4141C55.725 67.4141 54.0547 69.0843 54.0547 71.1447C54.0547 73.2051 55.725 74.8754 57.7854 74.8754Z" fill="#EBEBEB"/>
<path d="M64.1337 71.8839C65.4043 71.3605 66.0099 69.9061 65.4865 68.6355C64.9631 67.3649 63.5087 66.7593 62.2381 67.2827C60.9675 67.8061 60.3618 69.2605 60.8853 70.5311C61.4087 71.8017 62.8631 72.4074 64.1337 71.8839Z" fill="#EBEBEB"/>
<path d="M57.5875 67.5074C57.8072 66.1509 56.8857 64.8731 55.5292 64.6534C54.1726 64.4337 52.8949 65.3553 52.6752 66.7118C52.4555 68.0683 53.377 69.3461 54.7335 69.5658C56.09 69.7855 57.3678 68.8639 57.5875 67.5074Z" fill="#EBEBEB"/>
<path d="M45.4297 70.4766C45.4297 70.4766 45.7218 76.2395 56.9171 76.2395C68.1124 76.2395 68.4045 70.4766 68.4045 70.4766H45.4297Z" fill="#E0E0E0"/>
<path d="M35.0918 74.2642C35.0918 74.2642 31.4446 67.9779 36.5044 62.9727C36.5044 62.9727 37.824 63.8331 37.7887 64.9921C37.7533 66.1511 36.3728 66.4401 36.6714 67.4065C36.97 68.3728 38.2767 69.3328 37.4259 70.1194C36.5751 70.906 37.5639 71.6251 37.5061 72.6044C37.4483 73.5836 35.0918 74.2642 35.0918 74.2642Z" fill="#E0E0E0"/>
<path d="M35.3666 74.8363C35.3666 74.8363 36.8435 67.7217 30.4641 64.5625C30.4641 64.5625 29.4816 65.7986 29.8669 66.8902C30.2522 67.9818 31.6648 67.818 31.6873 68.8165C31.7098 69.815 30.7562 71.141 31.8286 71.6258C32.9009 72.1106 32.1721 73.1026 32.5349 74.0112C32.8977 74.9198 35.3666 74.8363 35.3666 74.8363Z" fill="#E0E0E0"/>
<path d="M29.7695 71.5469C29.7695 71.5469 29.8915 76.2375 34.5404 76.2375C39.1893 76.2375 39.3113 71.5469 39.3113 71.5469H29.7695Z" fill="#EBEBEB"/>
<path d="M80.4997 119.612C114.879 119.612 142.75 117.985 142.75 115.978C142.75 113.971 114.879 112.344 80.4997 112.344C46.1202 112.344 18.25 113.971 18.25 115.978C18.25 117.985 46.1202 119.612 80.4997 119.612Z" fill="#F5F5F5"/>
<path d="M58.1709 69.8085C57.9806 69.7961 57.8021 69.7116 57.6717 69.5724C57.5413 69.4332 57.4688 69.2496 57.4688 69.0589C57.4688 68.8681 57.5413 68.6845 57.6717 68.5453C57.8021 68.406 57.9806 68.3216 58.1709 68.3092C60.0074 68.3092 61.5549 65.6797 61.5549 62.5655C61.5673 62.3751 61.6517 62.1966 61.791 62.0662C61.9302 61.9358 62.1138 61.8633 62.3045 61.8633C62.4953 61.8633 62.6789 61.9358 62.8181 62.0662C62.9573 62.1966 63.0418 62.3751 63.0542 62.5655C63.0542 66.6268 60.916 69.8085 58.1709 69.8085Z" fill="#1E7B1D"/>
<path d="M69.503 69.8085C69.3126 69.7961 69.1341 69.7116 69.0037 69.5724C68.8733 69.4332 68.8008 69.2496 68.8008 69.0589C68.8008 68.8681 68.8733 68.6845 69.0037 68.5453C69.1341 68.406 69.3126 68.3216 69.503 68.3092C71.3394 68.3092 72.8869 65.6797 72.8869 62.5655C72.8994 62.3751 72.9838 62.1966 73.123 62.0662C73.2622 61.9358 73.4458 61.8633 73.6366 61.8633C73.8273 61.8633 74.0109 61.9358 74.1502 62.0662C74.2894 62.1966 74.3738 62.3751 74.3862 62.5655C74.4023 66.6268 72.2416 69.8085 69.503 69.8085Z" fill="#1E7B1D"/>
<path d="M80.8233 69.8114C80.6329 69.799 80.4545 69.7146 80.3241 69.5753C80.1937 69.4361 80.1211 69.2525 80.1211 69.0618C80.1211 68.871 80.1937 68.6874 80.3241 68.5482C80.4545 68.409 80.6329 68.3245 80.8233 68.3121C82.6565 68.3121 84.2072 65.6826 84.2072 62.5684C84.2072 62.37 84.286 62.1797 84.4263 62.0394C84.5666 61.8991 84.7569 61.8203 84.9553 61.8203C85.1537 61.8203 85.344 61.8991 85.4842 62.0394C85.6245 62.1797 85.7034 62.37 85.7034 62.5684C85.713 66.6297 83.5715 69.8114 80.8233 69.8114Z" fill="#1E7B1D"/>
<path d="M92.1636 69.8114C92.0611 69.8181 91.9582 69.8037 91.8614 69.7691C91.7646 69.7345 91.676 69.6803 91.601 69.6101C91.5259 69.5398 91.4661 69.4549 91.4253 69.3606C91.3844 69.2662 91.3633 69.1646 91.3633 69.0618C91.3633 68.959 91.3844 68.8573 91.4253 68.763C91.4661 68.6686 91.5259 68.5837 91.601 68.5134C91.676 68.4432 91.7646 68.389 91.8614 68.3544C91.9582 68.3198 92.0611 68.3054 92.1636 68.3121C93.9969 68.3121 95.5476 65.6826 95.5476 62.5684C95.5476 62.37 95.6264 62.1797 95.7667 62.0394C95.907 61.8991 96.0972 61.8203 96.2956 61.8203C96.494 61.8203 96.6843 61.8991 96.8246 62.0394C96.9649 62.1797 97.0437 62.37 97.0437 62.5684C97.0437 66.6297 94.899 69.8114 92.1636 69.8114Z" fill="#1E7B1D"/>
<path d="M103.491 69.8085C103.301 69.7961 103.122 69.7116 102.992 69.5724C102.862 69.4332 102.789 69.2496 102.789 69.0589C102.789 68.8681 102.862 68.6845 102.992 68.5453C103.122 68.406 103.301 68.3216 103.491 68.3092C105.328 68.3092 106.875 65.6797 106.875 62.5655C106.888 62.3751 106.972 62.1966 107.111 62.0662C107.25 61.9358 107.434 61.8633 107.625 61.8633C107.816 61.8633 107.999 61.9358 108.138 62.0662C108.278 62.1966 108.362 62.3751 108.375 62.5655C108.375 66.6268 106.23 69.8085 103.491 69.8085Z" fill="#1E7B1D"/>
<path d="M114.819 69.8085C114.629 69.7961 114.451 69.7116 114.32 69.5724C114.19 69.4332 114.117 69.2496 114.117 69.0589C114.117 68.8681 114.19 68.6845 114.32 68.5453C114.451 68.406 114.629 68.3216 114.819 68.3092C116.653 68.3092 118.203 65.6797 118.203 62.5655C118.216 62.3751 118.3 62.1966 118.439 62.0662C118.579 61.9358 118.762 61.8633 118.953 61.8633C119.144 61.8633 119.327 61.9358 119.467 62.0662C119.606 62.1966 119.69 62.3751 119.703 62.5655C119.703 66.6268 117.558 69.8085 114.819 69.8085Z" fill="#1E7B1D"/>
<g opacity="0.3">
<path d="M58.1748 69.8124C57.9845 69.8 57.806 69.7156 57.6756 69.5763C57.5452 69.4371 57.4727 69.2535 57.4727 69.0628C57.4727 68.872 57.5452 68.6884 57.6756 68.5492C57.806 68.41 57.9845 68.3255 58.1748 68.3131C60.0113 68.3131 61.5588 65.6836 61.5588 62.5694C61.5712 62.379 61.6557 62.2006 61.7949 62.0702C61.9341 61.9397 62.1177 61.8672 62.3085 61.8672C62.4992 61.8672 62.6828 61.9397 62.822 62.0702C62.9613 62.2006 63.0457 62.379 63.0581 62.5694C63.0581 66.6307 60.9199 69.8124 58.1748 69.8124Z" fill="black"/>
<path d="M69.5069 69.8124C69.3165 69.8 69.1381 69.7156 69.0077 69.5763C68.8772 69.4371 68.8047 69.2535 68.8047 69.0628C68.8047 68.872 68.8772 68.6884 69.0077 68.5492C69.1381 68.41 69.3165 68.3255 69.5069 68.3131C71.3433 68.3131 72.8908 65.6836 72.8908 62.5694C72.9033 62.379 72.9877 62.2006 73.1269 62.0702C73.2661 61.9397 73.4497 61.8672 73.6405 61.8672C73.8312 61.8672 74.0148 61.9397 74.1541 62.0702C74.2933 62.2006 74.3777 62.379 74.3902 62.5694C74.4062 66.6307 72.2455 69.8124 69.5069 69.8124Z" fill="black"/>
<path d="M80.8233 69.8114C80.6329 69.799 80.4545 69.7146 80.3241 69.5753C80.1937 69.4361 80.1211 69.2525 80.1211 69.0618C80.1211 68.871 80.1937 68.6874 80.3241 68.5482C80.4545 68.409 80.6329 68.3245 80.8233 68.3121C82.6565 68.3121 84.2072 65.6826 84.2072 62.5684C84.2072 62.37 84.286 62.1797 84.4263 62.0394C84.5666 61.8991 84.7569 61.8203 84.9553 61.8203C85.1537 61.8203 85.344 61.8991 85.4842 62.0394C85.6245 62.1797 85.7034 62.37 85.7034 62.5684C85.713 66.6297 83.5715 69.8114 80.8233 69.8114Z" fill="black"/>
<path d="M92.1636 69.8114C92.0611 69.8181 91.9582 69.8037 91.8614 69.7691C91.7646 69.7345 91.676 69.6803 91.601 69.6101C91.5259 69.5398 91.4661 69.4549 91.4253 69.3606C91.3844 69.2662 91.3633 69.1646 91.3633 69.0618C91.3633 68.959 91.3844 68.8573 91.4253 68.763C91.4661 68.6686 91.5259 68.5837 91.601 68.5134C91.676 68.4432 91.7646 68.389 91.8614 68.3544C91.9582 68.3198 92.0611 68.3054 92.1636 68.3121C93.9969 68.3121 95.5476 65.6826 95.5476 62.5684C95.5476 62.37 95.6264 62.1797 95.7667 62.0394C95.907 61.8991 96.0972 61.8203 96.2956 61.8203C96.494 61.8203 96.6843 61.8991 96.8246 62.0394C96.9649 62.1797 97.0437 62.37 97.0437 62.5684C97.0437 66.6297 94.899 69.8114 92.1636 69.8114Z" fill="black"/>
<path d="M103.491 69.8124C103.301 69.8 103.122 69.7156 102.992 69.5763C102.862 69.4371 102.789 69.2535 102.789 69.0628C102.789 68.872 102.862 68.6884 102.992 68.5492C103.122 68.41 103.301 68.3255 103.491 68.3131C105.328 68.3131 106.875 65.6836 106.875 62.5694C106.888 62.379 106.972 62.2006 107.111 62.0702C107.25 61.9397 107.434 61.8672 107.625 61.8672C107.816 61.8672 107.999 61.9397 108.138 62.0702C108.278 62.2006 108.362 62.379 108.375 62.5694C108.375 66.6307 106.23 69.8124 103.491 69.8124Z" fill="black"/>
<path d="M114.819 69.8124C114.629 69.8 114.451 69.7156 114.32 69.5763C114.19 69.4371 114.117 69.2535 114.117 69.0628C114.117 68.872 114.19 68.6884 114.32 68.5492C114.451 68.41 114.629 68.3255 114.819 68.3131C116.653 68.3131 118.203 65.6836 118.203 62.5694C118.216 62.379 118.3 62.2006 118.439 62.0702C118.579 61.9397 118.762 61.8672 118.953 61.8672C119.144 61.8672 119.327 61.9397 119.467 62.0702C119.606 62.2006 119.69 62.379 119.703 62.5694C119.703 66.6307 117.558 69.8124 114.819 69.8124Z" fill="black"/>
</g>
<path d="M51.075 63.3324H124.013C124.991 63.352 125.928 63.7278 126.648 64.3892C127.369 65.0507 127.823 65.9524 127.926 66.9251L131.965 112.461C132.014 112.917 131.966 113.38 131.823 113.816C131.68 114.253 131.446 114.655 131.137 114.994C130.827 115.334 130.449 115.604 130.027 115.786C129.606 115.969 129.15 116.06 128.691 116.053H55.7496C54.7721 116.032 53.8357 115.656 53.1154 114.995C52.3951 114.334 51.9403 113.433 51.8359 112.461L47.8002 66.9251C47.7506 66.4681 47.7986 66.0057 47.9412 65.5687C48.0839 65.1317 48.3178 64.73 48.6274 64.3903C48.9371 64.0505 49.3155 63.7805 49.7375 63.5981C50.1594 63.4158 50.6154 63.3252 51.075 63.3324Z" fill="#1E7B1D"/>
<path opacity="0.4" d="M51.075 63.3324H124.013C124.991 63.352 125.928 63.7278 126.648 64.3892C127.369 65.0507 127.823 65.9524 127.926 66.9251L131.965 112.461C132.014 112.917 131.966 113.38 131.823 113.816C131.68 114.253 131.446 114.655 131.137 114.994C130.827 115.334 130.449 115.604 130.027 115.786C129.606 115.969 129.15 116.06 128.691 116.053H55.7496C54.7721 116.032 53.8357 115.656 53.1154 114.995C52.3951 114.334 51.9403 113.433 51.8359 112.461L47.8002 66.9251C47.7506 66.4681 47.7986 66.0057 47.9412 65.5687C48.0839 65.1317 48.3178 64.73 48.6274 64.3903C48.9371 64.0505 49.3155 63.7805 49.7375 63.5981C50.1594 63.4158 50.6154 63.3252 51.075 63.3324Z" fill="#FAFAFA"/>
<path d="M123.405 63.336H50.4643C49.4995 63.3475 48.5751 63.7248 47.8778 64.3917C47.1805 65.0586 46.7624 65.9653 46.7079 66.9286L44.6532 112.464C44.6287 112.928 44.6992 113.392 44.8603 113.828C45.0214 114.263 45.2698 114.662 45.5902 114.998C45.9106 115.334 46.2963 115.602 46.7237 115.784C47.1511 115.966 47.6111 116.059 48.0756 116.057H121.023C121.988 116.045 122.912 115.668 123.61 115.001C124.307 114.334 124.725 113.427 124.779 112.464L126.837 66.9286C126.861 66.464 126.79 65.9994 126.628 65.5633C126.467 65.1272 126.217 64.7287 125.896 64.3923C125.575 64.0559 125.188 63.7887 124.76 63.6071C124.331 63.4254 123.87 63.3332 123.405 63.336Z" fill="#1E7B1D"/>
<path opacity="0.2" d="M123.405 63.336H50.4643C49.4995 63.3475 48.5751 63.7248 47.8778 64.3917C47.1805 65.0586 46.7624 65.9653 46.7079 66.9286L44.6532 112.464C44.6287 112.928 44.6992 113.392 44.8603 113.828C45.0214 114.263 45.2698 114.662 45.5902 114.998C45.9106 115.334 46.2963 115.602 46.7237 115.784C47.1511 115.966 47.6111 116.059 48.0756 116.057H121.023C121.988 116.045 122.912 115.668 123.61 115.001C124.307 114.334 124.725 113.427 124.779 112.464L126.837 66.9286C126.861 66.464 126.79 65.9994 126.628 65.5633C126.467 65.1272 126.217 64.7287 125.896 64.3923C125.575 64.0559 125.188 63.7887 124.76 63.6071C124.331 63.4254 123.87 63.3332 123.405 63.336Z" fill="#FAFAFA"/>
<path d="M51.8025 104.019L53.5009 66.4132C53.5213 66.0443 53.6813 65.697 53.9484 65.4418C54.2156 65.1866 54.5698 65.0426 54.9393 65.0391H118.775C118.953 65.038 119.129 65.0732 119.293 65.1427C119.457 65.2121 119.605 65.3143 119.728 65.443C119.851 65.5717 119.946 65.7241 120.008 65.8909C120.07 66.0578 120.097 66.2355 120.088 66.4132L118.387 104.019C118.366 104.388 118.206 104.735 117.939 104.99C117.672 105.245 117.318 105.389 116.948 105.393H53.1156C52.9377 105.394 52.7614 105.359 52.5975 105.289C52.4337 105.22 52.2857 105.118 52.1628 104.989C52.0398 104.86 51.9444 104.708 51.8825 104.541C51.8206 104.374 51.7933 104.196 51.8025 104.019Z" fill="#1E7B1D"/>
<path opacity="0.1" d="M51.8025 104.019L53.5009 66.4132C53.5213 66.0443 53.6813 65.697 53.9484 65.4418C54.2156 65.1866 54.5698 65.0426 54.9393 65.0391H118.775C118.953 65.038 119.129 65.0732 119.293 65.1427C119.457 65.2121 119.605 65.3143 119.728 65.443C119.851 65.5717 119.946 65.7241 120.008 65.8909C120.07 66.0578 120.097 66.2355 120.088 66.4132L118.387 104.019C118.366 104.388 118.206 104.735 117.939 104.99C117.672 105.245 117.318 105.389 116.948 105.393H53.1156C52.9377 105.394 52.7614 105.359 52.5975 105.289C52.4337 105.22 52.2857 105.118 52.1628 104.989C52.0398 104.86 51.9444 104.708 51.8825 104.541C51.8206 104.374 51.7933 104.196 51.8025 104.019Z" fill="#FAFAFA"/>
<path opacity="0.1" d="M50.0024 107.088L51.7842 67.5978C51.8047 67.2105 51.9723 66.8456 52.2527 66.5777C52.5332 66.3098 52.9053 66.159 53.2932 66.1563H120.33C120.517 66.1547 120.702 66.1914 120.874 66.2641C121.046 66.3368 121.201 66.444 121.33 66.5791C121.459 66.7142 121.559 66.8743 121.624 67.0495C121.689 67.2247 121.717 67.4113 121.707 67.5978L119.922 107.088C119.902 107.475 119.735 107.84 119.455 108.108C119.175 108.376 118.804 108.528 118.416 108.533H51.3733C51.1866 108.534 51.0016 108.497 50.8299 108.424C50.6581 108.35 50.5032 108.243 50.3747 108.107C50.2462 107.972 50.1468 107.812 50.0828 107.636C50.0188 107.461 49.9914 107.274 50.0024 107.088Z" fill="black"/>
<path d="M48.346 110.276L50.2049 69.0839C50.2299 68.6812 50.4056 68.3026 50.6972 68.0235C50.9887 67.7445 51.3746 67.5855 51.7781 67.5782H121.708C121.903 67.5766 122.096 67.615 122.276 67.6909C122.455 67.7669 122.618 67.8789 122.752 68.02C122.887 68.1611 122.992 68.3282 123.059 68.5112C123.127 68.6942 123.156 68.8891 123.146 69.0839L121.277 110.276C121.252 110.678 121.077 111.057 120.785 111.336C120.494 111.615 120.108 111.774 119.704 111.781H49.7844C49.5891 111.783 49.3956 111.745 49.2156 111.67C49.0357 111.594 48.8733 111.482 48.7385 111.341C48.6036 111.199 48.4992 111.032 48.4317 110.849C48.3642 110.666 48.335 110.47 48.346 110.276Z" fill="#FAFAFA"/>
<path d="M114.813 70.0466C114.681 70.0469 114.551 70.0202 114.43 69.9682C114.309 69.9162 114.2 69.8401 114.11 69.7444C114.02 69.6488 113.95 69.5356 113.905 69.412C113.861 69.2884 113.842 69.1569 113.849 69.0257C113.862 68.7681 113.972 68.5249 114.157 68.3459C114.343 68.1669 114.59 68.0655 114.848 68.0625C114.979 68.0623 115.11 68.089 115.23 68.1409C115.351 68.1929 115.46 68.2691 115.55 68.3647C115.64 68.4604 115.71 68.5735 115.755 68.6971C115.8 68.8207 115.819 68.9522 115.811 69.0835C115.799 69.341 115.689 69.5842 115.503 69.7632C115.317 69.9423 115.07 70.0436 114.813 70.0466Z" fill="#1E7B1D"/>
<path d="M103.481 70.0466C103.349 70.0469 103.219 70.0202 103.098 69.9682C102.977 69.9162 102.868 69.8401 102.778 69.7444C102.688 69.6488 102.618 69.5356 102.573 69.412C102.529 69.2884 102.509 69.1569 102.517 69.0257C102.53 68.7681 102.64 68.5249 102.825 68.3459C103.011 68.1669 103.258 68.0655 103.516 68.0625C103.647 68.0623 103.778 68.089 103.898 68.1409C104.019 68.1929 104.128 68.2691 104.218 68.3647C104.308 68.4604 104.378 68.5735 104.423 68.6971C104.468 68.8207 104.487 68.9522 104.479 69.0835C104.468 69.3413 104.358 69.5849 104.172 69.7641C103.986 69.9433 103.739 70.0444 103.481 70.0466Z" fill="#1E7B1D"/>
<path d="M92.1524 70.0466C92.0209 70.0469 91.8908 70.0202 91.77 69.9682C91.6492 69.9162 91.5403 69.8401 91.4501 69.7444C91.3598 69.6488 91.2901 69.5356 91.2453 69.412C91.2004 69.2884 91.1813 69.1569 91.1892 69.0257C91.2023 68.7684 91.3127 68.5256 91.4981 68.3467C91.6836 68.1679 91.9301 68.0662 92.1877 68.0625C92.3192 68.0623 92.4494 68.089 92.5702 68.1409C92.691 68.1929 92.7998 68.2691 92.8901 68.3647C92.9803 68.4604 93.05 68.5735 93.0949 68.6971C93.1397 68.8207 93.1588 68.9522 93.1509 69.0835C93.1394 69.3413 93.0294 69.5849 92.8437 69.7641C92.6579 69.9433 92.4105 70.0444 92.1524 70.0466Z" fill="#1E7B1D"/>
<path d="M80.8243 70.0466C80.6928 70.0469 80.5626 70.0202 80.4418 69.9682C80.321 69.9162 80.2122 69.8401 80.1219 69.7444C80.0317 69.6488 79.962 69.5356 79.9171 69.412C79.8723 69.2884 79.8532 69.1569 79.8611 69.0257C79.8749 68.7681 79.986 68.5253 80.172 68.3465C80.3579 68.1677 80.6049 68.0662 80.8628 68.0625C80.9943 68.0623 81.1245 68.089 81.2453 68.1409C81.366 68.1929 81.4749 68.2691 81.5651 68.3647C81.6554 68.4604 81.7251 68.5735 81.7699 68.6971C81.8148 68.8207 81.8339 68.9522 81.826 69.0835C81.8144 69.3419 81.704 69.5859 81.5176 69.7652C81.3312 69.9445 81.0829 70.0452 80.8243 70.0466Z" fill="#1E7B1D"/>
<path d="M69.4923 70.0466C69.3608 70.0469 69.2306 70.0202 69.1098 69.9682C68.989 69.9162 68.8801 69.8401 68.7899 69.7444C68.6997 69.6488 68.63 69.5356 68.5851 69.412C68.5403 69.2884 68.5212 69.1569 68.5291 69.0257C68.5413 68.7681 68.6515 68.5249 68.8371 68.3459C69.0227 68.1669 69.2697 68.0655 69.5276 68.0625C69.6591 68.0623 69.7892 68.089 69.91 68.1409C70.0308 68.1929 70.1397 68.2691 70.2299 68.3647C70.3201 68.4604 70.3898 68.5735 70.4347 68.6971C70.4796 68.8207 70.4986 68.9522 70.4907 69.0835C70.4785 69.341 70.3683 69.5842 70.1827 69.7632C69.9971 69.9423 69.7501 70.0436 69.4923 70.0466Z" fill="#1E7B1D"/>
<path d="M58.1641 70.0466C58.0326 70.0469 57.9025 70.0202 57.7817 69.9682C57.6609 69.9162 57.552 69.8401 57.4618 69.7444C57.3715 69.6488 57.3019 69.5356 57.257 69.412C57.2121 69.2884 57.1931 69.1569 57.201 69.0257C57.2132 68.7681 57.3234 68.5249 57.509 68.3459C57.6946 68.1669 57.9416 68.0655 58.1994 68.0625C58.3309 68.0623 58.4611 68.089 58.5819 68.1409C58.7027 68.1929 58.8115 68.2691 58.9018 68.3647C58.992 68.4604 59.0617 68.5735 59.1066 68.6971C59.1514 68.8207 59.1705 68.9522 59.1626 69.0835C59.1511 69.3413 59.0412 69.5849 58.8554 69.7641C58.6696 69.9433 58.4222 70.0444 58.1641 70.0466Z" fill="#1E7B1D"/>
<g opacity="0.1">
<path d="M114.809 70.0466C114.677 70.0469 114.547 70.0202 114.426 69.9682C114.305 69.9162 114.197 69.8401 114.106 69.7444C114.016 69.6488 113.946 69.5356 113.902 69.412C113.857 69.2884 113.838 69.1569 113.845 69.0257C113.858 68.7681 113.968 68.5249 114.154 68.3459C114.339 68.1669 114.586 68.0655 114.844 68.0625C114.975 68.0623 115.106 68.089 115.226 68.1409C115.347 68.1929 115.456 68.2691 115.546 68.3647C115.637 68.4604 115.706 68.5735 115.751 68.6971C115.796 68.8207 115.815 68.9522 115.807 69.0835C115.795 69.341 115.685 69.5842 115.499 69.7632C115.313 69.9423 115.067 70.0436 114.809 70.0466Z" fill="#FAFAFA"/>
<path d="M103.481 70.0466C103.349 70.0469 103.219 70.0202 103.098 69.9682C102.977 69.9162 102.868 69.8401 102.778 69.7444C102.688 69.6488 102.618 69.5356 102.573 69.412C102.529 69.2884 102.509 69.1569 102.517 69.0257C102.53 68.7681 102.64 68.5249 102.825 68.3459C103.011 68.1669 103.258 68.0655 103.516 68.0625C103.647 68.0623 103.778 68.089 103.898 68.1409C104.019 68.1929 104.128 68.2691 104.218 68.3647C104.308 68.4604 104.378 68.5735 104.423 68.6971C104.468 68.8207 104.487 68.9522 104.479 69.0835C104.468 69.3413 104.358 69.5849 104.172 69.7641C103.986 69.9433 103.739 70.0444 103.481 70.0466Z" fill="#FAFAFA"/>
<path d="M92.1524 70.0466C92.0209 70.0469 91.8908 70.0202 91.77 69.9682C91.6492 69.9162 91.5403 69.8401 91.4501 69.7444C91.3598 69.6488 91.2901 69.5356 91.2453 69.412C91.2004 69.2884 91.1813 69.1569 91.1892 69.0257C91.2023 68.7684 91.3127 68.5256 91.4981 68.3467C91.6836 68.1679 91.9301 68.0662 92.1877 68.0625C92.3192 68.0623 92.4494 68.089 92.5702 68.1409C92.691 68.1929 92.7998 68.2691 92.8901 68.3647C92.9803 68.4604 93.05 68.5735 93.0949 68.6971C93.1397 68.8207 93.1588 68.9522 93.1509 69.0835C93.1394 69.3413 93.0294 69.5849 92.8437 69.7641C92.6579 69.9433 92.4105 70.0444 92.1524 70.0466Z" fill="#FAFAFA"/>
<path d="M80.8243 70.0466C80.6928 70.0469 80.5626 70.0202 80.4418 69.9682C80.321 69.9162 80.2122 69.8401 80.1219 69.7444C80.0317 69.6488 79.962 69.5356 79.9171 69.412C79.8723 69.2884 79.8532 69.1569 79.8611 69.0257C79.8749 68.7681 79.986 68.5253 80.172 68.3465C80.3579 68.1677 80.6049 68.0662 80.8628 68.0625C80.9943 68.0623 81.1245 68.089 81.2453 68.1409C81.366 68.1929 81.4749 68.2691 81.5651 68.3647C81.6554 68.4604 81.7251 68.5735 81.7699 68.6971C81.8148 68.8207 81.8339 68.9522 81.826 69.0835C81.8144 69.3419 81.704 69.5859 81.5176 69.7652C81.3312 69.9445 81.0829 70.0452 80.8243 70.0466Z" fill="#FAFAFA"/>
<path d="M69.4962 70.0466C69.3647 70.0469 69.2345 70.0202 69.1137 69.9682C68.9929 69.9162 68.8841 69.8401 68.7938 69.7444C68.7036 69.6488 68.6339 69.5356 68.589 69.412C68.5442 69.2884 68.5251 69.1569 68.533 69.0257C68.5452 68.7681 68.6554 68.5249 68.841 68.3459C69.0266 68.1669 69.2736 68.0655 69.5315 68.0625C69.663 68.0623 69.7931 68.089 69.9139 68.1409C70.0347 68.1929 70.1436 68.2691 70.2338 68.3647C70.324 68.4604 70.3937 68.5735 70.4386 68.6971C70.4835 68.8207 70.5025 68.9522 70.4946 69.0835C70.4824 69.341 70.3722 69.5842 70.1866 69.7632C70.001 69.9423 69.754 70.0436 69.4962 70.0466Z" fill="#FAFAFA"/>
<path d="M58.1641 70.0466C58.0326 70.0469 57.9025 70.0202 57.7817 69.9682C57.6609 69.9162 57.552 69.8401 57.4618 69.7444C57.3715 69.6488 57.3019 69.5356 57.257 69.412C57.2121 69.2884 57.1931 69.1569 57.201 69.0257C57.2132 68.7681 57.3234 68.5249 57.509 68.3459C57.6946 68.1669 57.9416 68.0655 58.1994 68.0625C58.3309 68.0623 58.4611 68.089 58.5819 68.1409C58.7027 68.1929 58.8115 68.2691 58.9018 68.3647C58.992 68.4604 59.0617 68.5735 59.1066 68.6971C59.1514 68.8207 59.1705 68.9522 59.1626 69.0835C59.1511 69.3413 59.0412 69.5849 58.8554 69.7641C58.6696 69.9433 58.4222 70.0444 58.1641 70.0466Z" fill="#FAFAFA"/>
</g>
<path d="M60.9962 73.6358H55.2974C55.2148 73.6365 55.1329 73.62 55.057 73.5874C54.9811 73.5549 54.9127 73.5069 54.8563 73.4465C54.7999 73.3862 54.7566 73.3148 54.7291 73.2368C54.7017 73.1589 54.6908 73.0761 54.697 72.9937C54.7034 72.8254 54.7731 72.6658 54.8921 72.5467C55.0112 72.4276 55.1709 72.3579 55.3391 72.3516H61.0379C61.1205 72.3509 61.2024 72.3674 61.2783 72.4C61.3542 72.4325 61.4226 72.4805 61.479 72.5409C61.5354 72.6012 61.5787 72.6726 61.6061 72.7506C61.6335 72.8285 61.6445 72.9113 61.6383 72.9937C61.6319 73.162 61.5622 73.3216 61.4431 73.4407C61.3241 73.5598 61.1644 73.6295 60.9962 73.6358Z" fill="#1E7B1D"/>
<path d="M72.3243 73.6358H66.6255C66.5429 73.6365 66.461 73.62 66.3851 73.5874C66.3092 73.5549 66.2408 73.5069 66.1844 73.4465C66.128 73.3862 66.0847 73.3148 66.0573 73.2368C66.0299 73.1589 66.0189 73.0761 66.0251 72.9937C66.0317 72.8227 66.1036 72.6608 66.2261 72.5413C66.3486 72.4218 66.5122 72.3539 66.6833 72.3516H72.3788C72.4616 72.3509 72.5436 72.3674 72.6197 72.4C72.6958 72.4325 72.7643 72.4804 72.821 72.5407C72.8776 72.601 72.9212 72.6724 72.949 72.7503C72.9768 72.8283 72.9882 72.9111 72.9824 72.9937C72.9759 73.1647 72.9039 73.3266 72.7815 73.4461C72.659 73.5656 72.4953 73.6335 72.3243 73.6358Z" fill="#1E7B1D"/>
<path d="M83.6554 73.6358H77.9566C77.8739 73.6365 77.7919 73.62 77.7158 73.5874C77.6397 73.5549 77.5712 73.507 77.5145 73.4467C77.4578 73.3864 77.4142 73.315 77.3864 73.2371C77.3586 73.1591 77.3473 73.0762 77.353 72.9937C77.3596 72.8227 77.4315 72.6608 77.554 72.5413C77.6764 72.4218 77.8401 72.3539 78.0112 72.3516H83.7132C83.7958 72.3509 83.8776 72.3674 83.9536 72.4C84.0295 72.4325 84.0978 72.4805 84.1543 72.5409C84.2107 72.6012 84.254 72.6726 84.2814 72.7506C84.3088 72.8285 84.3198 72.9113 84.3135 72.9937C84.3077 73.1649 84.2361 73.3273 84.1134 73.447C83.9908 73.5666 83.8267 73.6343 83.6554 73.6358Z" fill="#1E7B1D"/>
<path d="M94.9844 73.6358H89.2857C89.203 73.6365 89.1212 73.62 89.0453 73.5874C88.9693 73.5549 88.901 73.5069 88.8446 73.4465C88.7881 73.3862 88.7448 73.3148 88.7174 73.2368C88.69 73.1589 88.6791 73.0761 88.6853 72.9937C88.6916 72.8254 88.7613 72.6658 88.8804 72.5467C88.9995 72.4276 89.1591 72.3579 89.3274 72.3516H95.0262C95.1088 72.3509 95.1906 72.3674 95.2666 72.4C95.3425 72.4325 95.4108 72.4805 95.4673 72.5409C95.5237 72.6012 95.567 72.6726 95.5944 72.7506C95.6218 72.8285 95.6328 72.9113 95.6265 72.9937C95.6202 73.162 95.5505 73.3216 95.4314 73.4407C95.3124 73.5598 95.1527 73.6295 94.9844 73.6358Z" fill="#1E7B1D"/>
<path d="M106.313 73.6358H100.614C100.531 73.6365 100.449 73.62 100.373 73.5874C100.297 73.5549 100.229 73.5069 100.173 73.4465C100.116 73.3862 100.073 73.3148 100.046 73.2368C100.018 73.1589 100.007 73.0761 100.013 72.9937C100.02 72.8227 100.092 72.6608 100.214 72.5413C100.337 72.4218 100.501 72.3539 100.672 72.3516H106.37C106.453 72.3509 106.535 72.3674 106.611 72.4C106.687 72.4325 106.755 72.4805 106.811 72.5409C106.868 72.6012 106.911 72.6726 106.939 72.7506C106.966 72.8285 106.977 72.9113 106.971 72.9937C106.964 73.1647 106.892 73.3266 106.77 73.4461C106.647 73.5656 106.484 73.6335 106.313 73.6358Z" fill="#1E7B1D"/>
<path d="M117.641 73.6358H111.942C111.859 73.6365 111.777 73.62 111.702 73.5874C111.626 73.5549 111.557 73.5069 111.501 73.4465C111.444 73.3862 111.401 73.3148 111.374 73.2368C111.346 73.1589 111.335 73.0761 111.342 72.9937C111.348 72.8227 111.42 72.6608 111.543 72.5413C111.665 72.4218 111.829 72.3539 112 72.3516H117.695C117.778 72.3509 117.86 72.3674 117.936 72.4C118.012 72.4325 118.081 72.4804 118.137 72.5407C118.194 72.601 118.238 72.6724 118.265 72.7503C118.293 72.8283 118.305 72.9111 118.299 72.9937C118.292 73.1647 118.22 73.3266 118.098 73.4461C117.975 73.5656 117.812 73.6335 117.641 73.6358Z" fill="#1E7B1D"/>
<g opacity="0.3">
<path d="M60.9962 73.6358H55.2974C55.2148 73.6365 55.1329 73.62 55.057 73.5874C54.9811 73.5549 54.9127 73.5069 54.8563 73.4465C54.7999 73.3862 54.7566 73.3148 54.7291 73.2368C54.7017 73.1589 54.6908 73.0761 54.697 72.9937C54.7034 72.8254 54.7731 72.6658 54.8921 72.5467C55.0112 72.4276 55.1709 72.3579 55.3391 72.3516H61.0379C61.1205 72.3509 61.2024 72.3674 61.2783 72.4C61.3542 72.4325 61.4226 72.4805 61.479 72.5409C61.5354 72.6012 61.5787 72.6726 61.6061 72.7506C61.6335 72.8285 61.6445 72.9113 61.6383 72.9937C61.6319 73.162 61.5622 73.3216 61.4431 73.4407C61.3241 73.5598 61.1644 73.6295 60.9962 73.6358Z" fill="black"/>
<path d="M72.3282 73.6358H66.6294C66.5468 73.6365 66.4649 73.62 66.389 73.5874C66.3131 73.5549 66.2447 73.5069 66.1883 73.4465C66.1319 73.3862 66.0886 73.3148 66.0612 73.2368C66.0338 73.1589 66.0228 73.0761 66.029 72.9937C66.0356 72.8227 66.1075 72.6608 66.23 72.5413C66.3525 72.4218 66.5161 72.3539 66.6872 72.3516H72.3828C72.4655 72.3509 72.5475 72.3674 72.6236 72.4C72.6997 72.4325 72.7682 72.4804 72.8249 72.5407C72.8815 72.601 72.9252 72.6724 72.9529 72.7503C72.9807 72.8283 72.9921 72.9111 72.9863 72.9937C72.9798 73.1647 72.9078 73.3266 72.7854 73.4461C72.6629 73.5656 72.4993 73.6335 72.3282 73.6358Z" fill="black"/>
<path d="M83.6554 73.6358H77.9566C77.8739 73.6365 77.7919 73.62 77.7158 73.5874C77.6397 73.5549 77.5712 73.507 77.5145 73.4467C77.4578 73.3864 77.4142 73.315 77.3864 73.2371C77.3586 73.1591 77.3473 73.0762 77.353 72.9937C77.3596 72.8227 77.4315 72.6608 77.554 72.5413C77.6764 72.4218 77.8401 72.3539 78.0112 72.3516H83.7132C83.7958 72.3509 83.8776 72.3674 83.9536 72.4C84.0295 72.4325 84.0978 72.4805 84.1543 72.5409C84.2107 72.6012 84.254 72.6726 84.2814 72.7506C84.3088 72.8285 84.3198 72.9113 84.3135 72.9937C84.3077 73.1649 84.2361 73.3273 84.1134 73.447C83.9908 73.5666 83.8267 73.6343 83.6554 73.6358Z" fill="black"/>
<path d="M94.9844 73.6358H89.2857C89.203 73.6365 89.1212 73.62 89.0453 73.5874C88.9693 73.5549 88.901 73.5069 88.8446 73.4465C88.7881 73.3862 88.7448 73.3148 88.7174 73.2368C88.69 73.1589 88.6791 73.0761 88.6853 72.9937C88.6916 72.8254 88.7613 72.6658 88.8804 72.5467C88.9995 72.4276 89.1591 72.3579 89.3274 72.3516H95.0262C95.1088 72.3509 95.1906 72.3674 95.2666 72.4C95.3425 72.4325 95.4108 72.4805 95.4673 72.5409C95.5237 72.6012 95.567 72.6726 95.5944 72.7506C95.6218 72.8285 95.6328 72.9113 95.6265 72.9937C95.6202 73.162 95.5505 73.3216 95.4314 73.4407C95.3124 73.5598 95.1527 73.6295 94.9844 73.6358Z" fill="black"/>
<path d="M106.313 73.6358H100.614C100.531 73.6365 100.449 73.62 100.373 73.5874C100.297 73.5549 100.229 73.5069 100.173 73.4465C100.116 73.3862 100.073 73.3148 100.046 73.2368C100.018 73.1589 100.007 73.0761 100.013 72.9937C100.02 72.8227 100.092 72.6608 100.214 72.5413C100.337 72.4218 100.501 72.3539 100.672 72.3516H106.37C106.453 72.3509 106.535 72.3674 106.611 72.4C106.687 72.4325 106.755 72.4805 106.811 72.5409C106.868 72.6012 106.911 72.6726 106.939 72.7506C106.966 72.8285 106.977 72.9113 106.971 72.9937C106.964 73.1647 106.892 73.3266 106.77 73.4461C106.647 73.5656 106.484 73.6335 106.313 73.6358Z" fill="black"/>
<path d="M117.641 73.6358H111.942C111.859 73.6365 111.777 73.62 111.702 73.5874C111.626 73.5549 111.557 73.5069 111.501 73.4465C111.444 73.3862 111.401 73.3148 111.374 73.2368C111.346 73.1589 111.335 73.0761 111.342 72.9937C111.348 72.8227 111.42 72.6608 111.543 72.5413C111.665 72.4218 111.829 72.3539 112 72.3516H117.695C117.778 72.3509 117.86 72.3674 117.936 72.4C118.012 72.4325 118.081 72.4804 118.137 72.5407C118.194 72.601 118.238 72.6724 118.265 72.7503C118.293 72.8283 118.305 72.9111 118.299 72.9937C118.292 73.1647 118.22 73.3266 118.098 73.4461C117.975 73.5656 117.812 73.6335 117.641 73.6358Z" fill="black"/>
</g>
<path d="M61.3087 85.7602H53.8859C53.7231 85.7609 53.5619 85.7283 53.4121 85.6646C53.2623 85.6008 53.1271 85.5072 53.0147 85.3894C52.9023 85.2716 52.8151 85.1321 52.7585 84.9795C52.7018 84.8269 52.6769 84.6643 52.6851 84.5017L53.0062 77.0789C53.0257 76.7415 53.1723 76.424 53.4166 76.1904C53.6609 75.9569 53.9846 75.8246 54.3225 75.8203H61.7454C61.9082 75.8197 62.0694 75.8522 62.2192 75.916C62.369 75.9798 62.5042 76.0734 62.6166 76.1912C62.729 76.309 62.8162 76.4485 62.8728 76.6011C62.9295 76.7537 62.9544 76.9163 62.9461 77.0789L62.6251 84.5017C62.6049 84.8388 62.458 85.1559 62.2139 85.3893C61.9698 85.6227 61.6464 85.7552 61.3087 85.7602Z" fill="#1E7B1D"/>
<path d="M72.6409 85.7602H65.2181C65.0552 85.7614 64.8937 85.7291 64.7437 85.6655C64.5937 85.6019 64.4583 85.5083 64.3458 85.3904C64.2334 85.2725 64.1462 85.1328 64.0897 84.98C64.0332 84.8272 64.0086 84.6644 64.0174 84.5017L64.3384 77.0789C64.3579 76.7415 64.5045 76.424 64.7488 76.1904C64.9931 75.9569 65.3168 75.8246 65.6547 75.8203H73.0872C73.2502 75.8197 73.4115 75.8522 73.5615 75.916C73.7114 75.9797 73.8469 76.0733 73.9595 76.191C74.0721 76.3088 74.1596 76.4482 74.2166 76.6008C74.2737 76.7535 74.299 76.9161 74.2912 77.0789L73.9541 84.5017C73.9354 84.8388 73.7894 85.1563 73.5457 85.3899C73.3019 85.6235 72.9785 85.7559 72.6409 85.7602Z" fill="#1E7B1D"/>
<path d="M83.9687 85.7603H76.5491C76.3862 85.7609 76.2248 85.7283 76.0748 85.6646C75.9249 85.6009 75.7895 85.5073 75.6768 85.3896C75.5642 85.2718 75.4767 85.1324 75.4197 84.9797C75.3627 84.8271 75.3373 84.6645 75.3451 84.5017L75.6662 77.0789C75.6857 76.7415 75.8323 76.424 76.0766 76.1905C76.3209 75.9569 76.6446 75.8247 76.9825 75.8203H84.4022C84.5651 75.8192 84.7265 75.8515 84.8765 75.9151C85.0266 75.9787 85.162 76.0723 85.2744 76.1902C85.3869 76.3081 85.4741 76.4477 85.5306 76.6006C85.5871 76.7534 85.6117 76.9162 85.6029 77.0789L85.2819 84.5017C85.2624 84.8386 85.1162 85.1556 84.8726 85.3891C84.629 85.6225 84.3061 85.7551 83.9687 85.7603Z" fill="#1E7B1D"/>
<path d="M95.2952 85.7602H87.8852C87.7221 85.7613 87.5606 85.7291 87.4104 85.6655C87.2602 85.602 87.1246 85.5084 87.0119 85.3905C86.8992 85.2727 86.8117 85.1331 86.7548 84.9802C86.698 84.8274 86.6729 84.6646 86.6812 84.5017L87.0023 77.0789C87.021 76.7417 87.167 76.4243 87.4107 76.1907C87.6545 75.957 87.9778 75.8247 88.3154 75.8203H95.7383C95.9011 75.8197 96.0623 75.8522 96.2121 75.916C96.3619 75.9798 96.4971 76.0734 96.6095 76.1912C96.7219 76.309 96.809 76.4485 96.8657 76.6011C96.9224 76.7537 96.9473 76.9163 96.939 77.0789L96.618 84.5017C96.5984 84.8402 96.4509 85.1586 96.2052 85.3923C95.9596 85.626 95.6342 85.7576 95.2952 85.7602Z" fill="#1E7B1D"/>
<path d="M106.629 85.7603H99.2062C99.0434 85.7609 98.8822 85.7284 98.7324 85.6646C98.5826 85.6008 98.4474 85.5072 98.335 85.3894C98.2226 85.2716 98.1354 85.1321 98.0788 84.9795C98.0221 84.8269 97.9972 84.6643 98.0055 84.5017L98.3265 77.0789C98.346 76.7415 98.4926 76.424 98.7369 76.1905C98.9812 75.9569 99.3049 75.8247 99.6428 75.8203H107.062C107.226 75.8193 107.387 75.8515 107.537 75.9151C107.687 75.9786 107.823 76.0722 107.936 76.19C108.049 76.3079 108.136 76.4475 108.193 76.6003C108.25 76.7532 108.275 76.916 108.266 77.0789L107.945 84.5017C107.925 84.8388 107.778 85.1559 107.534 85.3893C107.29 85.6227 106.967 85.7552 106.629 85.7603Z" fill="#1E7B1D"/>
<path d="M117.954 85.7602H110.535C110.372 85.7614 110.21 85.7291 110.06 85.6655C109.91 85.6019 109.775 85.5083 109.662 85.3904C109.55 85.2725 109.463 85.1328 109.406 84.98C109.35 84.8272 109.325 84.6644 109.334 84.5017L109.655 77.0789C109.674 76.7415 109.821 76.424 110.065 76.1904C110.309 75.9569 110.633 75.8246 110.971 75.8203H118.391C118.554 75.8197 118.715 75.8522 118.865 75.916C119.015 75.9797 119.15 76.0733 119.263 76.191C119.376 76.3088 119.463 76.4482 119.52 76.6008C119.577 76.7535 119.603 76.9161 119.595 77.0789L119.258 84.5017C119.239 84.8372 119.094 85.1533 118.853 85.3867C118.611 85.62 118.29 85.7535 117.954 85.7602Z" fill="#1E7B1D"/>
<g opacity="0.8">
<path d="M61.3048 85.7602H53.882C53.7192 85.7609 53.558 85.7283 53.4082 85.6646C53.2584 85.6008 53.1232 85.5072 53.0108 85.3894C52.8984 85.2716 52.8112 85.1321 52.7546 84.9795C52.6979 84.8269 52.6729 84.6643 52.6812 84.5017L53.0023 77.0789C53.0218 76.7415 53.1684 76.424 53.4127 76.1904C53.657 75.9569 53.9807 75.8246 54.3186 75.8203H61.7415C61.9043 75.8197 62.0655 75.8522 62.2153 75.916C62.3651 75.9798 62.5003 76.0734 62.6127 76.1912C62.7251 76.309 62.8123 76.4485 62.8689 76.6011C62.9256 76.7537 62.9505 76.9163 62.9422 77.0789L62.6212 84.5017C62.601 84.8388 62.4541 85.1559 62.21 85.3893C61.9658 85.6227 61.6425 85.7552 61.3048 85.7602Z" fill="#FAFAFA"/>
<path d="M72.637 85.7602H65.2142C65.0513 85.7614 64.8898 85.7291 64.7398 85.6655C64.5898 85.6019 64.4544 85.5083 64.3419 85.3904C64.2295 85.2725 64.1423 85.1328 64.0858 84.98C64.0293 84.8272 64.0047 84.6644 64.0134 84.5017L64.3345 77.0789C64.354 76.7415 64.5006 76.424 64.7449 76.1904C64.9892 75.9569 65.3129 75.8246 65.6508 75.8203H73.0833C73.2462 75.8197 73.4076 75.8522 73.5576 75.916C73.7075 75.9797 73.8429 76.0733 73.9556 76.191C74.0682 76.3088 74.1557 76.4482 74.2127 76.6008C74.2698 76.7535 74.2951 76.9161 74.2873 77.0789L73.9502 84.5017C73.9315 84.8388 73.7855 85.1563 73.5418 85.3899C73.298 85.6235 72.9746 85.7559 72.637 85.7602Z" fill="#FAFAFA"/>
<path d="M83.9609 85.7603H76.5413C76.3784 85.7609 76.217 85.7283 76.067 85.6646C75.9171 85.6009 75.7817 85.5073 75.669 85.3896C75.5564 85.2718 75.4689 85.1324 75.4119 84.9797C75.3549 84.8271 75.3295 84.6645 75.3373 84.5017L75.6584 77.0789C75.6779 76.7415 75.8245 76.424 76.0688 76.1905C76.3131 75.9569 76.6368 75.8247 76.9747 75.8203H84.3944C84.5573 75.8192 84.7187 75.8515 84.8687 75.9151C85.0187 75.9787 85.1542 76.0723 85.2666 76.1902C85.3791 76.3081 85.4663 76.4477 85.5228 76.6006C85.5792 76.7534 85.6039 76.9162 85.5951 77.0789L85.274 84.5017C85.2546 84.8386 85.1084 85.1556 84.8648 85.3891C84.6212 85.6225 84.2983 85.7551 83.9609 85.7603Z" fill="#FAFAFA"/>
<path d="M95.2913 85.7602H87.8813C87.7182 85.7613 87.5567 85.7291 87.4065 85.6655C87.2563 85.602 87.1207 85.5084 87.008 85.3905C86.8952 85.2727 86.8078 85.1331 86.7509 84.9802C86.6941 84.8274 86.669 84.6646 86.6773 84.5017L86.9984 77.0789C87.0171 76.7417 87.163 76.4243 87.4068 76.1907C87.6506 75.957 87.9739 75.8247 88.3115 75.8203H95.7344C95.8972 75.8197 96.0584 75.8522 96.2082 75.916C96.358 75.9798 96.4932 76.0734 96.6056 76.1912C96.718 76.309 96.8051 76.4485 96.8618 76.6011C96.9185 76.7537 96.9434 76.9163 96.9351 77.0789L96.6141 84.5017C96.5945 84.8402 96.4469 85.1586 96.2013 85.3923C95.9557 85.626 95.6303 85.7576 95.2913 85.7602Z" fill="#FAFAFA"/>
<path d="M106.621 85.7603H99.1984C99.0356 85.7609 98.8744 85.7284 98.7246 85.6646C98.5748 85.6008 98.4396 85.5072 98.3272 85.3894C98.2148 85.2716 98.1276 85.1321 98.071 84.9795C98.0143 84.8269 97.9894 84.6643 97.9976 84.5017L98.3187 77.0789C98.3382 76.7415 98.4848 76.424 98.7291 76.1905C98.9734 75.9569 99.2971 75.8247 99.635 75.8203H107.055C107.218 75.8193 107.379 75.8515 107.529 75.9151C107.68 75.9786 107.815 76.0722 107.928 76.19C108.041 76.3079 108.128 76.4475 108.185 76.6003C108.242 76.7532 108.267 76.916 108.259 77.0789L107.938 84.5017C107.917 84.8388 107.77 85.1559 107.526 85.3893C107.282 85.6227 106.959 85.7552 106.621 85.7603Z" fill="#FAFAFA"/>
<path d="M117.946 85.7602H110.527C110.364 85.7614 110.202 85.7291 110.052 85.6655C109.902 85.6019 109.767 85.5083 109.654 85.3904C109.542 85.2725 109.455 85.1328 109.398 84.98C109.342 84.8272 109.317 84.6644 109.326 84.5017L109.647 77.0789C109.666 76.7415 109.813 76.424 110.057 76.1904C110.302 75.9569 110.625 75.8246 110.963 75.8203H118.383C118.546 75.8197 118.707 75.8522 118.857 75.916C119.007 75.9797 119.143 76.0733 119.255 76.191C119.368 76.3088 119.455 76.4482 119.512 76.6008C119.569 76.7535 119.595 76.9161 119.587 77.0789L119.25 84.5017C119.231 84.8372 119.087 85.1533 118.845 85.3867C118.603 85.62 118.282 85.7535 117.946 85.7602Z" fill="#FAFAFA"/>
</g>
<path d="M60.7892 97.2798H53.3664C53.2036 97.2804 53.0423 97.2479 52.8926 97.1841C52.7428 97.1203 52.6075 97.0267 52.4952 96.9089C52.3828 96.7911 52.2956 96.6516 52.2389 96.499C52.1823 96.3464 52.1573 96.1838 52.1656 96.0212L52.4867 88.5984C52.5069 88.2613 52.6538 87.9442 52.8979 87.7108C53.142 87.4774 53.4653 87.3449 53.803 87.3399H61.2387C61.4015 87.3392 61.5627 87.3718 61.7125 87.4355C61.8623 87.4993 61.9975 87.5929 62.1099 87.7107C62.2223 87.8285 62.3095 87.968 62.3661 88.1206C62.4228 88.2732 62.4477 88.4358 62.4394 88.5984L62.1184 96.0212C62.098 96.3606 61.9493 96.6794 61.7025 96.9131C61.4556 97.1469 61.1291 97.2779 60.7892 97.2798Z" fill="#1E7B1D"/>
<path d="M72.1173 97.2798H64.6945C64.5317 97.2804 64.3705 97.2479 64.2207 97.1841C64.0709 97.1204 63.9357 97.0267 63.8233 96.9089C63.7109 96.7911 63.6237 96.6517 63.5671 96.499C63.5104 96.3464 63.4854 96.1838 63.4937 96.0212L63.8148 88.5984C63.8343 88.261 63.9809 87.9435 64.2252 87.71C64.4695 87.4764 64.7932 87.3442 65.1311 87.3399H72.5508C72.7151 87.3387 72.8779 87.3713 73.0292 87.4356C73.1804 87.4999 73.3169 87.5946 73.43 87.7138C73.5432 87.833 73.6307 87.9741 73.6871 88.1285C73.7435 88.2829 73.7676 88.4472 73.7579 88.6113L73.4369 96.0212C73.4181 96.3595 73.2712 96.6778 73.0261 96.9116C72.781 97.1454 72.4561 97.2771 72.1173 97.2798Z" fill="#1E7B1D"/>
<path d="M83.4463 97.2798H76.0267C75.8638 97.2809 75.7023 97.2487 75.5523 97.1851C75.4023 97.1215 75.2669 97.0278 75.1544 96.9099C75.0419 96.792 74.9548 96.6524 74.8983 96.4996C74.8418 96.3467 74.8172 96.1839 74.8259 96.0212L75.147 88.5984C75.1665 88.261 75.3131 87.9435 75.5574 87.71C75.8017 87.4764 76.1254 87.3442 76.4633 87.3399H83.883C84.0459 87.3388 84.2073 87.371 84.3573 87.4346C84.5074 87.4982 84.6428 87.5918 84.7552 87.7097C84.8677 87.8276 84.9549 87.9673 85.0114 88.1201C85.0679 88.2729 85.0925 88.4357 85.0837 88.5984L84.7627 96.0212C84.7432 96.3586 84.5965 96.6761 84.3523 96.9097C84.108 97.1432 83.7843 97.2755 83.4463 97.2798Z" fill="#1E7B1D"/>
<path d="M94.7773 97.28H87.3577C87.1948 97.2806 87.0334 97.248 86.8834 97.1843C86.7335 97.1206 86.5981 97.027 86.4854 96.9093C86.3728 96.7915 86.2853 96.6521 86.2283 96.4995C86.1713 96.3468 86.1459 96.1842 86.1537 96.0214L86.4748 88.5986C86.4935 88.2615 86.6394 87.944 86.8832 87.7104C87.127 87.4768 87.4503 87.3444 87.7879 87.34H95.2108C95.376 87.3371 95.5402 87.3683 95.6928 87.4319C95.8454 87.4955 95.9832 87.5899 96.0975 87.7094C96.2118 87.8288 96.3001 87.9706 96.3569 88.1258C96.4137 88.2811 96.4378 88.4464 96.4276 88.6114L96.1065 96.0343C96.0837 96.3716 95.9339 96.6877 95.6872 96.9189C95.4406 97.1501 95.1154 97.2791 94.7773 97.28Z" fill="#1E7B1D"/>
<path d="M106.106 97.2809H98.6828C98.52 97.2816 98.3588 97.249 98.209 97.1852C98.0592 97.1215 97.9239 97.0278 97.8116 96.91C97.6992 96.7922 97.612 96.6528 97.5553 96.5001C97.4987 96.3475 97.4737 96.1849 97.482 96.0224L97.8031 88.5995C97.8202 88.2596 97.9662 87.9389 98.2113 87.7027C98.4564 87.4665 98.7823 87.3326 99.1226 87.3281H106.545C106.708 87.3275 106.869 87.36 107.019 87.4238C107.169 87.4876 107.304 87.5812 107.417 87.699C107.529 87.8168 107.616 87.9563 107.673 88.1089C107.73 88.2615 107.755 88.4241 107.746 88.5867L107.425 96.0095C107.408 96.3495 107.262 96.6701 107.017 96.9063C106.772 97.1425 106.446 97.2764 106.106 97.2809Z" fill="#1E7B1D"/>
<path d="M117.425 97.2798H110.015C109.852 97.2809 109.691 97.2486 109.541 97.185C109.391 97.1214 109.255 97.0278 109.143 96.9099C109.03 96.792 108.943 96.6524 108.887 96.4995C108.83 96.3467 108.805 96.1839 108.814 96.0212L109.135 88.5984C109.155 88.261 109.301 87.9435 109.546 87.71C109.79 87.4764 110.114 87.3442 110.452 87.3399H117.871C118.034 87.3392 118.196 87.3718 118.346 87.4355C118.495 87.4992 118.631 87.5928 118.744 87.7106C118.856 87.8283 118.944 87.9677 119.001 88.1204C119.058 88.273 119.083 88.4356 119.075 88.5984L118.738 96.0212C118.719 96.3583 118.573 96.6758 118.33 96.9094C118.086 97.143 117.763 97.2754 117.425 97.2798Z" fill="#1E7B1D"/>
<g opacity="0.8">
<path d="M60.7892 97.2798H53.3664C53.2036 97.2804 53.0423 97.2479 52.8926 97.1841C52.7428 97.1203 52.6075 97.0267 52.4952 96.9089C52.3828 96.7911 52.2956 96.6516 52.2389 96.499C52.1823 96.3464 52.1573 96.1838 52.1656 96.0212L52.4867 88.5984C52.5069 88.2613 52.6538 87.9442 52.8979 87.7108C53.142 87.4774 53.4653 87.3449 53.803 87.3399H61.2387C61.4015 87.3392 61.5627 87.3718 61.7125 87.4355C61.8623 87.4993 61.9975 87.5929 62.1099 87.7107C62.2223 87.8285 62.3095 87.968 62.3661 88.1206C62.4228 88.2732 62.4477 88.4358 62.4394 88.5984L62.1184 96.0212C62.098 96.3606 61.9493 96.6794 61.7025 96.9131C61.4556 97.1469 61.1291 97.2779 60.7892 97.2798Z" fill="#FAFAFA"/>
<path d="M72.1212 97.2798H64.6984C64.5356 97.2804 64.3744 97.2479 64.2246 97.1841C64.0748 97.1204 63.9396 97.0267 63.8272 96.9089C63.7148 96.7911 63.6276 96.6517 63.571 96.499C63.5143 96.3464 63.4894 96.1838 63.4976 96.0212L63.8187 88.5984C63.8382 88.261 63.9848 87.9435 64.2291 87.71C64.4734 87.4764 64.7971 87.3442 65.135 87.3399H72.5547C72.719 87.3387 72.8819 87.3713 73.0331 87.4356C73.1843 87.4999 73.3208 87.5946 73.4339 87.7138C73.5471 87.833 73.6346 87.9741 73.691 88.1285C73.7474 88.2829 73.7715 88.4472 73.7618 88.6113L73.4408 96.0212C73.422 96.3595 73.2752 96.6778 73.03 96.9116C72.7849 97.1454 72.46 97.2771 72.1212 97.2798Z" fill="#FAFAFA"/>
<path d="M83.4463 97.2798H76.0267C75.8638 97.2809 75.7023 97.2487 75.5523 97.1851C75.4023 97.1215 75.2669 97.0278 75.1544 96.9099C75.0419 96.792 74.9548 96.6524 74.8983 96.4996C74.8418 96.3467 74.8172 96.1839 74.8259 96.0212L75.147 88.5984C75.1665 88.261 75.3131 87.9435 75.5574 87.71C75.8017 87.4764 76.1254 87.3442 76.4633 87.3399H83.883C84.0459 87.3388 84.2073 87.371 84.3573 87.4346C84.5074 87.4982 84.6428 87.5918 84.7552 87.7097C84.8677 87.8276 84.9549 87.9673 85.0114 88.1201C85.0679 88.2729 85.0925 88.4357 85.0837 88.5984L84.7627 96.0212C84.7432 96.3586 84.5965 96.6761 84.3523 96.9097C84.108 97.1432 83.7843 97.2755 83.4463 97.2798Z" fill="#FAFAFA"/>
<path d="M94.7773 97.28H87.3577C87.1948 97.2806 87.0334 97.248 86.8834 97.1843C86.7335 97.1206 86.5981 97.027 86.4854 96.9093C86.3728 96.7915 86.2853 96.6521 86.2283 96.4995C86.1713 96.3468 86.1459 96.1842 86.1537 96.0214L86.4748 88.5986C86.4935 88.2615 86.6394 87.944 86.8832 87.7104C87.127 87.4768 87.4503 87.3444 87.7879 87.34H95.2108C95.376 87.3371 95.5402 87.3683 95.6928 87.4319C95.8454 87.4955 95.9832 87.5899 96.0975 87.7094C96.2118 87.8288 96.3001 87.9706 96.3569 88.1258C96.4137 88.2811 96.4378 88.4464 96.4276 88.6114L96.1065 96.0343C96.0837 96.3716 95.9339 96.6877 95.6872 96.9189C95.4406 97.1501 95.1154 97.2791 94.7773 97.28Z" fill="#FAFAFA"/>
<path d="M106.106 97.2809H98.6828C98.52 97.2816 98.3588 97.249 98.209 97.1852C98.0592 97.1215 97.9239 97.0278 97.8116 96.91C97.6992 96.7922 97.612 96.6528 97.5553 96.5001C97.4987 96.3475 97.4737 96.1849 97.482 96.0224L97.8031 88.5995C97.8202 88.2596 97.9662 87.9389 98.2113 87.7027C98.4564 87.4665 98.7823 87.3326 99.1226 87.3281H106.545C106.708 87.3275 106.869 87.36 107.019 87.4238C107.169 87.4876 107.304 87.5812 107.417 87.699C107.529 87.8168 107.616 87.9563 107.673 88.1089C107.73 88.2615 107.755 88.4241 107.746 88.5867L107.425 96.0095C107.408 96.3495 107.262 96.6701 107.017 96.9063C106.772 97.1425 106.446 97.2764 106.106 97.2809Z" fill="#FAFAFA"/>
<path d="M117.421 97.2798H110.011C109.848 97.2809 109.687 97.2486 109.537 97.185C109.387 97.1214 109.251 97.0278 109.139 96.9099C109.026 96.792 108.939 96.6524 108.883 96.4995C108.826 96.3467 108.802 96.1839 108.81 96.0212L109.131 88.5984C109.151 88.261 109.298 87.9435 109.542 87.71C109.786 87.4764 110.11 87.3442 110.448 87.3399H117.867C118.03 87.3392 118.192 87.3718 118.342 87.4355C118.492 87.4992 118.627 87.5928 118.74 87.7106C118.852 87.8283 118.94 87.9677 118.997 88.1204C119.054 88.273 119.079 88.4356 119.071 88.5984L118.734 96.0212C118.716 96.3583 118.57 96.6758 118.326 96.9094C118.082 97.143 117.759 97.2754 117.421 97.2798Z" fill="#FAFAFA"/>
</g>
<path d="M60.2763 108.792H52.847C52.6841 108.793 52.5226 108.761 52.3726 108.697C52.2226 108.634 52.0872 108.54 51.9747 108.422C51.8623 108.304 51.7751 108.165 51.7186 108.012C51.6621 107.859 51.6375 107.696 51.6463 107.534L51.9673 100.114C51.9868 99.7766 52.1334 99.4592 52.3777 99.2256C52.622 98.9921 52.9457 98.8598 53.2837 98.8555H60.7065C60.8694 98.8544 61.0309 98.8866 61.1809 98.9502C61.3309 99.0138 61.4663 99.1075 61.5788 99.2254C61.6912 99.3432 61.7784 99.4829 61.8349 99.6357C61.8914 99.7886 61.916 99.9513 61.9072 100.114L61.5862 107.534C61.5675 107.87 61.422 108.187 61.179 108.421C60.9359 108.654 60.6133 108.787 60.2763 108.792Z" fill="#1E7B1D"/>
<path d="M71.598 108.792H64.1751C64.0122 108.793 63.8508 108.761 63.7008 108.698C63.5507 108.634 63.4153 108.54 63.3029 108.422C63.1904 108.304 63.1032 108.165 63.0467 108.012C62.9902 107.859 62.9656 107.696 62.9744 107.534L63.2954 100.114C63.3142 99.7764 63.4606 99.4585 63.705 99.2248C63.9495 98.9911 64.2736 98.8591 64.6118 98.8555H72.0314C72.1946 98.854 72.3564 98.8859 72.5068 98.9493C72.6572 99.0127 72.793 99.1063 72.9058 99.2242C73.0186 99.3421 73.1061 99.4819 73.1627 99.635C73.2194 99.788 73.2441 99.9511 73.2354 100.114L72.9143 107.534C72.8963 107.872 72.7502 108.19 72.5056 108.424C72.261 108.658 71.9364 108.789 71.598 108.792Z" fill="#1E7B1D"/>
<path d="M82.9268 108.792H75.5072C75.3442 108.793 75.1828 108.761 75.0328 108.697C74.8828 108.634 74.7474 108.54 74.6349 108.422C74.5224 108.304 74.4353 108.165 74.3788 108.012C74.3223 107.859 74.2977 107.696 74.3064 107.534L74.6275 100.114C74.6462 99.7764 74.7926 99.4585 75.0371 99.2248C75.2815 98.9911 75.6056 98.8591 75.9438 98.8555H83.3923C83.5554 98.8544 83.717 98.8866 83.8671 98.9502C84.0173 99.0138 84.1529 99.1074 84.2657 99.2252C84.3784 99.343 84.4659 99.4827 84.5227 99.6355C84.5796 99.7883 84.6046 99.9512 84.5963 100.114L84.2592 107.534C84.2403 107.874 84.0916 108.194 83.8438 108.428C83.5959 108.663 83.2677 108.793 82.9268 108.792Z" fill="#1E7B1D"/>
<path d="M94.258 108.792H86.8383C86.6753 108.793 86.5137 108.761 86.3635 108.697C86.2133 108.634 86.0777 108.54 85.965 108.423C85.8523 108.305 85.7648 108.165 85.708 108.012C85.6511 107.859 85.6261 107.697 85.6344 107.534L85.9554 100.114C85.9734 99.7767 86.1191 99.4588 86.363 99.225C86.6069 98.9912 86.9307 98.8591 87.2685 98.8555H94.6914C94.8543 98.8544 95.0158 98.8866 95.1658 98.9502C95.3158 99.0138 95.4512 99.1075 95.5637 99.2254C95.6761 99.3432 95.7633 99.4829 95.8198 99.6357C95.8763 99.7886 95.9009 99.9513 95.8921 100.114L95.5711 107.534C95.5524 107.871 95.4064 108.188 95.1627 108.422C94.9189 108.655 94.5956 108.788 94.258 108.792Z" fill="#1E7B1D"/>
<path d="M105.586 108.792H98.1595C97.9966 108.793 97.8351 108.761 97.6851 108.697C97.5351 108.634 97.3997 108.54 97.2872 108.422C97.1748 108.304 97.0876 108.165 97.0311 108.012C96.9746 107.859 96.95 107.696 96.9588 107.534L97.2798 100.114C97.2993 99.7766 97.4459 99.4592 97.6902 99.2256C97.9345 98.9921 98.2582 98.8598 98.5961 98.8555H106.019C106.182 98.8544 106.343 98.8866 106.493 98.9502C106.643 99.0138 106.779 99.1075 106.891 99.2254C107.004 99.3432 107.091 99.4829 107.147 99.6357C107.204 99.7886 107.229 99.9513 107.22 100.114L106.899 107.534C106.879 107.871 106.733 108.188 106.489 108.421C106.246 108.654 105.923 108.787 105.586 108.792Z" fill="#1E7B1D"/>
<path d="M116.918 108.792H109.495C109.333 108.793 109.171 108.761 109.021 108.697C108.871 108.634 108.736 108.54 108.623 108.422C108.511 108.304 108.424 108.165 108.367 108.012C108.311 107.859 108.286 107.696 108.295 107.534L108.616 100.114C108.634 99.7764 108.781 99.4585 109.025 99.2248C109.27 98.9911 109.594 98.8591 109.932 98.8555H117.352C117.515 98.8544 117.676 98.8866 117.827 98.9502C117.977 99.0138 118.112 99.1074 118.225 99.2252C118.338 99.343 118.425 99.4827 118.482 99.6355C118.539 99.7883 118.564 99.9512 118.556 100.114L118.219 107.534C118.201 107.869 118.057 108.185 117.816 108.418C117.574 108.652 117.254 108.785 116.918 108.792Z" fill="#1E7B1D"/>
<g opacity="0.8">
<path d="M60.2763 108.792H52.847C52.6841 108.793 52.5226 108.761 52.3726 108.697C52.2226 108.634 52.0872 108.54 51.9747 108.422C51.8623 108.304 51.7751 108.165 51.7186 108.012C51.6621 107.859 51.6375 107.696 51.6463 107.534L51.9673 100.114C51.9868 99.7766 52.1334 99.4592 52.3777 99.2256C52.622 98.9921 52.9457 98.8598 53.2837 98.8555H60.7065C60.8694 98.8544 61.0309 98.8866 61.1809 98.9502C61.3309 99.0138 61.4663 99.1075 61.5788 99.2254C61.6912 99.3432 61.7784 99.4829 61.8349 99.6357C61.8914 99.7886 61.916 99.9513 61.9072 100.114L61.5862 107.534C61.5675 107.87 61.422 108.187 61.179 108.421C60.9359 108.654 60.6133 108.787 60.2763 108.792Z" fill="#FAFAFA"/>
<path d="M71.6019 108.792H64.179C64.0161 108.793 63.8547 108.761 63.7047 108.698C63.5547 108.634 63.4192 108.54 63.3068 108.422C63.1943 108.304 63.1071 108.165 63.0506 108.012C62.9941 107.859 62.9695 107.696 62.9783 107.534L63.2993 100.114C63.3181 99.7764 63.4645 99.4585 63.7089 99.2248C63.9534 98.9911 64.2775 98.8591 64.6157 98.8555H72.0353C72.1985 98.854 72.3603 98.8859 72.5107 98.9493C72.6611 99.0127 72.7969 99.1063 72.9097 99.2242C73.0225 99.3421 73.11 99.4819 73.1667 99.635C73.2233 99.788 73.2481 99.9511 73.2393 100.114L72.9182 107.534C72.9002 107.872 72.7541 108.19 72.5095 108.424C72.2649 108.658 71.9403 108.789 71.6019 108.792Z" fill="#FAFAFA"/>
<path d="M82.9268 108.792H75.5072C75.3442 108.793 75.1828 108.761 75.0328 108.697C74.8828 108.634 74.7474 108.54 74.6349 108.422C74.5224 108.304 74.4353 108.165 74.3788 108.012C74.3223 107.859 74.2977 107.696 74.3064 107.534L74.6275 100.114C74.6462 99.7764 74.7926 99.4585 75.0371 99.2248C75.2815 98.9911 75.6056 98.8591 75.9438 98.8555H83.3923C83.5554 98.8544 83.717 98.8866 83.8671 98.9502C84.0173 99.0138 84.1529 99.1074 84.2657 99.2252C84.3784 99.343 84.4659 99.4827 84.5227 99.6355C84.5796 99.7883 84.6046 99.9512 84.5963 100.114L84.2592 107.534C84.2403 107.874 84.0916 108.194 83.8438 108.428C83.5959 108.663 83.2677 108.793 82.9268 108.792Z" fill="#FAFAFA"/>
<path d="M94.258 108.792H86.8383C86.6753 108.793 86.5137 108.761 86.3635 108.697C86.2133 108.634 86.0777 108.54 85.965 108.423C85.8523 108.305 85.7648 108.165 85.708 108.012C85.6511 107.859 85.6261 107.697 85.6344 107.534L85.9554 100.114C85.9734 99.7767 86.1191 99.4588 86.363 99.225C86.6069 98.9912 86.9307 98.8591 87.2685 98.8555H94.6914C94.8543 98.8544 95.0158 98.8866 95.1658 98.9502C95.3158 99.0138 95.4512 99.1075 95.5637 99.2254C95.6761 99.3432 95.7633 99.4829 95.8198 99.6357C95.8763 99.7886 95.9009 99.9513 95.8921 100.114L95.5711 107.534C95.5524 107.871 95.4064 108.188 95.1627 108.422C94.9189 108.655 94.5956 108.788 94.258 108.792Z" fill="#FAFAFA"/>
<path d="M105.586 108.792H98.1595C97.9966 108.793 97.8351 108.761 97.6851 108.697C97.5351 108.634 97.3997 108.54 97.2872 108.422C97.1748 108.304 97.0876 108.165 97.0311 108.012C96.9746 107.859 96.95 107.696 96.9588 107.534L97.2798 100.114C97.2993 99.7766 97.4459 99.4592 97.6902 99.2256C97.9345 98.9921 98.2582 98.8598 98.5961 98.8555H106.019C106.182 98.8544 106.343 98.8866 106.493 98.9502C106.643 99.0138 106.779 99.1075 106.891 99.2254C107.004 99.3432 107.091 99.4829 107.147 99.6357C107.204 99.7886 107.229 99.9513 107.22 100.114L106.899 107.534C106.879 107.871 106.733 108.188 106.489 108.421C106.246 108.654 105.923 108.787 105.586 108.792Z" fill="#FAFAFA"/>
<path d="M116.914 108.792H109.492C109.329 108.793 109.167 108.761 109.017 108.697C108.867 108.634 108.732 108.54 108.619 108.422C108.507 108.304 108.42 108.165 108.363 108.012C108.307 107.859 108.282 107.696 108.291 107.534L108.612 100.114C108.631 99.7764 108.777 99.4585 109.021 99.2248C109.266 98.9911 109.59 98.8591 109.928 98.8555H117.348C117.511 98.8544 117.672 98.8866 117.823 98.9502C117.973 99.0138 118.108 99.1074 118.221 99.2252C118.334 99.343 118.421 99.4827 118.478 99.6355C118.535 99.7883 118.56 99.9512 118.552 100.114L118.215 107.534C118.197 107.869 118.053 108.185 117.812 108.418C117.571 108.652 117.25 108.785 116.914 108.792Z" fill="#FAFAFA"/>
</g>
<path d="M58.173 69.8071C55.4376 69.8071 53.293 66.6254 53.293 62.5641C53.293 58.5027 55.4376 55.3242 58.173 55.3242C60.9084 55.3242 63.0563 58.5059 63.0563 62.5641C63.0439 62.7544 62.9594 62.9329 62.8202 63.0633C62.681 63.1937 62.4974 63.2662 62.3066 63.2662C62.1159 63.2662 61.9323 63.1937 61.7931 63.0633C61.6538 62.9329 61.5694 62.7544 61.557 62.5641C61.557 59.453 60.0095 56.8203 58.173 56.8203C56.3366 56.8203 54.7891 59.453 54.7891 62.5641C54.7891 65.6751 56.3398 68.3078 58.173 68.3078C58.2756 68.301 58.3785 68.3155 58.4753 68.3501C58.572 68.3847 58.6607 68.4388 58.7357 68.5091C58.8107 68.5794 58.8705 68.6643 58.9114 68.7586C58.9523 68.8529 58.9734 68.9546 58.9734 69.0574C58.9734 69.1602 58.9523 69.2619 58.9114 69.3562C58.8705 69.4506 58.8107 69.5355 58.7357 69.6057C58.6607 69.676 58.572 69.7301 58.4753 69.7648C58.3785 69.7994 58.2756 69.8138 58.173 69.8071Z" fill="#1E7B1D"/>
<path d="M69.5012 69.8071C66.7658 69.8071 64.6211 66.6254 64.6211 62.5641C64.6211 58.5027 66.7658 55.3242 69.5012 55.3242C72.2366 55.3242 74.4005 58.5059 74.4005 62.5641C74.388 62.7544 74.3036 62.9329 74.1644 63.0633C74.0252 63.1937 73.8416 63.2662 73.6508 63.2662C73.4601 63.2662 73.2765 63.1937 73.1372 63.0633C72.998 62.9329 72.9136 62.7544 72.9012 62.5641C72.9012 59.453 71.3537 56.8203 69.5172 56.8203C67.6808 56.8203 66.1333 59.453 66.1333 62.5641C66.1333 65.6751 67.684 68.3078 69.5172 68.3078C69.7076 68.3202 69.886 68.4046 70.0164 68.5439C70.1468 68.6831 70.2194 68.8667 70.2194 69.0574C70.2194 69.2482 70.1468 69.4318 70.0164 69.571C69.886 69.7102 69.7076 69.7946 69.5172 69.8071H69.5012Z" fill="#1E7B1D"/>
<path d="M80.8247 69.8071C78.0861 69.8071 75.9414 66.6254 75.9414 62.5641C75.9414 58.5027 78.0861 55.3242 80.8247 55.3242C83.5633 55.3242 85.7048 58.5059 85.7048 62.5641C85.7048 62.7625 85.6259 62.9527 85.4856 63.093C85.3454 63.2333 85.1551 63.3121 84.9567 63.3121C84.7583 63.3121 84.568 63.2333 84.4277 63.093C84.2874 62.9527 84.2086 62.7625 84.2086 62.5641C84.2086 59.453 82.6579 56.8203 80.8247 56.8203C78.9915 56.8203 77.4407 59.453 77.4407 62.5641C77.4407 65.6751 78.9915 68.3078 80.8247 68.3078C81.015 68.3202 81.1935 68.4046 81.3239 68.5439C81.4543 68.6831 81.5269 68.8667 81.5269 69.0574C81.5269 69.2482 81.4543 69.4318 81.3239 69.571C81.1935 69.7102 81.015 69.7946 80.8247 69.8071Z" fill="#1E7B1D"/>
<path d="M92.1645 69.8071C89.4259 69.8071 87.2812 66.6254 87.2812 62.5641C87.2812 58.5027 89.4259 55.3242 92.1645 55.3242C94.9032 55.3242 97.0446 58.5059 97.0446 62.5641C97.0446 62.7625 96.9658 62.9527 96.8255 63.093C96.6852 63.2333 96.4949 63.3121 96.2965 63.3121C96.0981 63.3121 95.9079 63.2333 95.7676 63.093C95.6273 62.9527 95.5485 62.7625 95.5485 62.5641C95.5485 59.453 93.9978 56.8203 92.1645 56.8203C90.3313 56.8203 88.7806 59.453 88.7806 62.5641C88.7806 65.6751 90.3281 68.3078 92.1645 68.3078C92.3549 68.3202 92.5334 68.4046 92.6638 68.5439C92.7942 68.6831 92.8667 68.8667 92.8667 69.0574C92.8667 69.2482 92.7942 69.4318 92.6638 69.571C92.5334 69.7102 92.3549 69.7946 92.1645 69.8071Z" fill="#1E7B1D"/>
<path d="M103.489 69.8071C100.754 69.8071 98.6094 66.6254 98.6094 62.5641C98.6094 58.5027 100.754 55.3242 103.489 55.3242C106.225 55.3242 108.373 58.5059 108.373 62.5641C108.36 62.7544 108.276 62.9329 108.137 63.0633C107.997 63.1937 107.814 63.2662 107.623 63.2662C107.432 63.2662 107.249 63.1937 107.109 63.0633C106.97 62.9329 106.886 62.7544 106.873 62.5641C106.873 59.453 105.326 56.8203 103.489 56.8203C101.653 56.8203 100.106 59.453 100.106 62.5641C100.106 65.6751 101.656 68.3078 103.489 68.3078C103.592 68.301 103.695 68.3155 103.792 68.3501C103.888 68.3847 103.977 68.4388 104.052 68.5091C104.127 68.5794 104.187 68.6643 104.228 68.7586C104.269 68.8529 104.29 68.9546 104.29 69.0574C104.29 69.1602 104.269 69.2619 104.228 69.3562C104.187 69.4506 104.127 69.5355 104.052 69.6057C103.977 69.676 103.888 69.7301 103.792 69.7648C103.695 69.7994 103.592 69.8138 103.489 69.8071Z" fill="#1E7B1D"/>
<path d="M114.821 69.8071C112.086 69.8071 109.941 66.6254 109.941 62.5641C109.941 58.5027 112.086 55.3242 114.821 55.3242C117.557 55.3242 119.705 58.5059 119.705 62.5641C119.692 62.7544 119.608 62.9329 119.469 63.0633C119.329 63.1937 119.146 63.2662 118.955 63.2662C118.764 63.2662 118.581 63.1937 118.442 63.0633C118.302 62.9329 118.218 62.7544 118.205 62.5641C118.205 59.453 116.655 56.8203 114.821 56.8203C112.988 56.8203 111.438 59.453 111.438 62.5641C111.438 65.6751 112.988 68.3078 114.821 68.3078C115.012 68.3202 115.19 68.4046 115.321 68.5439C115.451 68.6831 115.524 68.8667 115.524 69.0574C115.524 69.2482 115.451 69.4318 115.321 69.571C115.19 69.7102 115.012 69.7946 114.821 69.8071Z" fill="#1E7B1D"/>
<g opacity="0.3">
<path d="M58.173 69.8071C55.4376 69.8071 53.293 66.6254 53.293 62.5641C53.293 58.5027 55.4376 55.3242 58.173 55.3242C60.9084 55.3242 63.0563 58.5059 63.0563 62.5641C63.0439 62.7544 62.9594 62.9329 62.8202 63.0633C62.681 63.1937 62.4974 63.2662 62.3066 63.2662C62.1159 63.2662 61.9323 63.1937 61.7931 63.0633C61.6538 62.9329 61.5694 62.7544 61.557 62.5641C61.557 59.453 60.0095 56.8203 58.173 56.8203C56.3366 56.8203 54.7891 59.453 54.7891 62.5641C54.7891 65.6751 56.3398 68.3078 58.173 68.3078C58.2756 68.301 58.3785 68.3155 58.4753 68.3501C58.572 68.3847 58.6607 68.4388 58.7357 68.5091C58.8107 68.5794 58.8705 68.6643 58.9114 68.7586C58.9523 68.8529 58.9734 68.9546 58.9734 69.0574C58.9734 69.1602 58.9523 69.2619 58.9114 69.3562C58.8705 69.4506 58.8107 69.5355 58.7357 69.6057C58.6607 69.676 58.572 69.7301 58.4753 69.7648C58.3785 69.7994 58.2756 69.8138 58.173 69.8071Z" fill="black"/>
<path d="M69.5051 69.8071C66.7697 69.8071 64.625 66.6254 64.625 62.5641C64.625 58.5027 66.7697 55.3242 69.5051 55.3242C72.2405 55.3242 74.4044 58.5059 74.4044 62.5641C74.3919 62.7544 74.3075 62.9329 74.1683 63.0633C74.0291 63.1937 73.8455 63.2662 73.6547 63.2662C73.464 63.2662 73.2804 63.1937 73.1411 63.0633C73.0019 62.9329 72.9175 62.7544 72.9051 62.5641C72.9051 59.453 71.3576 56.8203 69.5211 56.8203C67.6847 56.8203 66.1372 59.453 66.1372 62.5641C66.1372 65.6751 67.6879 68.3078 69.5211 68.3078C69.7115 68.3202 69.8899 68.4046 70.0203 68.5439C70.1507 68.6831 70.2233 68.8667 70.2233 69.0574C70.2233 69.2482 70.1507 69.4318 70.0203 69.571C69.8899 69.7102 69.7115 69.7946 69.5211 69.8071H69.5051Z" fill="black"/>
<path d="M80.8247 69.8071C78.0861 69.8071 75.9414 66.6254 75.9414 62.5641C75.9414 58.5027 78.0861 55.3242 80.8247 55.3242C83.5633 55.3242 85.7048 58.5059 85.7048 62.5641C85.7048 62.7625 85.6259 62.9527 85.4856 63.093C85.3454 63.2333 85.1551 63.3121 84.9567 63.3121C84.7583 63.3121 84.568 63.2333 84.4277 63.093C84.2874 62.9527 84.2086 62.7625 84.2086 62.5641C84.2086 59.453 82.6579 56.8203 80.8247 56.8203C78.9915 56.8203 77.4407 59.453 77.4407 62.5641C77.4407 65.6751 78.9915 68.3078 80.8247 68.3078C81.015 68.3202 81.1935 68.4046 81.3239 68.5439C81.4543 68.6831 81.5269 68.8667 81.5269 69.0574C81.5269 69.2482 81.4543 69.4318 81.3239 69.571C81.1935 69.7102 81.015 69.7946 80.8247 69.8071Z" fill="black"/>
<path d="M92.1645 69.8071C89.4259 69.8071 87.2812 66.6254 87.2812 62.5641C87.2812 58.5027 89.4259 55.3242 92.1645 55.3242C94.9032 55.3242 97.0446 58.5059 97.0446 62.5641C97.0446 62.7625 96.9658 62.9527 96.8255 63.093C96.6852 63.2333 96.4949 63.3121 96.2965 63.3121C96.0981 63.3121 95.9079 63.2333 95.7676 63.093C95.6273 62.9527 95.5485 62.7625 95.5485 62.5641C95.5485 59.453 93.9978 56.8203 92.1645 56.8203C90.3313 56.8203 88.7806 59.453 88.7806 62.5641C88.7806 65.6751 90.3281 68.3078 92.1645 68.3078C92.3549 68.3202 92.5334 68.4046 92.6638 68.5439C92.7942 68.6831 92.8667 68.8667 92.8667 69.0574C92.8667 69.2482 92.7942 69.4318 92.6638 69.571C92.5334 69.7102 92.3549 69.7946 92.1645 69.8071Z" fill="black"/>
<path d="M103.489 69.8071C100.754 69.8071 98.6094 66.6254 98.6094 62.5641C98.6094 58.5027 100.754 55.3242 103.489 55.3242C106.225 55.3242 108.373 58.5059 108.373 62.5641C108.36 62.7544 108.276 62.9329 108.137 63.0633C107.997 63.1937 107.814 63.2662 107.623 63.2662C107.432 63.2662 107.249 63.1937 107.109 63.0633C106.97 62.9329 106.886 62.7544 106.873 62.5641C106.873 59.453 105.326 56.8203 103.489 56.8203C101.653 56.8203 100.106 59.453 100.106 62.5641C100.106 65.6751 101.656 68.3078 103.489 68.3078C103.592 68.301 103.695 68.3155 103.792 68.3501C103.888 68.3847 103.977 68.4388 104.052 68.5091C104.127 68.5794 104.187 68.6643 104.228 68.7586C104.269 68.8529 104.29 68.9546 104.29 69.0574C104.29 69.1602 104.269 69.2619 104.228 69.3562C104.187 69.4506 104.127 69.5355 104.052 69.6057C103.977 69.676 103.888 69.7301 103.792 69.7648C103.695 69.7994 103.592 69.8138 103.489 69.8071Z" fill="black"/>
<path d="M114.818 69.8071C112.082 69.8071 109.938 66.6254 109.938 62.5641C109.938 58.5027 112.082 55.3242 114.818 55.3242C117.553 55.3242 119.701 58.5059 119.701 62.5641C119.688 62.7544 119.604 62.9329 119.465 63.0633C119.326 63.1937 119.142 63.2662 118.951 63.2662C118.76 63.2662 118.577 63.1937 118.438 63.0633C118.298 62.9329 118.214 62.7544 118.202 62.5641C118.202 59.453 116.651 56.8203 114.818 56.8203C112.984 56.8203 111.434 59.453 111.434 62.5641C111.434 65.6751 112.984 68.3078 114.818 68.3078C115.008 68.3202 115.186 68.4046 115.317 68.5439C115.447 68.6831 115.52 68.8667 115.52 69.0574C115.52 69.2482 115.447 69.4318 115.317 69.571C115.186 69.7102 115.008 69.7946 114.818 69.8071Z" fill="black"/>
</g>
<path d="M92.9192 86.1769C90.2993 85.6568 87.3585 86.2636 86.3086 89.0247C85.4642 91.2464 86.5462 93.6543 88.8771 94.2418C90.9318 94.7587 94.4763 94.1262 95.2083 91.7568C96.0463 89.0471 92.6398 88.1674 90.7296 88.0069C90.1549 87.9587 90.1581 88.8577 90.7296 88.9059C91.5996 88.9797 92.5949 89.0279 93.3654 89.5062C94.9707 90.5111 94.3093 92.1229 92.9416 92.8934C91.5739 93.6639 89.4774 93.8566 88.1258 93.0025C86.6489 92.0618 86.6008 89.9942 87.4837 88.6458C88.6427 86.8639 90.7585 86.6649 92.6655 87.0405C93.2306 87.1529 93.4714 86.286 92.9031 86.1737L92.9192 86.1769Z" fill="#1E7B1D"/>
<path opacity="0.1" d="M92.9192 86.1769C90.2993 85.6568 87.3585 86.2636 86.3086 89.0247C85.4642 91.2464 86.5462 93.6543 88.8771 94.2418C90.9318 94.7587 94.4763 94.1262 95.2083 91.7568C96.0463 89.0471 92.6398 88.1674 90.7296 88.0069C90.1549 87.9587 90.1581 88.8577 90.7296 88.9059C91.5996 88.9797 92.5949 89.0279 93.3654 89.5062C94.9707 90.5111 94.3093 92.1229 92.9416 92.8934C91.5739 93.6639 89.4774 93.8566 88.1258 93.0025C86.6489 92.0618 86.6008 89.9942 87.4837 88.6458C88.6427 86.8639 90.7585 86.6649 92.6655 87.0405C93.2306 87.1529 93.4714 86.286 92.9031 86.1737L92.9192 86.1769Z" fill="#FAFAFA"/>
<path d="M64.0155 75.8355C66.5209 79.1569 69.3142 82.251 72.363 85.082C72.7867 85.4769 73.4256 84.8412 73.0051 84.4399C70.0086 81.6649 67.2615 78.6321 64.7956 75.3764C64.4521 74.9205 63.6719 75.3764 64.0219 75.8291L64.0155 75.8355Z" fill="#1E7B1D"/>
<path d="M64.9434 84.7045C66.8376 81.3366 70.1542 78.4631 73.2909 76.2639C73.7596 75.9428 73.3134 75.153 72.8382 75.4869C69.5763 77.7793 66.1474 80.7394 64.1697 84.2486C64.1154 84.3508 64.1026 84.4701 64.1341 84.5815C64.1656 84.6928 64.2388 84.7878 64.3385 84.8466C64.4382 84.9053 64.5568 84.9234 64.6695 84.8969C64.7821 84.8704 64.8803 84.8015 64.9434 84.7045Z" fill="#1E7B1D"/>
<g opacity="0.2">
<path d="M64.0194 75.8355C66.5248 79.1569 69.3181 82.251 72.3669 85.082C72.7907 85.4769 73.4296 84.8412 73.009 84.4399C70.0125 81.6649 67.2654 78.6321 64.7995 75.3764C64.456 74.9205 63.6758 75.3764 64.0258 75.8291L64.0194 75.8355Z" fill="black"/>
<path d="M64.9473 84.7045C66.8415 81.3366 70.1581 78.4631 73.2948 76.2639C73.7635 75.9428 73.3173 75.153 72.8421 75.4869C69.5802 77.7793 66.1513 80.7394 64.1736 84.2486C64.1193 84.3508 64.1066 84.4701 64.138 84.5815C64.1695 84.6928 64.2427 84.7878 64.3424 84.8466C64.4421 84.9053 64.5607 84.9234 64.6734 84.8969C64.786 84.8704 64.8842 84.8015 64.9473 84.7045Z" fill="black"/>
</g>
<path d="M99.724 78.7083H105.583C105.696 78.6987 105.8 78.6474 105.876 78.5645C105.953 78.4815 105.995 78.373 105.995 78.2604C105.995 78.1477 105.953 78.0392 105.876 77.9563C105.8 77.8733 105.696 77.822 105.583 77.8125H99.724C99.6118 77.822 99.5072 77.8733 99.431 77.9563C99.3548 78.0392 99.3125 78.1477 99.3125 78.2604C99.3125 78.373 99.3548 78.4815 99.431 78.5645C99.5072 78.6474 99.6118 78.6987 99.724 78.7083Z" fill="#1E7B1D"/>
<path d="M99.6565 80.3755H103.053C103.172 80.3755 103.287 80.3282 103.371 80.2439C103.455 80.1596 103.503 80.0453 103.503 79.9261C103.503 79.8068 103.455 79.6925 103.371 79.6082C103.287 79.5239 103.172 79.4766 103.053 79.4766H99.6565C99.5373 79.4766 99.423 79.5239 99.3387 79.6082C99.2544 79.6925 99.207 79.8068 99.207 79.9261C99.207 80.0453 99.2544 80.1596 99.3387 80.2439C99.423 80.3282 99.5373 80.3755 99.6565 80.3755Z" fill="#1E7B1D"/>
<g opacity="0.1">
<path d="M99.724 78.7083H105.583C105.696 78.6987 105.8 78.6474 105.876 78.5645C105.953 78.4815 105.995 78.373 105.995 78.2604C105.995 78.1477 105.953 78.0392 105.876 77.9563C105.8 77.8733 105.696 77.822 105.583 77.8125H99.724C99.6118 77.822 99.5072 77.8733 99.431 77.9563C99.3548 78.0392 99.3125 78.1477 99.3125 78.2604C99.3125 78.373 99.3548 78.4815 99.431 78.5645C99.5072 78.6474 99.6118 78.6987 99.724 78.7083Z" fill="#FAFAFA"/>
<path d="M99.6565 80.3755H103.053C103.172 80.3755 103.287 80.3282 103.371 80.2439C103.455 80.1596 103.503 80.0453 103.503 79.9261C103.503 79.8068 103.455 79.6925 103.371 79.6082C103.287 79.5239 103.172 79.4766 103.053 79.4766H99.6565C99.5373 79.4766 99.423 79.5239 99.3387 79.6082C99.2544 79.6925 99.207 79.8068 99.207 79.9261C99.207 80.0453 99.2544 80.1596 99.3387 80.2439C99.423 80.3282 99.5373 80.3755 99.6565 80.3755Z" fill="#FAFAFA"/>
</g>
<path d="M64.6292 101.708H69.6537C69.7729 101.708 69.8872 101.66 69.9715 101.576C70.0558 101.492 70.1032 101.377 70.1032 101.258C70.1032 101.139 70.0558 101.025 69.9715 100.94C69.8872 100.856 69.7729 100.809 69.6537 100.809H64.6292C64.51 100.809 64.3956 100.856 64.3113 100.94C64.227 101.025 64.1797 101.139 64.1797 101.258C64.1797 101.377 64.227 101.492 64.3113 101.576C64.3956 101.66 64.51 101.708 64.6292 101.708Z" fill="#1E7B1D"/>
<path d="M64.4495 103.637H70.9669C71.0861 103.637 71.2005 103.59 71.2848 103.506C71.3691 103.421 71.4164 103.307 71.4164 103.188C71.4164 103.069 71.3691 102.954 71.2848 102.87C71.2005 102.786 71.0861 102.738 70.9669 102.738H64.4495C64.3303 102.738 64.2159 102.786 64.1316 102.87C64.0474 102.954 64 103.069 64 103.188C64 103.307 64.0474 103.421 64.1316 103.506C64.2159 103.59 64.3303 103.637 64.4495 103.637Z" fill="#1E7B1D"/>
<path d="M64.4495 105.626H67.7082C67.8274 105.626 67.9417 105.578 68.026 105.494C68.1103 105.41 68.1577 105.295 68.1577 105.176C68.1577 105.057 68.1103 104.943 68.026 104.858C67.9417 104.774 67.8274 104.727 67.7082 104.727H64.4495C64.3303 104.727 64.2159 104.774 64.1316 104.858C64.0474 104.943 64 105.057 64 105.176C64 105.295 64.0474 105.41 64.1316 105.494C64.2159 105.578 64.3303 105.626 64.4495 105.626Z" fill="#1E7B1D"/>
<g opacity="0.1">
<path d="M64.6292 101.708H69.6537C69.7729 101.708 69.8872 101.66 69.9715 101.576C70.0558 101.492 70.1032 101.377 70.1032 101.258C70.1032 101.139 70.0558 101.025 69.9715 100.94C69.8872 100.856 69.7729 100.809 69.6537 100.809H64.6292C64.51 100.809 64.3956 100.856 64.3113 100.94C64.227 101.025 64.1797 101.139 64.1797 101.258C64.1797 101.377 64.227 101.492 64.3113 101.576C64.3956 101.66 64.51 101.708 64.6292 101.708Z" fill="#FAFAFA"/>
<path d="M64.4495 103.637H70.9669C71.0861 103.637 71.2005 103.59 71.2848 103.506C71.3691 103.421 71.4164 103.307 71.4164 103.188C71.4164 103.069 71.3691 102.954 71.2848 102.87C71.2005 102.786 71.0861 102.738 70.9669 102.738H64.4495C64.3303 102.738 64.2159 102.786 64.1316 102.87C64.0474 102.954 64 103.069 64 103.188C64 103.307 64.0474 103.421 64.1316 103.506C64.2159 103.59 64.3303 103.637 64.4495 103.637Z" fill="#FAFAFA"/>
<path d="M64.4495 105.622H67.7082C67.8274 105.622 67.9417 105.574 68.026 105.49C68.1103 105.406 68.1577 105.291 68.1577 105.172C68.1577 105.053 68.1103 104.939 68.026 104.854C67.9417 104.77 67.8274 104.723 67.7082 104.723H64.4495C64.3303 104.723 64.2159 104.77 64.1316 104.854C64.0474 104.939 64 105.053 64 105.172C64 105.291 64.0474 105.406 64.1316 105.49C64.2159 105.574 64.3303 105.622 64.4495 105.622Z" fill="#FAFAFA"/>
</g>
<path d="M29.193 51.3018L30.7116 51.2344L30.0245 54.1239C29.4825 53.7528 28.9886 53.3161 28.5541 52.8236C28.4287 52.6762 28.3665 52.4854 28.381 52.2925C28.3954 52.0996 28.4853 51.9201 28.6311 51.793L29.193 51.3018Z" fill="#E4897B"/>
<path d="M32.4731 52.7915L31.7925 55.1416L30.0234 54.1175L30.7105 51.2344L32.4731 52.7915Z" fill="#E4897B"/>
<path d="M32.1738 38.8373L29.0664 39.125L36.1933 116.097L39.3007 115.809L32.1738 38.8373Z" fill="#1E7B1D"/>
<path opacity="0.3" d="M32.1738 38.8373L29.0664 39.125L36.1933 116.097L39.3007 115.809L32.1738 38.8373Z" fill="black"/>
<path d="M38.3886 38.2592L35.2812 38.5469L42.4081 115.519L45.5155 115.231L38.3886 38.2592Z" fill="#1E7B1D"/>
<path opacity="0.3" d="M38.3886 38.2592L35.2812 38.5469L42.4081 115.519L45.5155 115.231L38.3886 38.2592Z" fill="black"/>
<path d="M35.2832 38.5482L32.1758 38.8359L39.3027 115.808L42.4101 115.52L35.2832 38.5482Z" fill="#1E7B1D"/>
<path opacity="0.1" d="M35.2832 38.5482L32.1758 38.8359L39.3027 115.808L42.4101 115.52L35.2832 38.5482Z" fill="black"/>
<path d="M34.6271 33.168L31.8307 33.428L29.0664 39.1268L38.3899 38.2631L34.6271 33.168Z" fill="#1E7B1D"/>
<g opacity="0.8">
<path d="M34.6271 33.168L31.8307 33.428L29.0664 39.1268L38.3899 38.2631L34.6271 33.168Z" fill="#FAFAFA"/>
</g>
<path d="M33.0167 30.9844L31.832 33.4276L34.6284 33.1676L33.0167 30.9844Z" fill="#263238"/>
<path d="M56.5135 35.332C56.8346 35.6531 57.101 35.9581 57.3771 36.2952C57.6533 36.6323 57.9165 36.9373 58.1798 37.2584C58.7095 37.9005 59.204 38.5779 59.6855 39.2682C60.6783 40.6717 61.5158 42.1788 62.1834 43.763C62.2636 43.9685 62.3375 44.1836 62.4145 44.4051L62.5301 44.7262C62.5938 44.9183 62.6389 45.1161 62.665 45.3169C62.7346 45.9558 62.6499 46.6022 62.4177 47.2015C62.0712 48.0862 61.5857 48.9099 60.9794 49.6415C59.9075 50.9535 58.6733 52.124 57.3065 53.125L56.0961 51.8408C57.0487 50.6499 57.9197 49.396 58.7031 48.0876C59.0463 47.5287 59.31 46.9246 59.4865 46.2929C59.5353 46.1379 59.5408 45.9725 59.5025 45.8145L59.3934 45.577C59.3195 45.4196 59.2553 45.2559 59.1751 45.1018C58.4955 43.7831 57.7004 42.5271 56.7992 41.3486C56.3498 40.7354 55.8746 40.1383 55.393 39.5411C55.1522 39.2457 54.9082 38.9503 54.6578 38.6614L53.9258 37.817L56.5135 35.332Z" fill="#E4897B"/>
<path d="M54.1523 52.8223L55.52 55.5289L56.8589 54.3763L55.7608 52.4531L54.1523 52.8223Z" fill="#E4897B"/>
<path d="M43.85 36.9208C43.0174 38.5068 42.1527 40.0746 41.2559 41.6243C40.816 42.4044 40.3537 43.1718 39.9042 43.9455L39.2139 45.1013L39.0406 45.3903C38.9539 45.5283 38.8576 45.6921 38.7709 45.8012C38.6842 45.9104 38.5975 46.042 38.514 46.1415C38.4306 46.2411 38.3407 46.3534 38.2572 46.4465C37.6086 47.153 36.9182 47.8199 36.1896 48.4435C35.4865 49.0439 34.7834 49.6282 34.0578 50.1837C32.6226 51.3041 31.149 52.3476 29.6208 53.3428L28.5195 51.9559L32.3241 48.2092C32.9469 47.567 33.5762 46.9634 34.1701 46.3278C34.7537 45.7295 35.3036 45.0993 35.8172 44.4399C35.8792 44.3629 35.9338 44.289 35.9809 44.2184C36.0355 44.1414 36.074 44.0771 36.1125 44.0129C36.1457 43.9613 36.1758 43.9077 36.2024 43.8524L36.3501 43.5538L36.9441 42.3434C37.3518 41.544 37.7499 40.7382 38.1641 39.9451C38.9839 38.3463 39.84 36.7656 40.7325 35.2031L43.85 36.9208Z" fill="#E4897B"/>
<path d="M52.8601 26.0765C52.8183 26.2627 52.8857 26.4393 53.0045 26.4714C53.1233 26.5035 53.255 26.3751 53.2967 26.1889C53.3384 26.0027 53.2678 25.8261 53.149 25.794C53.0302 25.7619 52.889 25.8903 52.8601 26.0765Z" fill="#263238"/>
<path d="M52.8685 26.4336C52.9691 27.0598 53.1526 27.6698 53.4143 28.2476C53.2666 28.3061 53.1078 28.3315 52.9492 28.322C52.7905 28.3126 52.6359 28.2686 52.4961 28.193L52.8685 26.4336Z" fill="#DE5753"/>
<path d="M53.3519 24.9463C53.3291 24.9463 53.3068 24.9396 53.2877 24.927C53.1691 24.8545 53.0347 24.812 52.896 24.803C52.7572 24.7941 52.6184 24.819 52.4915 24.8756C52.4638 24.8864 52.4329 24.8861 52.4054 24.8748C52.3779 24.8634 52.3558 24.8419 52.3438 24.8146C52.333 24.7869 52.3333 24.7561 52.3447 24.7285C52.3561 24.701 52.3776 24.679 52.4048 24.6669C52.5671 24.5973 52.7438 24.5679 52.9199 24.5813C53.0961 24.5947 53.2663 24.6505 53.4162 24.744C53.4284 24.7521 53.4388 24.7625 53.4469 24.7747C53.455 24.7869 53.4605 24.8006 53.4632 24.8149C53.4659 24.8293 53.4657 24.8441 53.4626 24.8584C53.4595 24.8727 53.4535 24.8862 53.445 24.8981C53.4346 24.9131 53.4207 24.9253 53.4045 24.9337C53.3882 24.9421 53.3702 24.9464 53.3519 24.9463Z" fill="#263238"/>
<path d="M46.3689 26.7852C46.7734 28.5124 47.2325 31.6716 46.0703 32.8242C46.0703 32.8242 46.6097 34.574 49.817 34.574C53.3487 34.574 51.4223 32.8242 51.4223 32.8242C49.4799 32.3651 49.4735 30.9364 49.756 29.5976L46.3689 26.7852Z" fill="#E4897B"/>
<path d="M45.6305 33.4242C45.3544 32.872 45.0526 32.2363 45.6305 32.0372C46.2533 31.8189 49.7111 31.5974 50.9215 32.0051C51.244 32.0914 51.5202 32.2999 51.6916 32.5864C51.8631 32.8728 51.9162 33.2148 51.8397 33.5398L45.6305 33.4242Z" fill="#1E7B1D"/>
<path opacity="0.6" d="M45.6305 33.4242C45.3544 32.872 45.0526 32.2363 45.6305 32.0372C46.2533 31.8189 49.7111 31.5974 50.9215 32.0051C51.244 32.0914 51.5202 32.2999 51.6916 32.5864C51.8631 32.8728 51.9162 33.2148 51.8397 33.5398L45.6305 33.4242Z" fill="#FAFAFA"/>
<path d="M41.0108 113.975C40.8036 113.974 40.597 113.952 40.3944 113.908C40.384 113.906 40.3744 113.901 40.3669 113.894C40.3595 113.886 40.3545 113.877 40.3527 113.866C40.3505 113.855 40.3515 113.844 40.3555 113.834C40.3595 113.824 40.3663 113.815 40.3751 113.808C40.4008 113.789 41.0173 113.346 41.3768 113.423C41.4157 113.43 41.4525 113.445 41.4847 113.468C41.5169 113.491 41.5437 113.52 41.563 113.555C41.592 113.593 41.6076 113.64 41.6076 113.688C41.6076 113.736 41.592 113.783 41.563 113.821C41.486 113.946 41.2516 113.975 41.0108 113.975ZM40.5517 113.828C40.9049 113.885 41.3865 113.885 41.4828 113.754C41.4828 113.754 41.5213 113.702 41.4667 113.609C41.455 113.589 41.4388 113.571 41.4193 113.558C41.3999 113.545 41.3777 113.536 41.3544 113.532C41.0628 113.551 40.7834 113.656 40.5517 113.834V113.828Z" fill="#FAFAFA"/>
<path d="M40.4063 113.918H40.3774C40.369 113.913 40.3621 113.906 40.3576 113.898C40.3531 113.889 40.351 113.88 40.3517 113.87C40.3517 113.841 40.3806 113.16 40.6471 112.936C40.679 112.907 40.7168 112.886 40.7578 112.873C40.7988 112.86 40.8421 112.856 40.8846 112.862C40.9279 112.862 40.9699 112.877 41.0033 112.904C41.0367 112.932 41.0594 112.97 41.0676 113.013C41.119 113.276 40.6695 113.79 40.4255 113.921L40.4063 113.918ZM40.8461 112.955C40.8 112.955 40.7555 112.973 40.7209 113.003C40.5634 113.219 40.476 113.478 40.4705 113.745C40.7016 113.562 40.9874 113.173 40.9585 113.019C40.9585 113.003 40.9585 112.965 40.8718 112.955H40.8461Z" fill="#FAFAFA"/>
<path d="M55.1775 113.971C54.9341 113.971 54.6912 113.948 54.4519 113.903C54.4407 113.901 54.4303 113.896 54.4222 113.888C54.4142 113.88 54.4089 113.87 54.407 113.858C54.4052 113.847 54.4067 113.836 54.4112 113.826C54.4158 113.815 54.4232 113.807 54.4327 113.801C54.5515 113.733 55.5981 113.133 55.8518 113.547C55.8772 113.583 55.8908 113.626 55.8908 113.671C55.8908 113.715 55.8772 113.758 55.8518 113.794C55.7811 113.935 55.4793 113.971 55.1775 113.971ZM54.6285 113.82C55.0716 113.884 55.6687 113.874 55.7715 113.73C55.7715 113.73 55.8036 113.685 55.7554 113.605C55.6142 113.377 54.9785 113.65 54.6285 113.826V113.82Z" fill="#FAFAFA"/>
<path d="M54.4613 113.917C54.4508 113.919 54.4397 113.919 54.4292 113.917C54.4211 113.911 54.4148 113.903 54.4108 113.894C54.4069 113.885 54.4054 113.875 54.4067 113.865C54.4067 113.84 54.4452 113.204 54.7277 112.957C54.7706 112.917 54.8217 112.888 54.8773 112.872C54.9328 112.855 54.9915 112.851 55.0488 112.86C55.2061 112.876 55.2511 112.957 55.2607 113.021C55.3057 113.294 54.7695 113.791 54.487 113.92L54.4613 113.917ZM55.0006 112.953C54.9294 112.953 54.8604 112.979 54.808 113.027C54.6392 113.234 54.5413 113.489 54.5287 113.756C54.8112 113.583 55.1708 113.188 55.1483 113.024C55.1483 113.008 55.1483 112.966 55.0328 112.953H55.0006Z" fill="#FAFAFA"/>
<path d="M51.8672 113.856H54.227L54.2494 108.395H51.8929L51.8672 113.856Z" fill="#E4897B"/>
<path d="M37.7031 113.856H40.0629L41.0389 108.395H38.6791L37.7031 113.856Z" fill="#E4897B"/>
<path d="M40.2222 113.586H37.5735C37.5267 113.585 37.4812 113.601 37.4453 113.632C37.4093 113.662 37.3854 113.703 37.3777 113.75L36.9924 115.846C36.9845 115.898 36.988 115.951 37.0026 116.002C37.0173 116.052 37.0428 116.099 37.0773 116.139C37.1118 116.179 37.1545 116.21 37.2025 116.232C37.2505 116.253 37.3026 116.264 37.3552 116.264C38.2799 116.248 38.7261 116.193 39.8916 116.193C40.6075 116.193 42.0876 116.27 43.0797 116.27C44.0717 116.27 44.1584 115.307 43.7507 115.201C41.9174 114.803 41.2111 114.254 40.6107 113.734C40.5036 113.639 40.3654 113.586 40.2222 113.586Z" fill="#263238"/>
<path d="M54.1978 113.586H51.6293C51.5825 113.585 51.537 113.601 51.5011 113.632C51.4652 113.662 51.4412 113.703 51.4335 113.75L51.0482 115.846C51.0393 115.898 51.0418 115.951 51.0556 116.001C51.0695 116.052 51.0943 116.099 51.1283 116.139C51.1624 116.179 51.2048 116.21 51.2525 116.232C51.3003 116.254 51.3522 116.264 51.4046 116.264C52.3325 116.248 53.6713 116.193 54.8399 116.193C56.2076 116.193 57.3891 116.27 58.9912 116.27C59.9544 116.27 60.1887 115.307 59.781 115.201C57.9189 114.796 56.4099 114.755 54.7789 113.772C54.6064 113.657 54.4051 113.593 54.1978 113.586Z" fill="#263238"/>
<path d="M41.569 33.357C39.3762 33.8642 37.0742 39.8905 37.0742 39.8905L41.63 42.9341C42.676 41.3482 43.5929 39.6808 44.3718 37.9481C45.5758 35.1902 43.8068 32.8401 41.569 33.357Z" fill="#1E7B1D"/>
<path opacity="0.7" d="M41.569 33.357C39.3762 33.8642 37.0742 39.8905 37.0742 39.8905L41.63 42.9341C42.676 41.3482 43.5929 39.6808 44.3718 37.9481C45.5758 35.1902 43.8068 32.8401 41.569 33.357Z" fill="black"/>
<path d="M43.2987 37.1992L41.4141 42.7888L41.6292 42.9333C41.6292 42.9333 42.4896 41.6491 43.4046 39.9378L43.2987 37.1992Z" fill="#1E7B1D"/>
<path opacity="0.8" d="M43.2987 37.1992L41.4141 42.7888L41.6292 42.9333C41.6292 42.9333 42.4896 41.6491 43.4046 39.9378L43.2987 37.1992Z" fill="black"/>
<path d="M56.2844 43.8932C56.2651 46.5259 56.1078 49.8007 55.7161 53.8653H43.0985C42.9348 51.9389 43.7888 42.4806 41.5703 33.3561C42.9581 33.0871 44.362 32.9091 45.7729 32.8232C47.5587 32.7204 49.3489 32.7204 51.1346 32.8232C52.3661 32.9429 53.5866 33.1576 54.785 33.4653C54.785 33.4653 55.8638 34.634 56.1912 40.1144C56.2555 41.2092 56.2908 42.4549 56.2844 43.8932Z" fill="#1E7B1D"/>
<path opacity="0.7" d="M56.2844 43.8932C56.2651 46.5259 56.1078 49.8007 55.7161 53.8653H43.0985C42.9348 51.9389 43.7888 42.4806 41.5703 33.3561C42.9581 33.0871 44.362 32.9091 45.7729 32.8232C47.5587 32.7204 49.3489 32.7204 51.1346 32.8232C52.3661 32.9429 53.5866 33.1576 54.785 33.4653C54.785 33.4653 55.8638 34.634 56.1912 40.1144C56.2555 41.2092 56.2908 42.4549 56.2844 43.8932Z" fill="black"/>
<path d="M56.2826 43.8923C55.5185 42.4989 54.1315 39.7025 54.3273 38.1133L56.1895 40.1295C56.2537 41.2083 56.289 42.454 56.2826 43.8923Z" fill="#1E7B1D"/>
<path opacity="0.8" d="M56.2826 43.8923C55.5185 42.4989 54.1315 39.7025 54.3273 38.1133L56.1895 40.1295C56.2537 41.2083 56.289 42.454 56.2826 43.8923Z" fill="black"/>
<path d="M52.3143 35.6098C52.1152 37.8572 57.2104 43.2638 57.2104 43.2638L61.2942 39.9377C60.2246 38.1327 58.9431 36.4621 57.4769 34.9613C55.0882 32.6529 52.539 33.0928 52.3143 35.6098Z" fill="#1E7B1D"/>
<path opacity="0.7" d="M52.3143 35.6098C52.1152 37.8572 57.2104 43.2638 57.2104 43.2638L61.2942 39.9377C60.2246 38.1327 58.9431 36.4621 57.4769 34.9613C55.0882 32.6529 52.539 33.0928 52.3143 35.6098Z" fill="black"/>
<path d="M54.2483 108.398L54.2355 111.211H51.8789L51.8885 108.398H54.2483Z" fill="#CE6F64"/>
<path d="M38.6798 108.398H41.0396L40.5356 111.211H38.1758L38.6798 108.398Z" fill="#CE6F64"/>
<path d="M46.7899 24.1242C46.4464 26.4486 46.1285 27.7842 47.0211 29.2611C47.3048 29.7394 47.714 30.1309 48.2044 30.3932C48.6947 30.6555 49.2475 30.7786 49.8028 30.7492C50.3581 30.7197 50.8948 30.5389 51.3547 30.2262C51.8145 29.9135 52.1801 29.4809 52.4116 28.9753C53.3331 27.049 53.744 23.5687 51.7181 22.0983C51.2907 21.7682 50.7838 21.5565 50.2485 21.4845C49.7133 21.4125 49.1685 21.4827 48.669 21.688C48.1695 21.8934 47.7328 22.2266 47.4029 22.6543C47.0731 23.0819 46.8617 23.5889 46.7899 24.1242Z" fill="#E4897B"/>
<path d="M53.7741 23.0243C53.0792 23.4038 52.3147 23.6386 51.5267 23.7146C50.9391 26.4019 49.3756 29.4936 46.8457 28.6043C45.8825 28.2833 44.9193 25.9492 44.8198 23.8784C44.6528 24.0806 44.5405 24.3439 44.4538 24.453C44.3094 23.5327 44.4136 22.5906 44.7556 21.7241C45.4555 19.7399 45.921 21.0563 46.6819 19.8523C47.1731 19.0561 48.0464 18.6451 49.5714 18.5938C49.1444 18.8153 49.0642 19.1717 49.6967 19.1203C50.3291 19.0689 53.0292 18.9212 54.6024 19.9839C53.5397 20.2247 54.1882 21.9103 55.6073 21.0113C55.0904 21.8493 54.4483 22.6455 53.7741 23.0243Z" fill="#263238"/>
<path d="M49.711 25.5623C49.7199 26.1534 49.918 26.7261 50.276 27.1965C50.7544 27.8129 51.3034 27.5176 51.435 26.8241C51.5506 26.2076 51.435 25.1417 50.8379 24.7693C50.2407 24.3969 49.7077 24.856 49.711 25.5623Z" fill="#E4897B"/>
<path d="M46.8318 20.1038C46.5114 20.0835 46.2008 19.9851 45.9272 19.8172C45.6535 19.6493 45.4251 19.417 45.2618 19.1406C45.2618 19.1406 45.2201 21.022 46.8318 20.1038Z" fill="#1E2A4C"/>
<path d="M51.2365 53.8644C51.2365 53.8644 49.2588 71.8885 48.0484 78.6404C46.7256 86.0247 41.6272 110.669 41.6272 110.669H37.293C37.293 110.669 40.3687 86.6315 41.0108 79.2985C41.7011 71.3524 43.1105 53.8516 43.1105 53.8516L51.2365 53.8644Z" fill="#1E7B1D"/>
<path opacity="0.6" d="M51.2365 53.8644C51.2365 53.8644 49.2588 71.8885 48.0484 78.6404C46.7256 86.0247 41.6272 110.669 41.6272 110.669H37.293C37.293 110.669 40.3687 86.6315 41.0108 79.2985C41.7011 71.3524 43.1105 53.8516 43.1105 53.8516L51.2365 53.8644Z" fill="#FAFAFA"/>
<path d="M42.2397 109.078C42.2589 109.078 41.8576 110.738 41.8576 110.738H37L37.0321 109.258L42.2397 109.078Z" fill="#1E7B1D"/>
<path opacity="0.1" d="M42.2397 109.078C42.2589 109.078 41.8576 110.738 41.8576 110.738H37L37.0321 109.258L42.2397 109.078Z" fill="#FAFAFA"/>
<path d="M49.7963 60.2867C46.7238 60.8935 47.4976 72.4355 48.098 78.3718C48.83 74.1756 49.8252 66.101 50.4963 60.3702C50.279 60.2643 50.0324 60.2348 49.7963 60.2867Z" fill="#1E7B1D"/>
<path opacity="0.4" d="M49.7963 60.2867C46.7238 60.8935 47.4976 72.4355 48.098 78.3718C48.83 74.1756 49.8252 66.101 50.4963 60.3702C50.279 60.2643 50.0324 60.2348 49.7963 60.2867Z" fill="#FAFAFA"/>
<path d="M55.7109 53.8672C55.7109 53.8672 56.719 71.4996 56.7383 78.6945C56.7607 86.1752 55.0944 110.672 55.0944 110.672H51.0973C51.0973 110.672 50.0217 86.6118 49.5594 79.266C49.0586 71.2556 47.418 53.8672 47.418 53.8672H55.7109Z" fill="#1E7B1D"/>
<path opacity="0.6" d="M55.7109 53.8672C55.7109 53.8672 56.719 71.4996 56.7383 78.6945C56.7607 86.1752 55.0944 110.672 55.0944 110.672H51.0973C51.0973 110.672 50.0217 86.6118 49.5594 79.266C49.0586 71.2556 47.418 53.8672 47.418 53.8672H55.7109Z" fill="#FAFAFA"/>
<path d="M56.6776 51.5977L55.5571 51.6876C55.4658 51.6952 55.3774 51.7231 55.2982 51.7692C55.2191 51.8154 55.1512 51.8785 55.0996 51.9542C55.0479 52.0298 55.0138 52.116 54.9996 52.2065C54.9854 52.297 54.9916 52.3895 55.0177 52.4774L55.48 54.0345C55.5191 54.161 55.5881 54.2762 55.6812 54.3703C55.7743 54.4644 55.8888 54.5347 56.0149 54.575C56.141 54.6154 56.275 54.6247 56.4055 54.6021C56.5359 54.5795 56.659 54.5258 56.7643 54.4454C57.343 53.9067 57.7581 53.2157 57.9618 52.4517L56.6776 51.5977Z" fill="#E4897B"/>
<path d="M54.1479 107.798C54.1371 107.796 54.1273 107.791 54.1202 107.782C54.1131 107.774 54.1093 107.764 54.1094 107.753C54.5524 100.975 55.5798 84.5725 55.5606 78.6907C55.5606 72.6709 54.8285 59.2057 54.5974 55.2214C54.5969 55.2161 54.5976 55.2107 54.5993 55.2057C54.6011 55.2006 54.6038 55.196 54.6075 55.1921C54.6111 55.1882 54.6155 55.185 54.6204 55.1829C54.6253 55.1808 54.6306 55.1797 54.6359 55.1797C54.6464 55.1797 54.6566 55.1836 54.6643 55.1908C54.6721 55.1979 54.6768 55.2077 54.6776 55.2182C54.896 59.2025 55.6119 72.6677 55.6408 78.6907C55.6601 84.5757 54.6327 100.978 54.1896 107.759C54.1897 107.765 54.1886 107.77 54.1864 107.775C54.1843 107.78 54.1812 107.784 54.1772 107.788C54.1733 107.791 54.1687 107.794 54.1636 107.796C54.1586 107.798 54.1532 107.798 54.1479 107.798Z" fill="#1E7B1D"/>
<path opacity="0.3" d="M54.1479 107.798C54.1371 107.796 54.1273 107.791 54.1202 107.782C54.1131 107.774 54.1093 107.764 54.1094 107.753C54.5524 100.975 55.5798 84.5725 55.5606 78.6907C55.5606 72.6709 54.8285 59.2057 54.5974 55.2214C54.5969 55.2161 54.5976 55.2107 54.5993 55.2057C54.6011 55.2006 54.6038 55.196 54.6075 55.1921C54.6111 55.1882 54.6155 55.185 54.6204 55.1829C54.6253 55.1808 54.6306 55.1797 54.6359 55.1797C54.6464 55.1797 54.6566 55.1836 54.6643 55.1908C54.6721 55.1979 54.6768 55.2077 54.6776 55.2182C54.896 59.2025 55.6119 72.6677 55.6408 78.6907C55.6601 84.5757 54.6327 100.978 54.1896 107.759C54.1897 107.765 54.1886 107.77 54.1864 107.775C54.1843 107.78 54.1812 107.784 54.1772 107.788C54.1733 107.791 54.1687 107.794 54.1636 107.796C54.1586 107.798 54.1532 107.798 54.1479 107.798Z" fill="#FAFAFA"/>
<path d="M55.8006 109.078C55.8199 109.078 55.6401 110.738 55.6401 110.738H50.7793L50.5898 109.258L55.8006 109.078Z" fill="#1E7B1D"/>
<path opacity="0.1" d="M55.8006 109.078C55.8199 109.078 55.6401 110.738 55.6401 110.738H50.7793L50.5898 109.258L55.8006 109.078Z" fill="#FAFAFA"/>
</svg>
